<svg xmlns="http://www.w3.org/2000/svg" viewBox="0 0 79.66 79.66"><defs><style>.cls-1{fill:#db7027;}.cls-2,.cls-3{fill:#fff;}.cls-3{fill-rule:evenodd;}</style></defs><g id="Layer_4" data-name="Layer 4"><circle class="cls-1" cx="39.83" cy="39.83" r="39.83"/><path class="cls-2" d="M39.83,54.89A1.69,1.69,0,1,1,41,52a1.7,1.7,0,0,1,0,2.39A1.64,1.64,0,0,1,39.83,54.89Zm-1.22-5.35-.21-8.11h2.86L41,49.54Z"/><path class="cls-3" d="M63.21,64.69l-45.67.16c0-8.93-.1-26.55-.1-26.55l-5.3,4.83-4.3-4.54L24.26,21.51l.37-8.08L24.58,10l5.54,0,.29,5.92s6.65-6.43,9.42-9.45C51.18,17.68,61.07,28.28,71.82,39l-3.57,3.68L63.1,37.84C63.14,47.09,63.17,55.79,63.21,64.69ZM57.62,55a4.73,4.73,0,0,1-4.72,4.71H26.76a4.7,4.7,0,0,1-4.08-7.07L35.75,30a4.7,4.7,0,0,1,8.16,0L57,52.68A4.65,4.65,0,0,1,57.62,55Z"/></g></svg>