<svg xmlns="http://www.w3.org/2000/svg" viewBox="0 0 424.29 155.41"><defs><style>.cls-1{fill:#a07d9d;}.cls-2,.cls-4{fill:none;stroke:#444545;stroke-miterlimit:10;stroke-width:0.7px;}.cls-3{fill:#444545;}.cls-4{stroke-dasharray:2.94 2.94;}.cls-5{font-size:14px;font-family:Calibri-Light, Calibri;font-weight:300;}.cls-14,.cls-5{fill:#231f20;}.cls-6{letter-spacing:-0.04em;}.cls-7{font-size:13px;font-family:Montserrat-ExtraBold, Montserrat;font-weight:800;}.cls-22,.cls-7{fill:#db7027;}.cls-8{letter-spacing:0.01em;}.cls-9{letter-spacing:-0.01em;}.cls-10{letter-spacing:-0.01em;}.cls-11{letter-spacing:0em;}.cls-12{letter-spacing:0.05em;}.cls-13{letter-spacing:-0.02em;}.cls-14{font-family:Calibri-Italic, Calibri;font-weight:400;font-style:italic;}.cls-15{letter-spacing:-0.01em;}.cls-16{letter-spacing:0.01em;}.cls-17{letter-spacing:-0.01em;}.cls-18{fill:#efb16b;}.cls-19{fill:#3373b6;}.cls-20{fill:#d48139;}.cls-21{fill:#db9856;}.cls-23,.cls-24{fill:#fff;}.cls-24{fill-rule:evenodd;}</style></defs><g id="Layer_6" data-name="Layer 6"><circle class="cls-1" cx="36.14" cy="36.14" r="36.14"/><line class="cls-2" x1="114.01" y1="77.64" x2="382.22" y2="77.64"/><polygon class="cls-3" points="114.44 77.12 111.89 72.7 110.69 72.7 113.24 77.12 112.05 77.12 109.5 72.7 108.31 72.7 110.86 77.12 109.66 77.12 107.11 72.7 105.92 72.7 108.47 77.12 107.24 77.12 107.24 78.16 108.47 78.16 105.92 82.58 107.11 82.58 109.66 78.16 110.86 78.16 108.31 82.58 109.5 82.58 112.05 78.16 113.24 78.16 110.69 82.58 111.89 82.58 114.44 78.16 114.44 77.12"/><path class="cls-3" d="M388.55,77.64a31.51,31.51,0,0,0-9,5l1.81-5-1.81-5A31.75,31.75,0,0,0,388.55,77.64Z"/><line class="cls-2" x1="301.06" y1="150.42" x2="388.55" y2="150.42"/><path class="cls-3" d="M294.73,150.42a31.51,31.51,0,0,1,9,5l-1.8-5,1.8-5A31.78,31.78,0,0,1,294.73,150.42Z"/><line class="cls-2" x1="280.11" y1="150.42" x2="294.73" y2="150.42"/><path class="cls-3" d="M273.77,150.42a31.7,31.7,0,0,1,9,5l-1.81-5,1.81-5A32,32,0,0,1,273.77,150.42Z"/><line class="cls-2" x1="258.77" y1="150.42" x2="273.77" y2="150.42"/><path class="cls-3" d="M252.43,150.42a31.7,31.7,0,0,1,9,5l-1.81-5,1.81-5A32,32,0,0,1,252.43,150.42Z"/><line class="cls-2" x1="112.25" y1="150.42" x2="252.43" y2="150.42"/><path class="cls-3" d="M105.92,150.42a31.51,31.51,0,0,1,9,5l-1.81-5,1.81-5A31.78,31.78,0,0,1,105.92,150.42Z"/><path class="cls-2" d="M387.55,77.64A36.36,36.36,0,0,1,423.94,114"/><path class="cls-2" d="M423.94,114a36.37,36.37,0,0,1-30.07,35.84"/><path class="cls-3" d="M387.55,150.42a31.82,31.82,0,0,0,8.45-5.84l-1.31,5.14,2.28,4.8A31.63,31.63,0,0,0,387.55,150.42Z"/><line class="cls-2" x1="394.85" y1="78.42" x2="394.85" y2="63.92"/><line class="cls-2" x1="146.73" y1="77.64" x2="146.73" y2="63.92"/><line class="cls-2" x1="279.01" y1="77.64" x2="279.01" y2="71.72"/><line class="cls-2" x1="338.52" y1="77.64" x2="338.52" y2="71.72"/><line class="cls-2" x1="210.99" y1="150.46" x2="210.99" y2="144.55"/><line class="cls-2" x1="146.31" y1="150.46" x2="146.31" y2="144.55"/><line class="cls-2" x1="338.52" y1="150.46" x2="338.52" y2="144.55"/><line class="cls-2" x1="70.94" y1="77.64" x2="72.44" y2="77.64"/><line class="cls-4" x1="75.39" y1="77.64" x2="103.36" y2="77.64"/><line class="cls-2" x1="104.83" y1="77.64" x2="106.33" y2="77.64"/><line class="cls-2" x1="70.94" y1="150.46" x2="72.44" y2="150.46"/><line class="cls-4" x1="75.39" y1="150.46" x2="103.36" y2="150.46"/><line class="cls-2" x1="104.83" y1="150.46" x2="106.33" y2="150.46"/><line class="cls-2" x1="238.17" y1="150.36" x2="238.17" y2="135.86"/></g><g id="Layer_1" data-name="Layer 1"><text class="cls-5" transform="translate(391.88 53)"><tspan class="cls-6">Y</tspan><tspan x="5.95" y="0">r 1</tspan></text><text class="cls-7" transform="translate(182.04 28.53)">E<tspan class="cls-8" x="8.74" y="0">m</tspan><tspan x="22.42" y="0">e</tspan><tspan class="cls-9" x="30.77" y="0">r</tspan><tspan x="36.44" y="0">ge</tspan><tspan class="cls-8" x="53.95" y="0">n</tspan><tspan class="cls-10" x="63.1" y="0">c</tspan><tspan class="cls-11" x="70.81" y="0">y s</tspan><tspan class="cls-8" x="89.76" y="0">h</tspan><tspan class="cls-11" x="98.92" y="0">e</tspan><tspan class="cls-12" x="107.26" y="0">l</tspan><tspan class="cls-13" x="112.03" y="0">t</tspan><tspan class="cls-11" x="117.64" y="0">er</tspan><tspan class="cls-14"><tspan class="cls-15" x="0" y="15.6">e</tspan><tspan x="6.13" y="15.6">ve</tspan><tspan class="cls-16" x="18.13" y="15.6">r</tspan><tspan x="22.65" y="15.6">y 1-3 days</tspan><tspan class="cls-17" x="0" y="31.2">f</tspan><tspan x="3.81" y="31.2">or 4 yrs</tspan></tspan></text><text class="cls-5" transform="translate(235.2 124.94)"><tspan class="cls-6">Y</tspan><tspan x="5.95" y="0">r 4</tspan></text><path class="cls-18" d="M22.73,62.51A103.52,103.52,0,0,0,24.18,46.4c0-1.83,0-3.09-2.39-4-4-1.49-5.81-7.76-4-12.14a19.35,19.35,0,0,1,1.3-2.3c4.49-1.22,5.83,2.41,7.77,5.08.45.62.56,1.43,1.16,2,.52-.72,0-1.45,0-2.17.13-4.18,1.18-8.25,1.74-12.38.44-3.19,3.55-4,6.53-4.12,5.46-.16,10.92,0,16.39.1,1.62.08,1.31,1.59,1.78,2.49a16.71,16.71,0,0,1,1.7,10.76c-1.66,1.34-3.43.14-5.15.2-.62,0-1.58-.18-1.69.44s.88.62,1.4.85a2.42,2.42,0,0,1,1.19.9c.73,1.23-3.65,2.71.18,3.79.3,0,.6,0,.9-.09a11.69,11.69,0,0,0,1.72-.43,1.75,1.75,0,0,1,1.29.11C57.4,41,55.84,46,53.21,50.7c-1.26,2.24-2.27,4.85-5,6a2,2,0,0,0-.9,2.66c.72,1.84.43,3.76.77,5.62-2.63,4.19-6.93,4.86-11.19,4.63C31.29,69.31,26,67.75,22.73,62.51Z"/><path class="cls-19" d="M22.73,62.51a39.23,39.23,0,0,0,6,4c5.61,2.91,11.18,3.06,16.76,0,.88-.48,1.72-1,2.58-1.55a53.36,53.36,0,0,1,12.36,5.78,16.28,16.28,0,0,1,3.94,3.54c.88,1.1,1.79,2.67,1.36,3.8s-2.24.48-3.43.49q-27.89.06-55.77.08c-4,0-3.16,0-2.07-3.33.91-2.74,3.19-4.61,5.46-6.23A53.14,53.14,0,0,1,22.73,62.51Z"/><path class="cls-20" d="M54.68,16.46c-.21.66-.06,1.76-1.22,1.49-5.4-1.27-12.87-.44-18.3-.55-3.2-.06-4.8,1.85-4.83,5,0,2.65.23,5.28-1.32,7.73a3.35,3.35,0,0,0,.17,3.3,5.09,5.09,0,0,1,.37,3,1.4,1.4,0,0,1-1.13,1.35c-.31,0-.88-.55-1.05-1a24.31,24.31,0,0,0-2.45-5c-1.42-2.06-3.2-3.59-5.85-3.75.22-2.27.32-4.56.68-6.81.62-3.86,3.18-6.27,6.56-7.79,7.35-3.31,14.8-3,22.23-.19C50.23,13.83,53.63,14.94,54.68,16.46Z"/><path class="cls-18" d="M55.84,33.79l-1-.29c-.87.31-1.28-.13-1.5-.9.7-1.34,2-.35,2.94-.74A2.11,2.11,0,0,1,55.84,33.79Z"/><path class="cls-21" d="M42.12,58c-2.71.34-5.26-1-7.87-2.26-2-.93-2.11-3-3-4.55-.06-.11.14-.49.31-.6a.65.65,0,0,1,.94.26,8.66,8.66,0,0,0,6.86,4.71c2,.24,3.86,1.14,5.9.93.49,0,1.06.13,1,.81s-.62.69-1.12.7Z"/><ellipse class="cls-18" cx="52.68" cy="32.52" rx="4.84" ry="11.91"/></g><g id="Layer_4" data-name="Layer 4"><circle class="cls-22" cx="147.7" cy="43.43" r="22.93"/><path class="cls-23" d="M147.7,52.09a.9.9,0,0,1-.68-.28,1,1,0,0,1,0-1.38.9.9,0,0,1,.68-.28.92.92,0,0,1,.69.28,1,1,0,0,1,0,1.38A.92.92,0,0,1,147.7,52.09ZM147,49l-.12-4.67h1.65L148.38,49Z"/><path class="cls-24" d="M161.16,57.74l-26.29.09c0-5.14-.06-15.28-.06-15.28l-3.05,2.78-2.47-2.62,9.45-9.83.21-4.65,0-2h3.19l.16,3.4s3.83-3.7,5.42-5.44c6.54,6.5,12.23,12.6,18.42,18.75-.59.6-1.26,1.3-2.05,2.12l-3-2.77C161.12,47.61,161.14,52.61,161.16,57.74ZM158,52.18a2.72,2.72,0,0,1-2.72,2.71h-15a2.7,2.7,0,0,1-2.72-2.69,2.77,2.77,0,0,1,.37-1.38l7.52-13a2.71,2.71,0,0,1,3.71-1,2.61,2.61,0,0,1,1,1l7.53,13A2.72,2.72,0,0,1,158,52.18Z"/><circle class="cls-22" cx="279.43" cy="59.89" r="11.86"/><path class="cls-23" d="M279.43,64.37a.49.49,0,0,1-.36-.15.45.45,0,0,1-.15-.35.49.49,0,0,1,.15-.36.48.48,0,0,1,.36-.14.45.45,0,0,1,.35.14.49.49,0,0,1,.15.36.51.51,0,0,1-.5.5Zm-.36-1.59L279,60.36h.85l-.07,2.42Z"/><path class="cls-24" d="M286.39,67.29l-13.6,0c0-2.66,0-7.91,0-7.91l-1.58,1.44-1.28-1.35,4.89-5.09L274.9,52V51h1.65l.08,1.76s2-1.91,2.81-2.81c3.38,3.36,6.33,6.52,9.53,9.7-.31.31-.65.67-1.06,1.1l-1.54-1.44C286.37,62.05,286.38,64.64,286.39,67.29Zm-1.66-2.87a1.41,1.41,0,0,1-1.41,1.4h-7.79a1.4,1.4,0,0,1-1.4-1.4,1.38,1.38,0,0,1,.19-.71L278.21,57a1.41,1.41,0,0,1,1.92-.51,1.39,1.39,0,0,1,.51.51l3.9,6.74A1.48,1.48,0,0,1,284.73,64.42Z"/><circle class="cls-22" cx="338.43" cy="59.89" r="11.86"/><path class="cls-23" d="M338.43,64.37a.49.49,0,0,1-.36-.15.45.45,0,0,1-.15-.35.49.49,0,0,1,.15-.36.48.48,0,0,1,.36-.14.45.45,0,0,1,.35.14.49.49,0,0,1,.15.36.51.51,0,0,1-.5.5Zm-.36-1.59L338,60.36h.85l-.07,2.42Z"/><path class="cls-24" d="M345.39,67.29l-13.6,0c0-2.66,0-7.91,0-7.91l-1.58,1.44-1.28-1.35,4.89-5.09L333.9,52V51h1.65l.08,1.76s2-1.91,2.81-2.81c3.38,3.36,6.33,6.52,9.53,9.7-.31.31-.65.67-1.06,1.1l-1.54-1.44C345.37,62.05,345.38,64.64,345.39,67.29Zm-1.66-2.87a1.41,1.41,0,0,1-1.41,1.4h-7.79a1.4,1.4,0,0,1-1.4-1.4,1.38,1.38,0,0,1,.19-.71L337.21,57a1.41,1.41,0,0,1,1.92-.51,1.39,1.39,0,0,1,.51.51l3.9,6.74A1.48,1.48,0,0,1,343.73,64.42Z"/><circle class="cls-22" cx="146.73" cy="132.71" r="11.86"/><path class="cls-23" d="M146.73,137.2a.45.45,0,0,1-.35-.15.49.49,0,0,1-.15-.36.47.47,0,0,1,.15-.35.45.45,0,0,1,.35-.15.49.49,0,0,1,.36.15.47.47,0,0,1,.15.35.51.51,0,0,1-.51.51Zm-.36-1.59-.06-2.42h.85l-.08,2.42Z"/><path class="cls-24" d="M153.7,140.12l-13.61,0c0-2.66,0-7.91,0-7.91l-1.58,1.44-1.28-1.36,4.89-5.08.11-2.41v-1h1.65l.09,1.76s2-1.92,2.8-2.82c3.38,3.37,6.33,6.52,9.53,9.71l-1.06,1.09-1.53-1.43C153.68,134.88,153.68,137.47,153.7,140.12ZM152,137.24a1.41,1.41,0,0,1-1.4,1.41h-7.79a1.41,1.41,0,0,1-1.41-1.4,1.48,1.48,0,0,1,.19-.71l3.9-6.74a1.39,1.39,0,0,1,1.91-.52,1.37,1.37,0,0,1,.52.52l3.89,6.74A1.34,1.34,0,0,1,152,137.24Z"/><circle class="cls-22" cx="210.73" cy="132.71" r="11.86"/><path class="cls-23" d="M210.73,137.2a.45.45,0,0,1-.35-.15.49.49,0,0,1-.15-.36.47.47,0,0,1,.15-.35.45.45,0,0,1,.35-.15.49.49,0,0,1,.36.15.47.47,0,0,1,.15.35.51.51,0,0,1-.51.51Zm-.36-1.59-.06-2.42h.85l-.08,2.42Z"/><path class="cls-24" d="M217.7,140.12l-13.61,0c0-2.66,0-7.91,0-7.91l-1.58,1.44-1.28-1.36,4.89-5.08.11-2.41v-1h1.65l.09,1.76s2-1.92,2.8-2.82c3.38,3.37,6.33,6.52,9.53,9.71l-1.06,1.09-1.53-1.43C217.68,134.88,217.68,137.47,217.7,140.12ZM216,137.24a1.41,1.41,0,0,1-1.4,1.41h-7.79a1.41,1.41,0,0,1-1.41-1.4,1.48,1.48,0,0,1,.19-.71l3.9-6.74a1.39,1.39,0,0,1,1.91-.52,1.37,1.37,0,0,1,.52.52l3.89,6.74A1.34,1.34,0,0,1,216,137.24Z"/><circle class="cls-22" cx="338.93" cy="132.71" r="11.86"/><path class="cls-23" d="M338.93,137.2a.47.47,0,0,1-.35-.15.49.49,0,0,1-.15-.36.51.51,0,0,1,.5-.5.49.49,0,0,1,.36.15.47.47,0,0,1,.15.35.51.51,0,0,1-.51.51Zm-.36-1.59-.06-2.42h.85l-.07,2.42Z"/><path class="cls-24" d="M345.9,140.12l-13.6,0c0-2.66,0-7.91,0-7.91l-1.57,1.44-1.29-1.36,4.9-5.08.11-2.41,0-1H336l.09,1.76s2-1.92,2.8-2.82c3.38,3.37,6.33,6.52,9.53,9.71l-1.06,1.09-1.53-1.43C345.88,134.88,345.89,137.47,345.9,140.12Zm-1.67-2.88a1.41,1.41,0,0,1-1.4,1.41H335a1.42,1.42,0,0,1-1.41-1.4,1.48,1.48,0,0,1,.19-.71l3.9-6.74a1.4,1.4,0,0,1,1.92-.52,1.41,1.41,0,0,1,.51.52l3.89,6.74A1.34,1.34,0,0,1,344.23,137.24Z"/></g></svg>