<?xml version="1.0" encoding="utf-8"?>
<!-- Generator: Adobe Illustrator 24.3.0, SVG Export Plug-In . SVG Version: 6.00 Build 0)  -->
<svg version="1.1" id="Layer_1" xmlns="http://www.w3.org/2000/svg" xmlns:xlink="http://www.w3.org/1999/xlink" x="0px" y="0px"
	 viewBox="0 0 424.3 155.4" style="enable-background:new 0 0 424.3 155.4;" xml:space="preserve">
<style type="text/css">
	.st0{fill:#A07D9D;}
	.st1{fill:none;stroke:#444545;stroke-width:0.7;stroke-miterlimit:10;}
	.st2{fill:#444545;}
	.st3{fill:none;stroke:#444545;stroke-width:0.7;stroke-miterlimit:10;stroke-dasharray:2.94,2.94;}
	.st4{enable-background:new    ;}
	.st5{fill:#231F20;}
	.st6{fill:#DB7027;}
	.st7{fill:#EFB16B;}
	.st8{fill:#3373B6;}
	.st9{fill:#D48139;}
	.st10{fill:#DB9856;}
	.st11{fill:#FFFFFF;}
	.st12{fill-rule:evenodd;clip-rule:evenodd;fill:#FFFFFF;}
</style>
<g id="Layer_6">
	<circle class="st0" cx="36.1" cy="36.1" r="36.1"/>
	<line class="st1" x1="114" y1="77.6" x2="382.2" y2="77.6"/>
	<polygon class="st2" points="114.4,77.1 111.9,72.7 110.7,72.7 113.2,77.1 112.1,77.1 109.5,72.7 108.3,72.7 110.9,77.1 
		109.7,77.1 107.1,72.7 105.9,72.7 108.5,77.1 107.2,77.1 107.2,78.2 108.5,78.2 105.9,82.6 107.1,82.6 109.7,78.2 110.9,78.2 
		108.3,82.6 109.5,82.6 112.1,78.2 113.2,78.2 110.7,82.6 111.9,82.6 114.4,78.2 	"/>
	<path class="st2" d="M388.5,77.6c-3.3,1.2-6.3,2.9-9,5l1.8-5l-1.8-5C382.3,74.8,385.3,76.5,388.5,77.6z"/>
	<line class="st1" x1="301.1" y1="150.4" x2="388.5" y2="150.4"/>
	<path class="st2" d="M294.7,150.4c3.3,1.2,6.3,2.9,9,5l-1.8-5l1.8-5C301,147.6,298,149.3,294.7,150.4z"/>
	<line class="st1" x1="280.1" y1="150.4" x2="294.7" y2="150.4"/>
	<path class="st2" d="M273.8,150.4c3.3,1.2,6.3,2.9,9,5l-1.8-5l1.8-5C280.1,147.6,277,149.3,273.8,150.4z"/>
	<line class="st1" x1="258.8" y1="150.4" x2="273.8" y2="150.4"/>
	<path class="st2" d="M252.4,150.4c3.3,1.2,6.3,2.9,9,5l-1.8-5l1.8-5C258.7,147.6,255.7,149.3,252.4,150.4z"/>
	<line class="st1" x1="112.2" y1="150.4" x2="252.4" y2="150.4"/>
	<path class="st2" d="M105.9,150.4c3.3,1.2,6.3,2.9,9,5l-1.8-5l1.8-5C112.2,147.6,109.2,149.3,105.9,150.4z"/>
	<path class="st1" d="M387.5,77.6c20.1,0,36.4,16.2,36.4,36.3c0,0,0,0,0,0"/>
	<path class="st1" d="M423.9,114c0,17.7-12.7,32.8-30.1,35.8"/>
	<path class="st2" d="M387.5,150.4c3.1-1.5,6-3.4,8.5-5.8l-1.3,5.1l2.3,4.8C394.1,152.6,390.9,151.3,387.5,150.4z"/>
	<line class="st1" x1="394.9" y1="78.4" x2="394.9" y2="63.9"/>
	<line class="st1" x1="146.7" y1="77.6" x2="146.7" y2="63.9"/>
	<line class="st1" x1="279" y1="77.6" x2="279" y2="71.7"/>
	<line class="st1" x1="338.5" y1="77.6" x2="338.5" y2="71.7"/>
	<line class="st1" x1="211" y1="150.5" x2="211" y2="144.6"/>
	<line class="st1" x1="146.3" y1="150.5" x2="146.3" y2="144.6"/>
	<line class="st1" x1="338.5" y1="150.5" x2="338.5" y2="144.6"/>
	<line class="st1" x1="70.9" y1="77.6" x2="72.4" y2="77.6"/>
	<line class="st3" x1="75.4" y1="77.6" x2="103.4" y2="77.6"/>
	<line class="st1" x1="104.8" y1="77.6" x2="106.3" y2="77.6"/>
	<line class="st1" x1="70.9" y1="150.5" x2="72.4" y2="150.5"/>
	<line class="st3" x1="75.4" y1="150.5" x2="103.4" y2="150.5"/>
	<line class="st1" x1="104.8" y1="150.5" x2="106.3" y2="150.5"/>
	<line class="st1" x1="238.2" y1="150.4" x2="238.2" y2="135.9"/>
</g>
<g id="Layer_1_1_">
	<g class="st4">
		<path class="st5" d="M395.6,49.5v3.3c0,0,0,0.1,0,0.1s0,0-0.1,0.1c0,0-0.1,0-0.1,0s-0.1,0-0.2,0c-0.1,0-0.1,0-0.2,0
			c-0.1,0-0.1,0-0.1,0s-0.1,0-0.1-0.1s0,0,0-0.1v-3.3l-2.5-5.1c0-0.1,0-0.1-0.1-0.2c0,0,0-0.1,0-0.1c0,0,0.1,0,0.1,0
			c0.1,0,0.1,0,0.2,0c0.1,0,0.2,0,0.2,0c0.1,0,0.1,0,0.2,0c0,0,0.1,0,0.1,0.1c0,0,0,0,0.1,0.1l1.4,2.8c0.1,0.3,0.3,0.5,0.4,0.8
			c0.1,0.3,0.3,0.6,0.4,0.8h0c0.1-0.3,0.2-0.5,0.4-0.8s0.2-0.5,0.4-0.8l1.4-2.8c0,0,0-0.1,0-0.1c0,0,0,0,0.1-0.1c0,0,0.1,0,0.1,0
			c0.1,0,0.1,0,0.2,0c0.1,0,0.2,0,0.3,0s0.1,0,0.1,0.1c0,0,0,0.1,0,0.1c0,0,0,0.1-0.1,0.2L395.6,49.5z"/>
	</g>
	<g class="st4">
		<path class="st5" d="M402.4,47c0,0.1,0,0.1,0,0.2c0,0,0,0.1,0,0.1c0,0,0,0.1,0,0.1c0,0,0,0-0.1,0c0,0-0.1,0-0.1,0
			c-0.1,0-0.1,0-0.2-0.1s-0.2,0-0.2-0.1c-0.1,0-0.2,0-0.3,0c-0.1,0-0.2,0-0.4,0.1c-0.1,0.1-0.2,0.1-0.4,0.3
			c-0.1,0.1-0.3,0.3-0.4,0.5c-0.1,0.2-0.3,0.4-0.5,0.7v4.2c0,0,0,0.1,0,0.1s0,0-0.1,0.1c0,0-0.1,0-0.1,0c-0.1,0-0.1,0-0.2,0
			c-0.1,0-0.1,0-0.2,0c-0.1,0-0.1,0-0.1,0s-0.1,0-0.1-0.1c0,0,0,0,0-0.1v-6.2c0,0,0-0.1,0-0.1c0,0,0,0,0.1-0.1c0,0,0.1,0,0.1,0
			c0,0,0.1,0,0.2,0s0.1,0,0.2,0c0.1,0,0.1,0,0.1,0c0,0,0,0,0.1,0.1c0,0,0,0,0,0.1v1c0.2-0.3,0.3-0.5,0.5-0.6s0.3-0.3,0.4-0.4
			c0.1-0.1,0.3-0.1,0.4-0.2c0.1,0,0.3,0,0.4,0c0.1,0,0.1,0,0.2,0c0.1,0,0.2,0,0.2,0c0.1,0,0.2,0,0.2,0.1c0.1,0,0.1,0,0.1,0.1
			c0,0,0,0,0.1,0.1c0,0,0,0,0,0.1c0,0,0,0.1,0,0.1C402.4,46.9,402.4,46.9,402.4,47z"/>
		<path class="st5" d="M412.1,52.7c0,0.1,0,0.1,0,0.2c0,0,0,0.1-0.1,0.1s0,0-0.1,0.1c0,0-0.1,0-0.1,0h-4.5c0,0-0.1,0-0.1,0
			c0,0,0,0-0.1-0.1s0-0.1-0.1-0.1c0,0,0-0.1,0-0.2c0-0.1,0-0.1,0-0.2c0,0,0-0.1,0-0.1c0,0,0-0.1,0.1-0.1c0,0,0.1,0,0.1,0h2V45
			l-1.9,1.1c-0.1,0-0.1,0.1-0.2,0.1c0,0-0.1,0-0.1,0s0-0.1-0.1-0.1c0-0.1,0-0.1,0-0.2c0-0.1,0-0.1,0-0.2c0,0,0-0.1,0-0.1
			s0-0.1,0.1-0.1c0,0,0,0,0.1-0.1l2.1-1.4c0,0,0,0,0.1,0s0.1,0,0.1,0c0,0,0.1,0,0.1,0c0,0,0.1,0,0.1,0c0.1,0,0.1,0,0.2,0
			s0.1,0,0.1,0s0.1,0,0.1,0.1s0,0,0,0.1v8h1.7c0,0,0.1,0,0.1,0c0,0,0.1,0,0.1,0.1c0,0,0,0.1,0,0.1C412.1,52.6,412.1,52.6,412.1,52.7
			z"/>
	</g>
	<g class="st4">
		<path class="st6" d="M190.3,26.5v2H183v-9.1h7.1v2h-4.6V23h4v1.9h-4v1.7H190.3z"/>
	</g>
	<g class="st4">
		<path class="st6" d="M203.6,24.5v4h-2.5v-3.6c0-1-0.4-1.4-1.1-1.4c-0.7,0-1.2,0.5-1.2,1.6v3.5h-2.5v-3.6c0-1-0.4-1.4-1.1-1.4
			c-0.7,0-1.2,0.5-1.2,1.6v3.5h-2.5v-7h2.4v0.7c0.5-0.6,1.3-0.9,2.1-0.9c1,0,1.8,0.4,2.3,1.1c0.6-0.7,1.4-1.1,2.4-1.1
			C202.4,21.4,203.6,22.3,203.6,24.5z"/>
	</g>
	<g class="st4">
		<path class="st6" d="M212.4,25.6h-5.1c0.2,0.7,0.8,1.1,1.7,1.1c0.7,0,1.1-0.2,1.6-0.6l1.3,1.4c-0.7,0.8-1.7,1.1-3,1.1
			c-2.5,0-4.1-1.5-4.1-3.7c0-2.1,1.7-3.6,3.9-3.6c2.1,0,3.8,1.3,3.8,3.7C212.5,25.2,212.4,25.4,212.4,25.6z M207.3,24.3h2.9
			c-0.1-0.7-0.7-1.2-1.4-1.2S207.4,23.6,207.3,24.3z"/>
	</g>
	<g class="st4">
		<path class="st6" d="M218.3,21.4v2.2c-0.2,0-0.4,0-0.6,0c-1,0-1.7,0.5-1.7,1.7v3.2h-2.5v-7h2.4v0.8
			C216.5,21.7,217.3,21.4,218.3,21.4z"/>
	</g>
	<g class="st4">
		<path class="st6" d="M226.9,21.5v5.8c0,2.7-1.5,3.9-4.1,3.9c-1.4,0-2.6-0.3-3.5-0.9l0.9-1.7c0.6,0.5,1.5,0.8,2.4,0.8
			c1.3,0,1.9-0.6,1.9-1.7v-0.2c-0.5,0.6-1.2,0.8-2.1,0.8c-1.9,0-3.5-1.3-3.5-3.4c0-2.1,1.6-3.4,3.5-3.4c1,0,1.7,0.3,2.2,1v-0.9
			H226.9z M224.4,24.8c0-0.9-0.7-1.4-1.5-1.4s-1.5,0.6-1.5,1.4c0,0.9,0.7,1.4,1.5,1.4S224.4,25.6,224.4,24.8z"/>
		<path class="st6" d="M235.6,25.6h-5.1c0.2,0.7,0.8,1.1,1.7,1.1c0.7,0,1.1-0.2,1.6-0.6l1.3,1.4c-0.7,0.8-1.7,1.1-3,1.1
			c-2.5,0-4.1-1.5-4.1-3.7c0-2.1,1.7-3.6,3.9-3.6c2.1,0,3.8,1.3,3.8,3.7C235.6,25.2,235.6,25.4,235.6,25.6z M230.4,24.3h2.9
			c-0.1-0.7-0.7-1.2-1.4-1.2C231.1,23.1,230.6,23.6,230.4,24.3z"/>
	</g>
	<g class="st4">
		<path class="st6" d="M244.3,24.5v4h-2.5v-3.6c0-1-0.4-1.4-1.2-1.4c-0.8,0-1.4,0.5-1.4,1.7v3.4h-2.5v-7h2.4v0.8
			c0.6-0.6,1.4-0.9,2.2-0.9C243,21.4,244.3,22.3,244.3,24.5z"/>
	</g>
	<g class="st4">
		<path class="st6" d="M245.5,25c0-2.1,1.7-3.6,4-3.6c1.6,0,2.8,0.7,3.3,1.9l-1.9,1c-0.3-0.7-0.8-0.9-1.4-0.9
			c-0.9,0-1.5,0.6-1.5,1.7c0,1.1,0.7,1.7,1.5,1.7c0.6,0,1.1-0.3,1.4-0.9l1.9,1c-0.5,1.2-1.7,1.9-3.3,1.9
			C247.2,28.6,245.5,27.1,245.5,25z"/>
	</g>
	<g class="st4">
		<path class="st6" d="M261.1,21.5l-3,7.3c-0.7,1.8-1.8,2.4-3.2,2.4c-0.7,0-1.6-0.2-2-0.6l0.9-1.7c0.3,0.3,0.7,0.4,1.1,0.4
			c0.5,0,0.8-0.2,1-0.6l-3-7.1h2.5l1.7,4.3l1.7-4.3H261.1z"/>
		<path class="st6" d="M264.9,27.9l0.7-1.7c0.6,0.4,1.6,0.6,2.5,0.6c0.8,0,1.1-0.2,1.1-0.5c0-0.9-4.2,0.1-4.2-2.7
			c0-1.3,1.2-2.3,3.4-2.3c1,0,2.1,0.2,2.8,0.6l-0.7,1.7c-0.7-0.4-1.4-0.5-2-0.5c-0.8,0-1.1,0.2-1.1,0.5c0,1,4.1-0.1,4.1,2.7
			c0,1.3-1.2,2.3-3.5,2.3C266.9,28.6,265.6,28.3,264.9,27.9z"/>
	</g>
	<g class="st4">
		<path class="st6" d="M280.1,24.5v4h-2.5v-3.6c0-1-0.4-1.4-1.2-1.4c-0.8,0-1.4,0.5-1.4,1.7v3.4h-2.5v-9.6h2.5v3.2
			c0.5-0.5,1.3-0.8,2.1-0.8C278.8,21.4,280.1,22.3,280.1,24.5z"/>
	</g>
	<g class="st4">
		<path class="st6" d="M288.9,25.6h-5.1c0.2,0.7,0.8,1.1,1.7,1.1c0.7,0,1.1-0.2,1.6-0.6l1.3,1.4c-0.7,0.8-1.7,1.1-3,1.1
			c-2.5,0-4.1-1.5-4.1-3.7c0-2.1,1.7-3.6,3.9-3.6c2.1,0,3.8,1.3,3.8,3.7C289,25.2,288.9,25.4,288.9,25.6z M283.8,24.3h2.9
			c-0.1-0.7-0.7-1.2-1.4-1.2S283.9,23.6,283.8,24.3z"/>
	</g>
	<g class="st4">
		<path class="st6" d="M290.1,18.9h2.5v9.6h-2.5V18.9z"/>
	</g>
	<g class="st4">
		<path class="st6" d="M299.7,28.2c-0.4,0.3-1.1,0.4-1.7,0.4c-1.8,0-2.9-0.9-2.9-2.7v-2.4h-1v-1.8h1v-1.8h2.5v1.8h1.6v1.8h-1.6v2.3
			c0,0.5,0.3,0.8,0.7,0.8c0.3,0,0.5-0.1,0.8-0.2L299.7,28.2z"/>
	</g>
	<g class="st4">
		<path class="st6" d="M307.6,25.6h-5.1c0.2,0.7,0.8,1.1,1.7,1.1c0.7,0,1.1-0.2,1.6-0.6l1.3,1.4c-0.7,0.8-1.7,1.1-3,1.1
			c-2.5,0-4.1-1.5-4.1-3.7c0-2.1,1.7-3.6,3.9-3.6c2.1,0,3.8,1.3,3.8,3.7C307.7,25.2,307.6,25.4,307.6,25.6z M302.5,24.3h2.9
			c-0.1-0.7-0.7-1.2-1.4-1.2C303.2,23.1,302.6,23.6,302.5,24.3z"/>
		<path class="st6" d="M313.5,21.4v2.2c-0.2,0-0.4,0-0.6,0c-1,0-1.7,0.5-1.7,1.7v3.2h-2.5v-7h2.4v0.8
			C311.7,21.7,312.5,21.4,313.5,21.4z"/>
	</g>
	<g class="st4">
		<path class="st5" d="M187.9,39.4c0,0.3-0.1,0.6-0.2,0.8c-0.1,0.2-0.3,0.4-0.6,0.6c-0.3,0.2-0.7,0.3-1.1,0.4
			c-0.4,0.1-1,0.1-1.6,0.1h-0.7c0,0.1,0,0.3-0.1,0.4c0,0.1,0,0.3,0,0.4c0,0.4,0.1,0.7,0.3,1c0.2,0.2,0.5,0.3,1,0.3
			c0.3,0,0.5,0,0.7-0.1s0.4-0.1,0.6-0.1c0.2,0,0.3-0.1,0.4-0.1s0.2-0.1,0.2-0.1s0.1,0,0.1,0c0,0,0,0.1,0,0.1c0,0,0,0.1,0,0.2
			c0,0.1,0,0.1,0,0.2s0,0.1-0.1,0.2c0,0.1-0.1,0.1-0.1,0.1c-0.1,0.1-0.1,0.1-0.3,0.1c-0.1,0-0.3,0.1-0.5,0.1s-0.4,0.1-0.6,0.1
			s-0.4,0-0.6,0c-0.4,0-0.7,0-1-0.1c-0.3-0.1-0.5-0.2-0.7-0.4c-0.2-0.2-0.3-0.4-0.4-0.7s-0.1-0.6-0.1-0.9c0-0.3,0-0.6,0.1-0.9
			c0.1-0.3,0.1-0.6,0.3-0.9c0.1-0.3,0.3-0.6,0.4-0.9c0.2-0.3,0.4-0.5,0.7-0.7c0.3-0.2,0.5-0.4,0.9-0.5c0.3-0.1,0.7-0.2,1.1-0.2
			c0.4,0,0.7,0,0.9,0.1c0.2,0.1,0.5,0.2,0.6,0.3c0.2,0.1,0.3,0.3,0.3,0.5C187.9,39.1,187.9,39.3,187.9,39.4z M186.8,39.5
			c0-0.2-0.1-0.4-0.3-0.5c-0.2-0.1-0.4-0.2-0.7-0.2c-0.3,0-0.5,0-0.7,0.1c-0.2,0.1-0.4,0.2-0.6,0.4c-0.2,0.2-0.3,0.3-0.4,0.6
			c-0.1,0.2-0.2,0.4-0.3,0.7h0.6c0.4,0,0.8,0,1.1-0.1c0.3-0.1,0.5-0.1,0.7-0.2c0.2-0.1,0.3-0.2,0.4-0.3
			C186.8,39.8,186.8,39.7,186.8,39.5z"/>
	</g>
	<g class="st4">
		<path class="st5" d="M194.1,38.2c0,0,0,0.1,0,0.1c0,0,0,0.1,0,0.1c-0.2,0.5-0.3,0.9-0.5,1.4c-0.2,0.5-0.4,0.9-0.7,1.4
			c-0.2,0.5-0.5,0.9-0.8,1.4c-0.3,0.5-0.6,0.9-0.9,1.3c0,0-0.1,0.1-0.1,0.1s-0.1,0-0.1,0.1c-0.1,0-0.1,0-0.2,0c-0.1,0-0.1,0-0.2,0
			c-0.1,0-0.2,0-0.3,0s-0.1,0-0.2,0c0,0-0.1,0-0.1-0.1c0,0,0-0.1,0-0.1l-0.8-5.4c0,0,0-0.1,0-0.1c0,0,0-0.1,0-0.1c0-0.1,0-0.1,0-0.1
			s0-0.1,0.1-0.1c0,0,0.1,0,0.2,0c0.1,0,0.2,0,0.3,0s0.2,0,0.3,0c0.1,0,0.1,0,0.2,0c0,0,0.1,0,0.1,0.1s0,0.1,0,0.1l0.7,4.7v0.1l0,0
			c0.2-0.4,0.5-0.7,0.7-1.1s0.4-0.7,0.6-1.1c0.2-0.4,0.3-0.8,0.5-1.2c0.2-0.4,0.3-0.9,0.5-1.4c0,0,0-0.1,0.1-0.1c0,0,0.1,0,0.1-0.1
			c0,0,0.1,0,0.2,0c0.1,0,0.2,0,0.3,0c0.1,0,0.2,0,0.2,0c0.1,0,0.1,0,0.1,0C194,38.1,194,38.1,194.1,38.2
			C194.1,38.2,194.1,38.2,194.1,38.2z"/>
		<path class="st5" d="M199.8,39.4c0,0.3-0.1,0.6-0.2,0.8c-0.1,0.2-0.3,0.4-0.6,0.6c-0.3,0.2-0.7,0.3-1.1,0.4
			c-0.4,0.1-1,0.1-1.6,0.1h-0.7c0,0.1,0,0.3-0.1,0.4c0,0.1,0,0.3,0,0.4c0,0.4,0.1,0.7,0.3,1c0.2,0.2,0.5,0.3,1,0.3
			c0.3,0,0.5,0,0.7-0.1s0.4-0.1,0.6-0.1c0.2,0,0.3-0.1,0.4-0.1s0.2-0.1,0.2-0.1s0.1,0,0.1,0c0,0,0,0.1,0,0.1c0,0,0,0.1,0,0.2
			c0,0.1,0,0.1,0,0.2s0,0.1-0.1,0.2c0,0.1-0.1,0.1-0.1,0.1c-0.1,0.1-0.1,0.1-0.3,0.1c-0.1,0-0.3,0.1-0.5,0.1s-0.4,0.1-0.6,0.1
			s-0.4,0-0.6,0c-0.4,0-0.7,0-1-0.1c-0.3-0.1-0.5-0.2-0.7-0.4c-0.2-0.2-0.3-0.4-0.4-0.7s-0.1-0.6-0.1-0.9c0-0.3,0-0.6,0.1-0.9
			c0.1-0.3,0.1-0.6,0.3-0.9c0.1-0.3,0.3-0.6,0.4-0.9c0.2-0.3,0.4-0.5,0.7-0.7c0.3-0.2,0.5-0.4,0.9-0.5c0.3-0.1,0.7-0.2,1.1-0.2
			c0.4,0,0.7,0,0.9,0.1c0.2,0.1,0.5,0.2,0.6,0.3c0.2,0.1,0.3,0.3,0.3,0.5C199.8,39.1,199.8,39.3,199.8,39.4z M198.8,39.5
			c0-0.2-0.1-0.4-0.3-0.5c-0.2-0.1-0.4-0.2-0.7-0.2c-0.3,0-0.5,0-0.7,0.1c-0.2,0.1-0.4,0.2-0.6,0.4c-0.2,0.2-0.3,0.3-0.4,0.6
			c-0.1,0.2-0.2,0.4-0.3,0.7h0.6c0.4,0,0.8,0,1.1-0.1c0.3-0.1,0.5-0.1,0.7-0.2c0.2-0.1,0.3-0.2,0.4-0.3
			C198.7,39.8,198.8,39.7,198.8,39.5z"/>
	</g>
	<g class="st4">
		<path class="st5" d="M205,38.3C205,38.3,205,38.3,205,38.3c0,0.1,0,0.2,0,0.3s0,0.1,0,0.2c0,0.1,0,0.1-0.1,0.2
			c0,0.1-0.1,0.1-0.1,0.1c0,0-0.1,0.1-0.1,0.1s-0.1,0-0.1,0c0,0-0.1,0-0.1-0.1c0,0-0.1,0-0.2-0.1s-0.1,0-0.2,0
			c-0.1,0-0.3,0.1-0.5,0.2c-0.2,0.1-0.4,0.3-0.6,0.5c-0.2,0.2-0.3,0.5-0.5,0.8c-0.2,0.3-0.3,0.6-0.3,1l-0.5,2.5c0,0,0,0.1,0,0.1
			s-0.1,0-0.1,0.1s-0.1,0-0.2,0c-0.1,0-0.2,0-0.3,0c-0.1,0-0.2,0-0.3,0c-0.1,0-0.1,0-0.2,0c0,0-0.1,0-0.1-0.1c0,0,0-0.1,0-0.1
			l1.1-5.7c0,0,0-0.1,0-0.1s0.1,0,0.1-0.1c0,0,0.1,0,0.2,0c0.1,0,0.1,0,0.2,0c0.1,0,0.2,0,0.2,0c0.1,0,0.1,0,0.1,0
			c0,0,0.1,0,0.1,0.1s0,0.1,0,0.1l-0.2,1c0.1-0.2,0.2-0.3,0.3-0.5c0.1-0.2,0.3-0.3,0.4-0.4c0.2-0.1,0.3-0.2,0.5-0.3
			c0.2-0.1,0.3-0.1,0.5-0.1c0.1,0,0.1,0,0.2,0c0.1,0,0.1,0,0.2,0s0.1,0,0.2,0.1c0,0,0.1,0,0.1,0.1S205,38.2,205,38.3z"/>
	</g>
	<g class="st4">
		<path class="st5" d="M210.6,38.2c0,0,0,0.1,0,0.1s0,0.1,0,0.1c-0.1,0.4-0.3,0.8-0.5,1.2s-0.4,0.9-0.6,1.3s-0.5,0.9-0.8,1.4
			c-0.3,0.5-0.6,1-1.1,1.6l-1.6,2.2c0,0-0.1,0.1-0.1,0.1s-0.1,0-0.1,0.1c-0.1,0-0.1,0-0.2,0c-0.1,0-0.2,0-0.3,0c-0.1,0-0.2,0-0.3,0
			c-0.1,0-0.1,0-0.2-0.1s-0.1-0.1-0.1-0.1c0,0,0-0.1,0.1-0.2l1.5-2l-0.9-5.6c0-0.1,0-0.1,0-0.1c0,0,0-0.1,0-0.1c0,0,0-0.1,0-0.1
			c0,0,0-0.1,0.1-0.1c0,0,0.1,0,0.2,0c0.1,0,0.2,0,0.3,0c0.1,0,0.2,0,0.3,0c0.1,0,0.1,0,0.2,0c0,0,0.1,0,0.1,0.1c0,0,0,0.1,0,0.1
			l0.7,4.7h0c0.3-0.4,0.5-0.7,0.7-1.1s0.4-0.8,0.6-1.2s0.3-0.8,0.5-1.2c0.2-0.4,0.3-0.8,0.4-1.2c0,0,0-0.1,0-0.1c0,0,0.1,0,0.1-0.1
			c0,0,0.1,0,0.2,0c0.1,0,0.2,0,0.3,0c0.2,0,0.3,0,0.4,0S210.6,38.2,210.6,38.2z"/>
		<path class="st5" d="M218.8,43.5c0,0,0,0.1,0,0.1c0,0,0,0.1,0,0.1s0,0.1,0,0.1c0,0,0,0.1-0.1,0.1s-0.1,0.1-0.1,0.1
			c0,0-0.1,0-0.1,0h-4.3c-0.1,0-0.1,0-0.1-0.1c0,0,0-0.1,0-0.2c0,0,0-0.1,0-0.1c0,0,0-0.1,0-0.1c0,0,0-0.1,0-0.1
			c0-0.1,0-0.1,0.1-0.1s0.1-0.1,0.1-0.1c0,0,0.1,0,0.1,0h1.7l1.2-6.2l-1.8,0.9c-0.1,0-0.1,0.1-0.2,0.1c0,0-0.1,0-0.1,0s0,0-0.1-0.1
			c0,0,0-0.1,0-0.1c0,0,0-0.1,0-0.2c0-0.1,0-0.1,0.1-0.2c0-0.1,0.1-0.1,0.1-0.2c0-0.1,0.1-0.1,0.1-0.1l2.1-1.2c0,0,0,0,0.1,0
			c0,0,0.1,0,0.1,0s0.1,0,0.1,0s0.1,0,0.2,0c0.1,0,0.2,0,0.3,0c0.1,0,0.1,0,0.2,0s0.1,0,0.1,0.1c0,0,0,0,0,0.1l-1.4,7.2h1.5
			c0.1,0,0.1,0,0.1,0.1S218.8,43.4,218.8,43.5z"/>
		<path class="st5" d="M223.6,40.7c0,0,0,0.1,0,0.1c0,0,0,0.1,0,0.1s0,0.1,0,0.1c0,0,0,0.1-0.1,0.1c0,0-0.1,0.1-0.1,0.1
			c0,0-0.1,0-0.1,0h-2.7c-0.1,0-0.1,0-0.1-0.1c0,0,0-0.1,0-0.2c0,0,0-0.1,0-0.1c0,0,0-0.1,0-0.1c0,0,0-0.1,0-0.1
			c0-0.1,0-0.1,0.1-0.1s0.1-0.1,0.1-0.1c0,0,0.1,0,0.1,0h2.7c0.1,0,0.1,0,0.1,0.1S223.6,40.6,223.6,40.7z"/>
		<path class="st5" d="M229.7,41.5c0,0.2,0,0.4-0.1,0.6c-0.1,0.2-0.1,0.4-0.3,0.6s-0.3,0.4-0.4,0.6c-0.2,0.2-0.4,0.3-0.6,0.5
			c-0.2,0.1-0.5,0.2-0.8,0.3s-0.7,0.1-1.1,0.1c-0.2,0-0.4,0-0.6,0c-0.2,0-0.4-0.1-0.5-0.1c-0.2,0-0.3-0.1-0.5-0.2
			c-0.1-0.1-0.3-0.1-0.4-0.2c-0.1,0-0.1-0.1-0.1-0.1c0-0.1,0-0.1,0-0.2c0,0,0-0.1,0-0.1c0,0,0-0.1,0-0.1c0-0.1,0-0.1,0-0.2
			c0-0.1,0-0.1,0-0.2c0,0,0-0.1,0.1-0.1s0.1,0,0.1,0c0,0,0.1,0,0.2,0.1c0.1,0.1,0.2,0.1,0.4,0.2c0.2,0.1,0.4,0.2,0.6,0.2
			s0.5,0.1,0.8,0.1c0.4,0,0.7-0.1,0.9-0.2c0.3-0.1,0.5-0.3,0.6-0.4c0.2-0.2,0.3-0.4,0.4-0.6c0.1-0.2,0.1-0.4,0.1-0.6
			c0-0.2,0-0.3-0.1-0.5c-0.1-0.1-0.2-0.3-0.3-0.4c-0.1-0.1-0.3-0.2-0.5-0.3s-0.5-0.1-0.8-0.1h-0.9c-0.1,0-0.1,0-0.2-0.1
			c0,0-0.1-0.1-0.1-0.2c0,0,0-0.1,0-0.1c0,0,0-0.1,0-0.1c0,0,0-0.1,0-0.1c0,0,0-0.1,0.1-0.1c0,0,0.1-0.1,0.1-0.1c0,0,0.1,0,0.1,0
			h0.7c0.3,0,0.6,0,0.9-0.1c0.3-0.1,0.5-0.2,0.7-0.4s0.3-0.4,0.4-0.6c0.1-0.2,0.2-0.5,0.2-0.7c0-0.3-0.1-0.5-0.3-0.7
			c-0.2-0.2-0.5-0.3-0.9-0.3c-0.2,0-0.5,0-0.7,0.1c-0.2,0.1-0.4,0.2-0.6,0.2s-0.3,0.2-0.5,0.2c-0.1,0.1-0.2,0.1-0.3,0.1
			c0,0-0.1,0-0.1-0.1c0,0,0-0.1,0-0.1c0,0,0-0.1,0-0.1c0-0.1,0-0.1,0-0.2c0-0.1,0-0.1,0.1-0.2c0-0.1,0.1-0.1,0.1-0.2
			c0,0,0.1-0.1,0.3-0.2c0.1-0.1,0.3-0.2,0.5-0.2c0.2-0.1,0.4-0.1,0.7-0.2c0.2-0.1,0.5-0.1,0.8-0.1c0.3,0,0.6,0,0.9,0.1
			s0.5,0.2,0.6,0.3c0.2,0.1,0.3,0.3,0.4,0.5c0.1,0.2,0.1,0.4,0.1,0.7c0,0.3,0,0.6-0.1,0.8c-0.1,0.3-0.2,0.5-0.4,0.7
			s-0.4,0.4-0.6,0.5c-0.2,0.1-0.5,0.3-0.8,0.3v0c0.3,0,0.5,0.1,0.7,0.2c0.2,0.1,0.4,0.2,0.5,0.4c0.1,0.2,0.2,0.3,0.3,0.5
			C229.7,41.1,229.7,41.3,229.7,41.5z"/>
		<path class="st5" d="M238.7,44c0,0.1-0.1,0.1-0.1,0.2c-0.1,0-0.2,0-0.4,0c-0.1,0-0.2,0-0.2,0c-0.1,0-0.1,0-0.1,0
			c0,0-0.1,0-0.1-0.1c0,0,0-0.1,0-0.1l0.2-1.1c-0.1,0.1-0.2,0.3-0.3,0.4c-0.1,0.2-0.3,0.3-0.5,0.4c-0.2,0.1-0.4,0.2-0.7,0.3
			s-0.5,0.1-0.7,0.1c-0.2,0-0.5,0-0.7-0.1c-0.2-0.1-0.3-0.2-0.5-0.3s-0.2-0.2-0.3-0.4c-0.1-0.1-0.1-0.3-0.2-0.5
			c0-0.2-0.1-0.3-0.1-0.5c0-0.2,0-0.3,0-0.4c0-0.2,0-0.5,0.1-0.8c0-0.3,0.1-0.6,0.2-0.9s0.2-0.6,0.4-0.9c0.2-0.3,0.4-0.6,0.6-0.8
			c0.2-0.2,0.5-0.4,0.8-0.5c0.3-0.1,0.6-0.2,1-0.2c0.2,0,0.4,0,0.5,0.1c0.2,0,0.3,0.1,0.4,0.2c0.1,0.1,0.3,0.2,0.4,0.2
			c0.1,0.1,0.2,0.2,0.3,0.3l0.6-3.2c0,0,0-0.1,0-0.1c0,0,0.1,0,0.1-0.1c0,0,0.1,0,0.2,0c0.1,0,0.2,0,0.3,0c0.1,0,0.2,0,0.2,0
			c0.1,0,0.1,0,0.2,0s0.1,0,0.1,0.1c0,0,0,0.1,0,0.1L238.7,44z M238.5,39.8c-0.2-0.3-0.4-0.5-0.6-0.7s-0.5-0.2-0.8-0.2
			c-0.2,0-0.4,0.1-0.6,0.2s-0.3,0.2-0.5,0.4c-0.1,0.2-0.3,0.4-0.4,0.6c-0.1,0.2-0.2,0.5-0.3,0.7c-0.1,0.2-0.1,0.5-0.2,0.7
			c0,0.2-0.1,0.4-0.1,0.6c0,0.4,0.1,0.7,0.2,0.9s0.4,0.3,0.7,0.3c0.2,0,0.5-0.1,0.7-0.2c0.2-0.1,0.5-0.3,0.7-0.5
			c0.2-0.2,0.4-0.5,0.5-0.8c0.2-0.3,0.3-0.6,0.3-1L238.5,39.8z"/>
		<path class="st5" d="M245.4,44c0,0.1-0.1,0.1-0.1,0.2c-0.1,0-0.2,0-0.4,0c-0.1,0-0.2,0-0.2,0c-0.1,0-0.1,0-0.1,0
			c0,0-0.1,0-0.1-0.1s0-0.1,0-0.1l0.2-1.1c-0.1,0.1-0.2,0.3-0.3,0.4c-0.1,0.2-0.3,0.3-0.5,0.4c-0.2,0.1-0.4,0.2-0.7,0.3
			s-0.5,0.1-0.7,0.1c-0.3,0-0.6-0.1-0.8-0.2c-0.2-0.1-0.4-0.3-0.5-0.5c-0.1-0.2-0.2-0.4-0.3-0.7c0-0.2-0.1-0.5-0.1-0.8
			c0-0.2,0-0.5,0.1-0.8c0-0.3,0.1-0.6,0.2-0.9c0.1-0.3,0.2-0.6,0.4-0.9c0.2-0.3,0.4-0.6,0.6-0.8c0.2-0.2,0.5-0.4,0.8-0.6
			c0.3-0.1,0.6-0.2,1-0.2c0.4,0,0.7,0.1,1,0.2c0.3,0.2,0.5,0.4,0.7,0.6l0.1-0.6c0-0.1,0.1-0.1,0.1-0.1c0.1,0,0.2,0,0.4,0
			c0.1,0,0.2,0,0.2,0c0.1,0,0.1,0,0.1,0c0,0,0.1,0,0.1,0.1c0,0,0,0.1,0,0.1L245.4,44z M245.2,39.8c-0.2-0.3-0.4-0.5-0.6-0.7
			c-0.2-0.1-0.5-0.2-0.8-0.2c-0.2,0-0.4,0.1-0.6,0.2c-0.2,0.1-0.3,0.2-0.5,0.4s-0.3,0.4-0.4,0.6s-0.2,0.5-0.3,0.7
			c-0.1,0.2-0.1,0.5-0.1,0.7c0,0.2,0,0.4,0,0.6c0,0.1,0,0.3,0,0.4c0,0.1,0.1,0.3,0.1,0.4c0.1,0.1,0.2,0.2,0.3,0.3s0.3,0.1,0.4,0.1
			c0.2,0,0.5-0.1,0.7-0.2c0.2-0.1,0.5-0.3,0.7-0.5s0.4-0.5,0.5-0.8c0.2-0.3,0.3-0.6,0.3-1L245.2,39.8z"/>
		<path class="st5" d="M252.8,38.2c0,0,0,0.1,0,0.1c0,0,0,0.1,0,0.1c-0.1,0.4-0.3,0.8-0.5,1.2s-0.4,0.9-0.6,1.3
			c-0.2,0.5-0.5,0.9-0.8,1.4s-0.6,1-1.1,1.6l-1.6,2.2c0,0-0.1,0.1-0.1,0.1s-0.1,0-0.1,0.1c-0.1,0-0.1,0-0.2,0c-0.1,0-0.2,0-0.3,0
			c-0.1,0-0.2,0-0.3,0c-0.1,0-0.1,0-0.2-0.1s-0.1-0.1-0.1-0.1c0,0,0-0.1,0.1-0.2l1.5-2l-0.9-5.6c0-0.1,0-0.1,0-0.1c0,0,0-0.1,0-0.1
			c0,0,0-0.1,0-0.1c0,0,0-0.1,0.1-0.1c0,0,0.1,0,0.2,0c0.1,0,0.2,0,0.3,0c0.1,0,0.2,0,0.3,0c0.1,0,0.1,0,0.2,0s0.1,0,0.1,0.1
			c0,0,0,0.1,0,0.1l0.7,4.7h0c0.3-0.4,0.5-0.7,0.7-1.1c0.2-0.4,0.4-0.8,0.6-1.2s0.3-0.8,0.5-1.2c0.2-0.4,0.3-0.8,0.4-1.2
			c0,0,0-0.1,0-0.1c0,0,0.1,0,0.1-0.1c0,0,0.1,0,0.2,0c0.1,0,0.2,0,0.3,0c0.2,0,0.3,0,0.4,0S252.8,38.2,252.8,38.2z"/>
		<path class="st5" d="M257.5,38.6c0,0,0,0.1,0,0.2c0,0.1,0,0.1-0.1,0.2c0,0.1-0.1,0.1-0.1,0.2c0,0-0.1,0.1-0.1,0.1
			c-0.1,0-0.1,0-0.2-0.1c-0.1,0-0.2-0.1-0.3-0.1s-0.2-0.1-0.4-0.1s-0.3-0.1-0.5-0.1c-0.2,0-0.4,0-0.5,0.1c-0.1,0.1-0.3,0.1-0.4,0.2
			c-0.1,0.1-0.2,0.2-0.2,0.3s-0.1,0.2-0.1,0.4c0,0.2,0.1,0.3,0.2,0.4c0.1,0.1,0.3,0.2,0.4,0.3c0.2,0.1,0.4,0.2,0.5,0.3
			c0.2,0.1,0.4,0.2,0.5,0.3s0.3,0.3,0.4,0.5s0.2,0.4,0.2,0.7c0,0.3-0.1,0.6-0.2,0.8c-0.1,0.3-0.3,0.5-0.5,0.7
			c-0.2,0.2-0.5,0.3-0.8,0.4c-0.3,0.1-0.7,0.2-1,0.2c-0.2,0-0.4,0-0.6,0s-0.3-0.1-0.5-0.1c-0.1,0-0.3-0.1-0.4-0.2
			c-0.1-0.1-0.2-0.1-0.2-0.2c0,0-0.1-0.1-0.1-0.1c0,0,0-0.1,0-0.1c0,0,0-0.1,0-0.1c0,0,0-0.1,0-0.1s0-0.1,0-0.1c0,0,0-0.1,0.1-0.1
			c0,0,0-0.1,0.1-0.1c0,0,0,0,0.1,0c0.1,0,0.1,0,0.2,0.1c0.1,0.1,0.2,0.1,0.3,0.2c0.1,0.1,0.3,0.1,0.4,0.2c0.2,0.1,0.4,0.1,0.6,0.1
			c0.2,0,0.4,0,0.6-0.1c0.2-0.1,0.3-0.1,0.4-0.2c0.1-0.1,0.2-0.2,0.2-0.3s0.1-0.3,0.1-0.4c0-0.2-0.1-0.3-0.2-0.4
			c-0.1-0.1-0.2-0.2-0.4-0.3c-0.2-0.1-0.3-0.2-0.5-0.3c-0.2-0.1-0.4-0.2-0.5-0.3c-0.2-0.1-0.3-0.3-0.4-0.4s-0.2-0.4-0.2-0.7
			c0-0.3,0.1-0.5,0.2-0.8c0.1-0.2,0.3-0.4,0.5-0.6c0.2-0.2,0.4-0.3,0.7-0.4c0.3-0.1,0.6-0.1,0.9-0.1c0.2,0,0.3,0,0.5,0
			s0.3,0.1,0.4,0.1c0.1,0,0.2,0.1,0.3,0.1c0.1,0,0.2,0.1,0.2,0.1C257.4,38.4,257.5,38.5,257.5,38.6z"/>
	</g>
	<g class="st4">
		<path class="st5" d="M187.2,51.3C187.2,51.3,187.2,51.3,187.2,51.3c0,0.1,0,0.2,0,0.2c0,0,0,0.1,0,0.1s0,0.1,0,0.1s0,0.1-0.1,0.1
			s0,0-0.1,0c0,0-0.1,0-0.1,0c0,0-0.1,0-0.2-0.1c-0.1,0-0.1,0-0.2-0.1c-0.1,0-0.2,0-0.3,0c-0.2,0-0.3,0-0.5,0.1
			c-0.1,0.1-0.2,0.1-0.3,0.3s-0.2,0.3-0.2,0.4s-0.1,0.4-0.2,0.6l-0.1,0.6h1.3c0,0,0.1,0,0.1,0c0,0,0,0.1,0,0.2c0,0,0,0.1,0,0.1
			s0,0.1,0,0.1s0,0.1,0,0.1c0,0,0,0.1-0.1,0.1c0,0,0,0.1-0.1,0.1c0,0-0.1,0-0.1,0h-1.3l-1.1,5.4c-0.1,0.4-0.2,0.7-0.3,0.9
			c-0.1,0.3-0.3,0.5-0.5,0.6c-0.2,0.2-0.4,0.3-0.6,0.4c-0.2,0.1-0.5,0.1-0.8,0.1c-0.2,0-0.3,0-0.5,0c-0.1,0-0.2-0.1-0.2-0.1
			c0,0,0,0,0-0.1s0-0.1,0-0.1c0,0,0,0,0-0.1c0,0,0-0.1,0-0.1c0,0,0-0.1,0-0.1s0-0.1,0-0.1c0,0,0-0.1,0.1-0.1s0,0,0.1,0s0.1,0,0.1,0
			c0,0,0.1,0,0.1,0c0,0,0.1,0,0.1,0c0,0,0.1,0,0.2,0c0.2,0,0.3,0,0.5-0.1c0.1-0.1,0.2-0.1,0.3-0.3c0.1-0.1,0.2-0.3,0.2-0.4
			c0.1-0.2,0.1-0.4,0.2-0.6l1-5.2h-0.8c0,0-0.1,0-0.1,0c0,0,0-0.1,0-0.2c0,0,0-0.1,0-0.1s0-0.1,0-0.1c0-0.1,0-0.1,0-0.1
			c0,0,0-0.1,0.1-0.1c0,0,0.1-0.1,0.1-0.1c0,0,0.1,0,0.1,0h0.8l0.2-0.8c0.1-0.3,0.2-0.7,0.3-0.9c0.1-0.3,0.3-0.5,0.5-0.6
			c0.2-0.2,0.4-0.3,0.6-0.4c0.2-0.1,0.5-0.1,0.8-0.1c0.1,0,0.2,0,0.3,0s0.2,0,0.3,0c0.1,0,0.2,0,0.2,0.1c0.1,0,0.1,0.1,0.1,0.1
			c0,0,0,0.1,0.1,0.1S187.2,51.2,187.2,51.3z"/>
	</g>
	<g class="st4">
		<path class="st5" d="M192.1,55.7c0,0.3,0,0.6-0.1,1s-0.1,0.6-0.3,0.9c-0.1,0.3-0.3,0.6-0.5,0.9c-0.2,0.3-0.4,0.5-0.7,0.7
			c-0.3,0.2-0.5,0.4-0.9,0.5c-0.3,0.1-0.7,0.2-1.1,0.2c-0.4,0-0.8,0-1-0.1c-0.3-0.1-0.5-0.2-0.7-0.4c-0.2-0.2-0.3-0.4-0.4-0.7
			c-0.1-0.3-0.1-0.6-0.1-0.9c0-0.3,0-0.6,0.1-1c0.1-0.3,0.1-0.6,0.3-0.9c0.1-0.3,0.3-0.6,0.5-0.9c0.2-0.3,0.4-0.5,0.7-0.7
			c0.3-0.2,0.5-0.4,0.9-0.5c0.3-0.1,0.7-0.2,1.1-0.2c0.4,0,0.8,0,1,0.1c0.3,0.1,0.5,0.2,0.7,0.4c0.2,0.2,0.3,0.4,0.4,0.7
			C192,55.1,192.1,55.4,192.1,55.7z M190.9,55.8c0-0.2,0-0.4-0.1-0.6c0-0.2-0.1-0.3-0.2-0.4c-0.1-0.1-0.2-0.2-0.4-0.3
			c-0.2-0.1-0.4-0.1-0.6-0.1c-0.3,0-0.5,0-0.7,0.1s-0.4,0.2-0.6,0.4c-0.2,0.2-0.3,0.3-0.4,0.5c-0.1,0.2-0.2,0.4-0.3,0.7
			c-0.1,0.2-0.1,0.5-0.2,0.7c0,0.2-0.1,0.5-0.1,0.7c0,0.2,0,0.4,0.1,0.6s0.1,0.3,0.2,0.4c0.1,0.1,0.2,0.2,0.4,0.3
			c0.2,0.1,0.4,0.1,0.6,0.1c0.3,0,0.5,0,0.7-0.1c0.2-0.1,0.4-0.2,0.6-0.4c0.2-0.2,0.3-0.3,0.4-0.5c0.1-0.2,0.2-0.4,0.3-0.7
			c0.1-0.2,0.1-0.5,0.2-0.7C190.9,56.3,190.9,56.1,190.9,55.8z"/>
		<path class="st5" d="M197.3,53.9C197.3,53.9,197.3,53.9,197.3,53.9c0,0.1,0,0.2,0,0.3s0,0.1,0,0.2c0,0.1,0,0.1-0.1,0.2
			c0,0.1-0.1,0.1-0.1,0.1c0,0-0.1,0.1-0.1,0.1s-0.1,0-0.1,0c0,0-0.1,0-0.1-0.1c0,0-0.1,0-0.2-0.1s-0.1,0-0.2,0
			c-0.1,0-0.3,0.1-0.5,0.2c-0.2,0.1-0.4,0.3-0.6,0.5c-0.2,0.2-0.3,0.5-0.5,0.8c-0.2,0.3-0.3,0.6-0.3,1l-0.5,2.5c0,0,0,0.1,0,0.1
			s-0.1,0-0.1,0.1s-0.1,0-0.2,0c-0.1,0-0.2,0-0.3,0c-0.1,0-0.2,0-0.3,0c-0.1,0-0.1,0-0.2,0c0,0-0.1,0-0.1-0.1c0,0,0-0.1,0-0.1
			l1.1-5.7c0,0,0-0.1,0-0.1s0.1,0,0.1-0.1c0,0,0.1,0,0.2,0c0.1,0,0.1,0,0.2,0c0.1,0,0.2,0,0.2,0c0.1,0,0.1,0,0.1,0
			c0,0,0.1,0,0.1,0.1s0,0.1,0,0.1l-0.2,1c0.1-0.2,0.2-0.3,0.3-0.5c0.1-0.2,0.3-0.3,0.4-0.4c0.2-0.1,0.3-0.2,0.5-0.3
			c0.2-0.1,0.3-0.1,0.5-0.1c0.1,0,0.1,0,0.2,0c0.1,0,0.1,0,0.2,0s0.1,0,0.2,0.1c0,0,0.1,0,0.1,0.1S197.3,53.8,197.3,53.9z"/>
		<path class="st5" d="M206,57.2c0,0,0,0.1,0,0.1c0,0,0,0.1,0,0.1s0,0.1,0,0.1c0,0,0,0.1-0.1,0.1c0,0-0.1,0.1-0.1,0.1s-0.1,0-0.1,0
			h-0.9l-0.3,1.7c0,0,0,0.1,0,0.1s-0.1,0-0.1,0.1s-0.1,0-0.2,0c-0.1,0-0.2,0-0.3,0c-0.1,0-0.2,0-0.3,0c-0.1,0-0.1,0-0.2,0
			c0,0-0.1,0-0.1-0.1s0-0.1,0-0.1l0.3-1.7h-3.4c-0.1,0-0.1,0-0.2-0.1c0,0,0-0.1,0-0.2c0,0,0-0.1,0-0.1c0,0,0-0.1,0-0.2
			c0-0.1,0-0.1,0-0.2s0-0.1,0.1-0.2c0-0.1,0-0.1,0.1-0.2c0-0.1,0.1-0.1,0.1-0.2l4-5c0,0,0.1-0.1,0.1-0.1c0,0,0.1,0,0.2-0.1
			c0.1,0,0.2,0,0.3,0c0.1,0,0.2,0,0.3,0c0.1,0,0.3,0,0.4,0c0.1,0,0.2,0,0.2,0c0.1,0,0.1,0,0.1,0.1c0,0,0,0.1,0,0.1l-1.1,5.2h0.9
			c0.1,0,0.1,0,0.1,0.1C206,57.1,206,57.1,206,57.2z M204.8,52.5L204.8,52.5l-3.5,4.4h2.7L204.8,52.5z"/>
		<path class="st5" d="M215.4,53.8c0,0,0,0.1,0,0.1c0,0,0,0.1,0,0.1c-0.1,0.4-0.3,0.8-0.5,1.2s-0.4,0.9-0.6,1.3
			c-0.2,0.5-0.5,0.9-0.8,1.4c-0.3,0.5-0.6,1-1.1,1.6l-1.6,2.2c0,0-0.1,0.1-0.1,0.1s-0.1,0-0.1,0.1c-0.1,0-0.1,0-0.2,0
			c-0.1,0-0.2,0-0.3,0c-0.1,0-0.2,0-0.3,0c-0.1,0-0.1,0-0.2-0.1s-0.1-0.1-0.1-0.1c0,0,0-0.1,0.1-0.2l1.5-2l-0.9-5.6
			c0-0.1,0-0.1,0-0.1c0,0,0-0.1,0-0.1c0,0,0-0.1,0-0.1c0,0,0-0.1,0.1-0.1c0,0,0.1,0,0.2,0c0.1,0,0.2,0,0.3,0c0.1,0,0.2,0,0.3,0
			c0.1,0,0.1,0,0.2,0c0,0,0.1,0,0.1,0.1c0,0,0,0.1,0,0.1l0.7,4.7h0c0.3-0.4,0.5-0.7,0.7-1.1s0.4-0.8,0.6-1.2s0.3-0.8,0.5-1.2
			c0.2-0.4,0.3-0.8,0.4-1.2c0,0,0-0.1,0-0.1s0.1,0,0.1-0.1c0,0,0.1,0,0.2,0c0.1,0,0.2,0,0.3,0c0.2,0,0.3,0,0.4,0
			S215.4,53.8,215.4,53.8z"/>
		<path class="st5" d="M220,53.9C220,53.9,220,53.9,220,53.9c0,0.1,0,0.2,0,0.3c0,0.1,0,0.1,0,0.2c0,0.1,0,0.1-0.1,0.2
			c0,0.1-0.1,0.1-0.1,0.1c0,0-0.1,0.1-0.1,0.1c0,0-0.1,0-0.1,0s-0.1,0-0.1-0.1c0,0-0.1,0-0.2-0.1s-0.1,0-0.2,0
			c-0.1,0-0.3,0.1-0.5,0.2c-0.2,0.1-0.4,0.3-0.6,0.5c-0.2,0.2-0.3,0.5-0.5,0.8c-0.2,0.3-0.3,0.6-0.3,1l-0.5,2.5c0,0,0,0.1,0,0.1
			c0,0-0.1,0-0.1,0.1c0,0-0.1,0-0.2,0c-0.1,0-0.2,0-0.3,0c-0.1,0-0.2,0-0.3,0s-0.1,0-0.2,0s-0.1,0-0.1-0.1c0,0,0-0.1,0-0.1l1.1-5.7
			c0,0,0-0.1,0-0.1c0,0,0.1,0,0.1-0.1c0,0,0.1,0,0.2,0c0.1,0,0.1,0,0.2,0c0.1,0,0.2,0,0.2,0c0.1,0,0.1,0,0.1,0c0,0,0.1,0,0.1,0.1
			c0,0,0,0.1,0,0.1l-0.2,1c0.1-0.2,0.2-0.3,0.3-0.5c0.1-0.2,0.3-0.3,0.4-0.4c0.2-0.1,0.3-0.2,0.5-0.3c0.2-0.1,0.3-0.1,0.5-0.1
			c0.1,0,0.1,0,0.2,0c0.1,0,0.1,0,0.2,0s0.1,0,0.2,0.1c0,0,0.1,0,0.1,0.1S220,53.8,220,53.9z"/>
		<path class="st5" d="M224.5,54.2c0,0,0,0.1,0,0.2c0,0.1,0,0.1-0.1,0.2c0,0.1-0.1,0.1-0.1,0.2c0,0-0.1,0.1-0.1,0.1
			c-0.1,0-0.1,0-0.2-0.1c-0.1,0-0.2-0.1-0.3-0.1s-0.2-0.1-0.4-0.1c-0.1,0-0.3-0.1-0.5-0.1c-0.2,0-0.4,0-0.5,0.1
			c-0.1,0.1-0.3,0.1-0.4,0.2c-0.1,0.1-0.2,0.2-0.2,0.3s-0.1,0.2-0.1,0.4c0,0.2,0.1,0.3,0.2,0.4s0.3,0.2,0.4,0.3
			c0.2,0.1,0.4,0.2,0.5,0.3c0.2,0.1,0.4,0.2,0.5,0.3c0.2,0.1,0.3,0.3,0.4,0.5c0.1,0.2,0.2,0.4,0.2,0.7c0,0.3-0.1,0.6-0.2,0.8
			s-0.3,0.5-0.5,0.7c-0.2,0.2-0.5,0.3-0.8,0.4c-0.3,0.1-0.7,0.2-1,0.2c-0.2,0-0.4,0-0.6,0c-0.2,0-0.3-0.1-0.5-0.1s-0.3-0.1-0.4-0.2
			c-0.1-0.1-0.2-0.1-0.2-0.2c0,0-0.1-0.1-0.1-0.1s0-0.1,0-0.1c0,0,0-0.1,0-0.1c0,0,0-0.1,0-0.1s0-0.1,0-0.1s0-0.1,0.1-0.1
			c0,0,0-0.1,0.1-0.1c0,0,0,0,0.1,0c0.1,0,0.1,0,0.2,0.1c0.1,0.1,0.2,0.1,0.3,0.2s0.3,0.1,0.4,0.2c0.2,0.1,0.4,0.1,0.6,0.1
			c0.2,0,0.4,0,0.6-0.1c0.2-0.1,0.3-0.1,0.4-0.2c0.1-0.1,0.2-0.2,0.2-0.3c0.1-0.1,0.1-0.3,0.1-0.4c0-0.2-0.1-0.3-0.2-0.4
			c-0.1-0.1-0.2-0.2-0.4-0.3S222,57,221.8,57c-0.2-0.1-0.4-0.2-0.5-0.3c-0.2-0.1-0.3-0.3-0.4-0.4c-0.1-0.2-0.2-0.4-0.2-0.7
			c0-0.3,0.1-0.5,0.2-0.8c0.1-0.2,0.3-0.4,0.5-0.6s0.4-0.3,0.7-0.4c0.3-0.1,0.6-0.1,0.9-0.1c0.2,0,0.3,0,0.5,0
			c0.1,0,0.3,0.1,0.4,0.1c0.1,0,0.2,0.1,0.3,0.1c0.1,0,0.2,0.1,0.2,0.1C224.4,54,224.5,54.1,224.5,54.2z"/>
	</g>
	<g class="st4">
		<path class="st5" d="M238.9,121.5v3.3c0,0,0,0.1,0,0.1s0,0-0.1,0.1c0,0-0.1,0-0.1,0s-0.1,0-0.2,0c-0.1,0-0.1,0-0.2,0
			c-0.1,0-0.1,0-0.1,0s-0.1,0-0.1-0.1s0,0,0-0.1v-3.3l-2.5-5.1c0-0.1-0.1-0.1-0.1-0.2c0,0,0-0.1,0-0.1c0,0,0.1,0,0.1,0
			c0.1,0,0.1,0,0.2,0c0.1,0,0.2,0,0.2,0c0.1,0,0.1,0,0.2,0c0,0,0.1,0,0.1,0.1c0,0,0,0,0.1,0.1l1.4,2.8c0.1,0.3,0.3,0.5,0.4,0.8
			c0.1,0.3,0.3,0.6,0.4,0.8h0c0.1-0.3,0.2-0.5,0.4-0.8s0.2-0.5,0.4-0.8l1.4-2.8c0,0,0-0.1,0-0.1c0,0,0,0,0.1-0.1c0,0,0.1,0,0.1,0
			c0.1,0,0.1,0,0.2,0c0.1,0,0.2,0,0.3,0s0.1,0,0.1,0.1c0,0,0,0.1,0,0.1c0,0,0,0.1-0.1,0.2L238.9,121.5z"/>
	</g>
	<g class="st4">
		<path class="st5" d="M245.7,118.9c0,0.1,0,0.1,0,0.2c0,0,0,0.1,0,0.1c0,0,0,0.1,0,0.1c0,0,0,0-0.1,0c0,0-0.1,0-0.1,0
			c-0.1,0-0.1,0-0.2-0.1c-0.1,0-0.2,0-0.2-0.1c-0.1,0-0.2,0-0.3,0c-0.1,0-0.2,0-0.4,0.1c-0.1,0.1-0.2,0.1-0.4,0.3
			c-0.1,0.1-0.3,0.3-0.4,0.5s-0.3,0.4-0.5,0.7v4.2c0,0,0,0.1,0,0.1s0,0-0.1,0.1c0,0-0.1,0-0.1,0c-0.1,0-0.1,0-0.2,0
			c-0.1,0-0.1,0-0.2,0c-0.1,0-0.1,0-0.1,0c0,0-0.1,0-0.1-0.1c0,0,0,0,0-0.1v-6.2c0,0,0-0.1,0-0.1c0,0,0,0,0.1-0.1c0,0,0.1,0,0.1,0
			c0,0,0.1,0,0.2,0c0.1,0,0.1,0,0.2,0c0,0,0.1,0,0.1,0c0,0,0,0,0.1,0.1c0,0,0,0,0,0.1v1c0.2-0.3,0.3-0.5,0.5-0.6s0.3-0.3,0.4-0.4
			c0.1-0.1,0.3-0.1,0.4-0.2s0.3,0,0.4,0c0.1,0,0.1,0,0.2,0c0.1,0,0.2,0,0.2,0s0.2,0,0.2,0.1c0.1,0,0.1,0,0.1,0.1c0,0,0,0,0.1,0.1
			c0,0,0,0,0,0.1c0,0,0,0.1,0,0.1C245.7,118.8,245.7,118.9,245.7,118.9z"/>
		<path class="st5" d="M255.8,122.4c0,0.1,0,0.2-0.1,0.3c0,0.1-0.1,0.1-0.2,0.1h-1.1v2c0,0,0,0.1,0,0.1s0,0-0.1,0.1c0,0-0.1,0-0.1,0
			c-0.1,0-0.1,0-0.2,0c-0.1,0-0.1,0-0.2,0c-0.1,0-0.1,0-0.1,0c0,0-0.1,0-0.1-0.1c0,0,0,0,0-0.1v-2h-3.8c0,0-0.1,0-0.1,0
			c0,0-0.1,0-0.1-0.1c0,0,0-0.1-0.1-0.1c0,0,0-0.1,0-0.2c0-0.1,0-0.1,0-0.2c0,0,0-0.1,0-0.1c0,0,0-0.1,0-0.1c0,0,0-0.1,0.1-0.1
			l3.4-5.7c0,0,0.1-0.1,0.1-0.1c0,0,0.1,0,0.1-0.1c0.1,0,0.1,0,0.2,0c0.1,0,0.2,0,0.3,0c0.1,0,0.2,0,0.3,0s0.2,0,0.2,0
			c0.1,0,0.1,0,0.1,0.1c0,0,0,0.1,0,0.1v5.8h1.1c0.1,0,0.1,0,0.2,0.1C255.7,122.2,255.8,122.3,255.8,122.4z M253.6,116.8
			L253.6,116.8l-3.2,5.3h3.2V116.8z"/>
	</g>
	<path class="st7" d="M22.7,62.5c0.9-5.3,1.4-10.7,1.5-16.1c0-1.8,0-3.1-2.4-4c-4-1.5-5.8-7.8-4-12.1c0.4-0.8,0.8-1.6,1.3-2.3
		c4.5-1.2,5.8,2.4,7.8,5.1c0.5,0.6,0.6,1.4,1.2,2c0.5-0.7,0-1.5,0-2.2c0.1-4.2,1.2-8.2,1.7-12.4c0.4-3.2,3.6-4,6.5-4.1
		c5.5-0.2,10.9,0,16.4,0.1c1.6,0.1,1.3,1.6,1.8,2.5c1.8,3.3,2.4,7.1,1.7,10.8c-1.7,1.3-3.4,0.1-5.2,0.2c-0.6,0-1.6-0.2-1.7,0.4
		s0.9,0.6,1.4,0.9c0.5,0.2,0.9,0.5,1.2,0.9c0.7,1.2-3.7,2.7,0.2,3.8c0.3,0,0.6,0,0.9-0.1c0.6-0.1,1.2-0.2,1.7-0.4
		c0.4-0.1,0.9-0.1,1.3,0.1c1.4,5.5-0.2,10.5-2.8,15.2c-1.3,2.2-2.3,4.8-5,6c-1,0.5-1.4,1.7-0.9,2.7c0.7,1.8,0.4,3.8,0.8,5.6
		c-2.6,4.2-6.9,4.9-11.2,4.6C31.3,69.3,26,67.8,22.7,62.5z"/>
	<path class="st8" d="M22.7,62.5c1.9,1.5,3.9,2.9,6,4c5.6,2.9,11.2,3.1,16.8,0c0.9-0.5,1.7-1,2.6-1.6c4.4,1.4,8.5,3.3,12.4,5.8
		c1.5,1,2.8,2.2,3.9,3.5c0.9,1.1,1.8,2.7,1.4,3.8s-2.2,0.5-3.4,0.5c-18.6,0-37.2,0.1-55.8,0.1c-4,0-3.2,0-2.1-3.3
		c0.9-2.7,3.2-4.6,5.5-6.2C13.9,66.3,18.2,64.1,22.7,62.5z"/>
	<path class="st9" d="M54.7,16.5c-0.2,0.7-0.1,1.8-1.2,1.5c-5.4-1.3-12.9-0.4-18.3-0.5c-3.2-0.1-4.8,1.9-4.8,5
		c0,2.6,0.2,5.3-1.3,7.7c-0.5,1.1-0.5,2.3,0.2,3.3c0.4,0.9,0.6,2,0.4,3c0,0.7-0.5,1.2-1.1,1.3c-0.3,0-0.9-0.5-1-1
		c-0.6-1.8-1.4-3.4-2.5-5c-1.4-2.1-3.2-3.6-5.9-3.8c0.2-2.3,0.3-4.6,0.7-6.8c0.6-3.9,3.2-6.3,6.6-7.8c7.3-3.3,14.8-3,22.2-0.2
		C50.2,13.8,53.6,14.9,54.7,16.5z"/>
	<path class="st7" d="M55.8,33.8l-1-0.3c-0.9,0.3-1.3-0.1-1.5-0.9c0.7-1.3,2-0.3,2.9-0.7C56.5,32.5,56.3,33.3,55.8,33.8z"/>
	<path class="st10" d="M42.1,58c-2.7,0.3-5.3-1-7.9-2.3c-2-0.9-2.1-3-3-4.5c-0.1-0.1,0.1-0.5,0.3-0.6c0.3-0.2,0.7-0.1,0.9,0.2
		c0,0,0,0,0,0.1c1.3,2.6,3.9,4.4,6.9,4.7c2,0.2,3.9,1.1,5.9,0.9c0.5,0,1.1,0.1,1,0.8S45.6,58,45.1,58L42.1,58z"/>
	<ellipse class="st7" cx="52.7" cy="32.5" rx="4.8" ry="11.9"/>
</g>
<g id="Layer_4">
	<circle class="st6" cx="147.7" cy="43.4" r="22.9"/>
	<path class="st11" d="M147.7,52.1c-0.3,0-0.5-0.1-0.7-0.3c-0.4-0.4-0.4-1,0-1.4c0.2-0.2,0.4-0.3,0.7-0.3c0.3,0,0.5,0.1,0.7,0.3
		c0.4,0.4,0.4,1,0,1.4C148.2,52,148,52.1,147.7,52.1z M147,49l-0.1-4.7h1.6l-0.1,4.7H147z"/>
	<path class="st12" d="M161.2,57.7l-26.3,0.1c0-5.1-0.1-15.3-0.1-15.3l-3.1,2.8l-2.5-2.6l9.4-9.8l0.2-4.6v-2h3.2l0.2,3.4
		c0,0,3.8-3.7,5.4-5.4c6.5,6.5,12.2,12.6,18.4,18.7c-0.6,0.6-1.3,1.3-2.1,2.1l-3-2.8C161.1,47.6,161.1,52.6,161.2,57.7z M158,52.2
		c0,1.5-1.2,2.7-2.7,2.7h-15c-1.5,0-2.7-1.2-2.7-2.7c0,0,0,0,0,0c0-0.5,0.1-1,0.4-1.4l7.5-13c0.7-1.3,2.4-1.8,3.7-1c0,0,0,0,0,0
		c0.4,0.2,0.8,0.6,1,1l7.5,13C157.9,51.2,158,51.7,158,52.2z"/>
	<circle class="st6" cx="279.4" cy="59.9" r="11.9"/>
	<path class="st11" d="M279.4,64.4c-0.1,0-0.3-0.1-0.4-0.2c-0.1-0.1-0.2-0.2-0.1-0.3c0-0.1,0.1-0.3,0.1-0.4c0.1-0.1,0.2-0.1,0.4-0.1
		c0.1,0,0.3,0,0.4,0.1c0.1,0.1,0.2,0.2,0.1,0.4C279.9,64.1,279.7,64.4,279.4,64.4z M279.1,62.8l-0.1-2.4h0.9l-0.1,2.4L279.1,62.8z"
		/>
	<path class="st12" d="M286.4,67.3h-13.6c0-2.7,0-7.9,0-7.9l-1.6,1.4l-1.3-1.3l4.9-5.1l0.1-2.4v-1h1.6l0.1,1.8c0,0,2-1.9,2.8-2.8
		c3.4,3.4,6.3,6.5,9.5,9.7c-0.3,0.3-0.6,0.7-1.1,1.1l-1.5-1.4C286.4,62,286.4,64.6,286.4,67.3z M284.7,64.4c0,0.8-0.6,1.4-1.4,1.4
		h-7.8c-0.8,0-1.4-0.6-1.4-1.4c0-0.2,0.1-0.5,0.2-0.7l3.9-6.7c0.4-0.7,1.2-0.9,1.9-0.5c0.2,0.1,0.4,0.3,0.5,0.5l3.9,6.7
		C284.7,63.9,284.7,64.2,284.7,64.4z"/>
	<circle class="st6" cx="338.4" cy="59.9" r="11.9"/>
	<path class="st11" d="M338.4,64.4c-0.1,0-0.3-0.1-0.4-0.2c-0.1-0.1-0.2-0.2-0.1-0.3c0-0.1,0.1-0.3,0.1-0.4c0.1-0.1,0.2-0.1,0.4-0.1
		c0.1,0,0.3,0,0.4,0.1c0.1,0.1,0.2,0.2,0.1,0.4C338.9,64.1,338.7,64.4,338.4,64.4z M338.1,62.8l-0.1-2.4h0.9l-0.1,2.4L338.1,62.8z"
		/>
	<path class="st12" d="M345.4,67.3h-13.6c0-2.7,0-7.9,0-7.9l-1.6,1.4l-1.3-1.3l4.9-5.1l0.1-2.4v-1h1.6l0.1,1.8c0,0,2-1.9,2.8-2.8
		c3.4,3.4,6.3,6.5,9.5,9.7c-0.3,0.3-0.6,0.7-1.1,1.1l-1.5-1.4C345.4,62,345.4,64.6,345.4,67.3z M343.7,64.4c0,0.8-0.6,1.4-1.4,1.4
		h-7.8c-0.8,0-1.4-0.6-1.4-1.4c0-0.2,0.1-0.5,0.2-0.7l3.9-6.7c0.4-0.7,1.2-0.9,1.9-0.5c0.2,0.1,0.4,0.3,0.5,0.5l3.9,6.7
		C343.7,63.9,343.7,64.2,343.7,64.4z"/>
	<circle class="st6" cx="146.7" cy="132.7" r="11.9"/>
	<path class="st11" d="M146.7,137.2c-0.1,0-0.3-0.1-0.4-0.1c-0.1-0.1-0.2-0.2-0.1-0.4c0-0.1,0.1-0.3,0.1-0.4
		c0.1-0.1,0.2-0.2,0.4-0.1c0.1,0,0.3,0.1,0.4,0.1c0.1,0.1,0.2,0.2,0.1,0.4C147.2,137,147,137.2,146.7,137.2z M146.4,135.6l-0.1-2.4
		h0.9l-0.1,2.4H146.4z"/>
	<path class="st12" d="M153.7,140.1h-13.6c0-2.7,0-7.9,0-7.9l-1.6,1.4l-1.3-1.4l4.9-5.1l0.1-2.4v-1h1.6l0.1,1.8c0,0,2-1.9,2.8-2.8
		c3.4,3.4,6.3,6.5,9.5,9.7l-1.1,1.1l-1.5-1.4C153.7,134.9,153.7,137.5,153.7,140.1z M152,137.2c0,0.8-0.6,1.4-1.4,1.4h-7.8
		c-0.8,0-1.4-0.6-1.4-1.4c0-0.2,0.1-0.5,0.2-0.7l3.9-6.7c0.4-0.7,1.2-0.9,1.9-0.5c0,0,0,0,0,0c0.2,0.1,0.4,0.3,0.5,0.5l3.9,6.7
		C151.9,136.8,152,137,152,137.2z"/>
	<circle class="st6" cx="210.7" cy="132.7" r="11.9"/>
	<path class="st11" d="M210.7,137.2c-0.1,0-0.3-0.1-0.4-0.1c-0.1-0.1-0.2-0.2-0.1-0.4c0-0.1,0.1-0.3,0.1-0.4
		c0.1-0.1,0.2-0.2,0.4-0.1c0.1,0,0.3,0.1,0.4,0.1c0.1,0.1,0.2,0.2,0.1,0.4C211.2,137,211,137.2,210.7,137.2z M210.4,135.6l-0.1-2.4
		h0.9l-0.1,2.4H210.4z"/>
	<path class="st12" d="M217.7,140.1h-13.6c0-2.7,0-7.9,0-7.9l-1.6,1.4l-1.3-1.4l4.9-5.1l0.1-2.4v-1h1.6l0.1,1.8c0,0,2-1.9,2.8-2.8
		c3.4,3.4,6.3,6.5,9.5,9.7l-1.1,1.1l-1.5-1.4C217.7,134.9,217.7,137.5,217.7,140.1z M216,137.2c0,0.8-0.6,1.4-1.4,1.4h-7.8
		c-0.8,0-1.4-0.6-1.4-1.4c0-0.2,0.1-0.5,0.2-0.7l3.9-6.7c0.4-0.7,1.2-0.9,1.9-0.5c0,0,0,0,0,0c0.2,0.1,0.4,0.3,0.5,0.5l3.9,6.7
		C215.9,136.8,216,137,216,137.2z"/>
	<circle class="st6" cx="338.9" cy="132.7" r="11.9"/>
	<path class="st11" d="M338.9,137.2c-0.1,0-0.3-0.1-0.4-0.1c-0.1-0.1-0.2-0.2-0.1-0.4c0-0.3,0.2-0.5,0.5-0.5c0.1,0,0.3,0.1,0.4,0.1
		c0.1,0.1,0.2,0.2,0.1,0.4C339.4,137,339.2,137.2,338.9,137.2L338.9,137.2L338.9,137.2z M338.6,135.6l-0.1-2.4h0.9l-0.1,2.4H338.6z"
		/>
	<path class="st12" d="M345.9,140.1h-13.6c0-2.7,0-7.9,0-7.9l-1.6,1.4l-1.3-1.4l4.9-5.1l0.1-2.4v-1h1.6l0.1,1.8c0,0,2-1.9,2.8-2.8
		c3.4,3.4,6.3,6.5,9.5,9.7l-1.1,1.1l-1.5-1.4C345.9,134.9,345.9,137.5,345.9,140.1z M344.2,137.2c0,0.8-0.6,1.4-1.4,1.4H335
		c-0.8,0-1.4-0.6-1.4-1.4c0-0.2,0.1-0.5,0.2-0.7l3.9-6.7c0.4-0.7,1.2-0.9,1.9-0.5c0,0,0,0,0,0c0.2,0.1,0.4,0.3,0.5,0.5l3.9,6.7
		C344.1,136.7,344.2,137,344.2,137.2L344.2,137.2z"/>
</g>
</svg>
