<?xml version="1.0" encoding="utf-8"?>
<!-- Generator: Adobe Illustrator 24.3.0, SVG Export Plug-In . SVG Version: 6.00 Build 0)  -->
<svg version="1.1" id="Layer_1" xmlns="http://www.w3.org/2000/svg" xmlns:xlink="http://www.w3.org/1999/xlink" x="0px" y="0px"
	 viewBox="0 0 166.5 68.4" style="enable-background:new 0 0 166.5 68.4;" xml:space="preserve">
<style type="text/css">
	.st0{fill:#DB7027;}
	.st1{fill:#FFFFFF;}
	.st2{fill-rule:evenodd;clip-rule:evenodd;fill:#FFFFFF;}
	.st3{fill:none;stroke:#3D3D3D;stroke-miterlimit:10;}
	.st4{fill:#3D3D3D;}
	.st5{fill:#244BA0;}
	.st6{fill:none;stroke:#FFFFFF;stroke-width:5;stroke-miterlimit:10;}
</style>
<g id="Layer_4_1_">
	<circle class="st0" cx="34.1" cy="34.3" r="34.1"/>
	<path class="st1" d="M34.1,47.2c-0.8,0-1.5-0.6-1.5-1.4c0-0.8,0.6-1.5,1.4-1.5c0.4,0,0.8,0.1,1,0.4c0.6,0.6,0.6,1.5,0,2
		C34.9,47,34.5,47.2,34.1,47.2z M33.1,42.6l-0.2-6.9h2.5l-0.2,6.9H33.1z"/>
	<path class="st2" d="M54.2,55.6L15,55.7c0-7.7-0.1-22.8-0.1-22.8l-4.5,4.1l-3.7-3.9l14.1-14.6l0.3-6.9l0-2.9h4.7l0.2,5.1
		c0,0,5.7-5.5,8.1-8.1c9.7,9.6,18.2,18.7,27.4,27.9l-3.1,3.2l-4.4-4.1C54.1,40.5,54.1,48,54.2,55.6z M49.4,47.3c0,2.2-1.8,4-4,4
		H22.9c-2.2,0-4-1.8-4-4c0-0.7,0.2-1.4,0.5-2l11.2-19.4c1.1-1.9,3.6-2.6,5.5-1.5c0.6,0.4,1.1,0.9,1.5,1.5l11.2,19.4
		C49.2,45.9,49.4,46.6,49.4,47.3z"/>
</g>
<g>
	<g>
		<line class="st3" x1="71.4" y1="35.1" x2="87.1" y2="35.1"/>
		<g>
			<path class="st4" d="M94.7,35.1c-3.5,1.3-8,3.6-10.7,5.9l2.2-5.9L84,29.1C86.7,31.5,91.1,33.8,94.7,35.1z"/>
		</g>
	</g>
</g>
<g id="Layer_5_1_">
	<circle class="st5" cx="132.4" cy="34.1" r="34.1"/>
	<path class="st1" d="M132.2,11.6c3.8,3.8,7.4,7.5,10.9,11.2l4.7,4.8v4.9v6.9c0,4,0,7.9,0,11.9l-30.6,0.1l-0.1-18.5v-6.5l3.1-3.2
		v0.1l6.8-6.6C127.2,16.5,129.8,14,132.2,11.6 M132.2,5.5c-2.4,2.6-8.1,8.1-8.1,8.1l-0.2-5h-4.7v3l-0.3,6.9l-14.1,14.6l3.7,3.9
		l4.5-4.1c0,0,0.1,15.1,0.1,22.7l39.1-0.1c0-7.6-0.1-15.1-0.1-23l4.4,4.1l3-3.2C150.4,24.3,141.9,15.2,132.2,5.5L132.2,5.5z"/>
	<circle class="st1" cx="132.4" cy="24.2" r="2.8"/>
	<path class="st1" d="M133.8,27.7h-2.9c-1-0.1-2,0.7-2.1,1.7v3.2c0,0.5,0.4,0.9,1,1l0.2,0.1c0.2,0,0.4,0.2,0.5,0.5v5.6
		c0.1,0.5,0.5,0.9,1.1,0.9h1.8c0.5,0,1-0.3,1.1-0.9v-5.5c0-0.3,0.2-0.5,0.5-0.5h0.2c0.5-0.1,1-0.5,1-1.1v-3.2
		C135.8,28.4,134.9,27.7,133.8,27.7z"/>
	<line class="st6" x1="119.7" y1="46.5" x2="145.1" y2="46.5"/>
</g>
</svg>
