<svg xmlns="http://www.w3.org/2000/svg" viewBox="0 0 428.36 228.14"><defs><style>.cls-1{fill:#c2adaa;}.cls-2,.cls-4{fill:none;stroke:#444545;stroke-miterlimit:10;stroke-width:0.7px;}.cls-3{fill:#444545;}.cls-4{stroke-dasharray:2.94 2.94;}.cls-27,.cls-5{font-size:14px;font-family:Calibri-Light, Calibri;font-weight:300;}.cls-14,.cls-27,.cls-5{fill:#231f20;}.cls-6{letter-spacing:-0.04em;}.cls-18,.cls-35,.cls-7{font-size:13px;font-family:Montserrat-ExtraBold, Montserrat;font-weight:800;}.cls-40,.cls-7{fill:#db7027;}.cls-8{letter-spacing:0.01em;}.cls-9{letter-spacing:-0.01em;}.cls-10{letter-spacing:-0.01em;}.cls-11{letter-spacing:0em;}.cls-12{letter-spacing:0.05em;}.cls-13{letter-spacing:-0.02em;}.cls-14,.cls-37{font-family:Calibri-Italic, Calibri;font-weight:400;font-style:italic;}.cls-15{letter-spacing:-0.01em;}.cls-16{letter-spacing:0.01em;}.cls-17{letter-spacing:-0.01em;}.cls-18,.cls-42{fill:#244ba0;}.cls-19{letter-spacing:-0.01em;}.cls-20{letter-spacing:0em;}.cls-21{letter-spacing:0.01em;}.cls-22{letter-spacing:0.02em;}.cls-23{letter-spacing:-0.01em;}.cls-24{letter-spacing:-0.01em;}.cls-25{letter-spacing:-0.01em;}.cls-26{letter-spacing:0em;}.cls-27{letter-spacing:-0.04em;}.cls-28{letter-spacing:0em;}.cls-29{fill:#d48139;}.cls-30{fill:#d0c238;}.cls-31{fill:#542a1e;}.cls-32{fill:#884723;}.cls-33{fill:#6c381c;}.cls-34{fill:#be682b;}.cls-35,.cls-38{fill:#be9b78;}.cls-36{letter-spacing:-0.02em;}.cls-37{fill:#000;}.cls-39,.cls-41{fill:#fff;}.cls-41{fill-rule:evenodd;}</style></defs><g id="Layer_6" data-name="Layer 6"><circle class="cls-1" cx="40.21" cy="36.14" r="36.14"/><line class="cls-2" x1="118.08" y1="77.64" x2="386.29" y2="77.64"/><polygon class="cls-3" points="118.51 77.12 115.96 72.7 114.77 72.7 117.32 77.12 116.12 77.12 113.57 72.7 112.38 72.7 114.93 77.12 113.73 77.12 111.18 72.7 109.99 72.7 112.54 77.12 111.31 77.12 111.31 78.16 112.54 78.16 109.99 82.58 111.18 82.58 113.73 78.16 114.93 78.16 112.38 82.58 113.57 82.58 116.12 78.16 117.32 78.16 114.77 82.58 115.96 82.58 118.51 78.16 118.51 77.12"/><path class="cls-3" d="M392.63,77.64a31.43,31.43,0,0,0-9,5l1.81-5-1.81-5A31.67,31.67,0,0,0,392.63,77.64Z"/><line class="cls-2" x1="116.32" y1="150.42" x2="392.63" y2="150.42"/><path class="cls-3" d="M110,150.42a31.51,31.51,0,0,1,9,5l-1.8-5,1.8-5A31.78,31.78,0,0,1,110,150.42Z"/><line class="cls-2" x1="109.99" y1="223.15" x2="386.29" y2="223.15"/><path class="cls-3" d="M392.63,223.15a31.43,31.43,0,0,0-9,5l1.81-5-1.81-5A31.7,31.7,0,0,0,392.63,223.15Z"/><path class="cls-2" d="M391.63,77.64A36.36,36.36,0,0,1,428,114"/><path class="cls-2" d="M428,114a36.37,36.37,0,0,1-30.07,35.84"/><path class="cls-3" d="M391.63,150.42a31.82,31.82,0,0,0,8.45-5.84l-1.32,5.14,2.28,4.8A31.68,31.68,0,0,0,391.63,150.42Z"/><path class="cls-2" d="M106.42,222.6a36.38,36.38,0,0,1-30.07-35.84"/><path class="cls-3" d="M112.74,223.15a31.82,31.82,0,0,1-8.45-5.84l1.32,5.14-2.28,4.8A31.57,31.57,0,0,1,112.74,223.15Z"/><path class="cls-2" d="M76.35,186.76a36.37,36.37,0,0,1,36.39-36.39"/><line class="cls-2" x1="398.92" y1="78.42" x2="398.92" y2="63.92"/><line class="cls-2" x1="150.8" y1="77.64" x2="150.8" y2="63.92"/><line class="cls-2" x1="150.8" y1="223.15" x2="150.8" y2="209.43"/><line class="cls-2" x1="283.08" y1="77.64" x2="283.08" y2="71.72"/><line class="cls-2" x1="342.59" y1="77.64" x2="342.59" y2="71.72"/><line class="cls-2" x1="280.08" y1="150.46" x2="280.08" y2="144.55"/><line class="cls-2" x1="215.06" y1="150.46" x2="215.06" y2="144.55"/><line class="cls-2" x1="150.38" y1="150.46" x2="150.38" y2="144.55"/><line class="cls-2" x1="342.59" y1="150.46" x2="342.59" y2="144.55"/><line class="cls-2" x1="342.59" y1="223.29" x2="342.59" y2="217.38"/><line class="cls-2" x1="413.59" y1="223.29" x2="413.59" y2="217.38"/><line class="cls-2" x1="100.49" y1="152.26" x2="100.49" y2="136.7"/><line class="cls-2" x1="392.63" y1="223.15" x2="394.13" y2="223.15"/><line class="cls-4" x1="397.07" y1="223.15" x2="425.04" y2="223.15"/><line class="cls-2" x1="426.51" y1="223.15" x2="428.01" y2="223.15"/><line class="cls-2" x1="75.01" y1="77.64" x2="76.51" y2="77.64"/><line class="cls-4" x1="79.46" y1="77.64" x2="107.43" y2="77.64"/><line class="cls-2" x1="108.9" y1="77.64" x2="110.4" y2="77.64"/></g><g id="Layer_1" data-name="Layer 1"><text class="cls-5" transform="translate(395.96 53)"><tspan class="cls-6">Y</tspan><tspan x="5.95" y="0">r 1</tspan></text><text class="cls-7" transform="translate(186.11 28.53)">E<tspan class="cls-8" x="8.74" y="0">m</tspan><tspan x="22.42" y="0">e</tspan><tspan class="cls-9" x="30.77" y="0">r</tspan><tspan x="36.44" y="0">ge</tspan><tspan class="cls-8" x="53.95" y="0">n</tspan><tspan class="cls-10" x="63.1" y="0">c</tspan><tspan class="cls-11" x="70.81" y="0">y s</tspan><tspan class="cls-8" x="89.76" y="0">h</tspan><tspan class="cls-11" x="98.92" y="0">e</tspan><tspan class="cls-12" x="107.26" y="0">l</tspan><tspan class="cls-13" x="112.03" y="0">t</tspan><tspan class="cls-11" x="117.64" y="0">er</tspan><tspan class="cls-14"><tspan class="cls-15" x="0" y="15.6">e</tspan><tspan x="6.13" y="15.6">ve</tspan><tspan class="cls-16" x="18.13" y="15.6">r</tspan><tspan x="22.65" y="15.6">y 1-3 days</tspan><tspan class="cls-17" x="0" y="31.2">f</tspan><tspan x="3.81" y="31.2">or 2 yrs</tspan></tspan></text><text class="cls-18" transform="translate(186.11 174.04)"><tspan class="cls-19">P</tspan><tspan x="9.44" y="0">e</tspan><tspan class="cls-20" x="17.78" y="0">r</tspan><tspan x="23.52" y="0">ma</tspan><tspan class="cls-21" x="45.27" y="0">n</tspan><tspan x="54.42" y="0">ent Suppo</tspan><tspan class="cls-22" x="125.54" y="0">r</tspan><tspan x="131.49" y="0">ti</tspan><tspan class="cls-23" x="141.37" y="0">v</tspan><tspan x="149.24" y="0">e Housi</tspan><tspan class="cls-8" x="200.68" y="0">n</tspan><tspan x="209.83" y="0">g</tspan><tspan class="cls-14"><tspan x="0" y="15.6">with routine home visits </tspan><tspan x="0" y="31.2">&amp; </tspan><tspan class="cls-24" x="11.81" y="31.2">c</tspan><tspan x="17.13" y="31.2">ase manageme</tspan><tspan class="cls-25" x="97.74" y="31.2">n</tspan><tspan class="cls-26" x="104.3" y="31.2">t</tspan></tspan></text><text class="cls-27" transform="translate(97.53 125.78) scale(0.96 1)">Y<tspan class="cls-28" x="5.95" y="0">r 2</tspan></text><path class="cls-29" d="M58,42.86c-1.34,2.77-1.83,6-4.32,8.14a2.21,2.21,0,0,0-.77.75c-2.48,4.83-6.39,5.25-9.63,1-.59.12-.25.63-.39.94a1.41,1.41,0,0,1-.77.47c-2.9-.44-4.7-2.56-6.69-4.38-.37-.34-.37-.93-.75-1.28a5.16,5.16,0,0,0,.47.94,15.55,15.55,0,0,0,7.09,5.11,48.76,48.76,0,0,1,5.54,3.56,29.6,29.6,0,0,1,.73,6.57c-1,3.6-4.28,3.34-6.7,3.42-4.88.15-9.4-1.67-13.48-4.39a1.85,1.85,0,0,1-1-2.12c.17-6,1.36-12,.89-18,.17-.13.4-.33.36-.48s-.33-.21-.54-.06c-4-.56-6.52-3.55-7-8.24-.21-2.2-.14-4.34,2-5.73,3.1-1.22,4.63.83,6.13,2.93.41.56.58,1.51,1.43,1.43s.79-1.05,1.08-1.67c1.6-3.51,3.25-7,2.91-11A2.38,2.38,0,0,1,36,18.35a7.49,7.49,0,0,1,3.94-.42c5,.71,10,1.58,15.14,1.47a3,3,0,0,1,2,.7c1.35,3.39,2.6,6.79,2,10.54a1.83,1.83,0,0,1-1.32.39c-1.17-.06-3.06-1.22-3.24-.61-.4,1.29,1.85.77,2.28,1.79,1.15,2.68-1.65,1.65-2.44,2.53-.85.45-1.34,1.3-2.06,1.89-1,.6-.77,1.59-.84,2.5.21-.75,0-1.64.79-2.19a2.53,2.53,0,0,1,.61-.32,15,15,0,0,0,4.06-.22,2.68,2.68,0,0,1,2.54.69c.13,1.45.31,2.91-.57,4.22A2.83,2.83,0,0,1,58,42.86Z"/><path class="cls-30" d="M27.36,61.62c1.54,2.2,4.08,2.83,6.31,3.81C38,67.32,42.44,68,47,66.09a2.57,2.57,0,0,0,1.54-1.38,6.15,6.15,0,0,1,3.4,1.06c4.91,2.56,9.82,5.11,14.71,7.69,1.48.78,2.87,1.6,3.25,3.53.26,1.29-.1,1.86-1.27,2a21.35,21.35,0,0,1-2.53,0H3.37C-.37,79-.54,78.67.68,75.19A3.91,3.91,0,0,1,2.91,73c4.59-2.62,9.46-4.66,14.24-6.89C20.52,64.57,24,63.12,27.36,61.62Z"/><path class="cls-31" d="M57,20.1a38.1,38.1,0,0,1-14.28-.65,21.89,21.89,0,0,0-7.11-.38c-3.84.49-7.59,1.81-11.55,1.23.14-3.5,2.41-5.29,5.3-6.55A26.81,26.81,0,0,1,42.83,12a29.17,29.17,0,0,1,11.42,3C56.22,16.1,58,17.37,57,20.1Z"/><path class="cls-32" d="M24.1,20.3c2.93-1.32,6.2-1,9.23-1.93.65-.2,1.54.45,2.32.7A32.62,32.62,0,0,0,35.49,23a9.79,9.79,0,0,1-2.1,7,3.53,3.53,0,0,0-.83,2.63A3.7,3.7,0,0,1,31.77,35c-.55.89-1.33.94-2,.09a3.71,3.71,0,0,1-.66-1.26c-.87-3-3-4.42-6-4.72A63.23,63.23,0,0,1,24.1,20.3Z"/><path class="cls-33" d="M42.74,53.77V53c-.19-.15-.25-.3-.2-.45s.1-.24.16-.24c.06-.47,0-1,.5-1.25a.65.65,0,0,1,.89.34c.36.88.59,1.81.94,2.7a1.44,1.44,0,0,0,1.33,1,1.54,1.54,0,0,0,1.35-1c.3-.55-.2-1.67.92-1.58.77.06.53.92.58,1.47s.14,1,.7,1.09a1.2,1.2,0,0,0,1.33-.95c.18-.56.13-1.19.27-1.77A1.73,1.73,0,0,1,53.7,51c-.24.92-.44,1.84-.72,2.74-1.21,3.85-1.22,3.85-5.18,4.4-2.49.13-4-1.6-5.68-3C41.53,54.32,42.37,54.15,42.74,53.77Z"/><path class="cls-34" d="M28.07,43.06c.42-.81.79-1.72,2-1.4.18.05.34.6.32.9-.11,1.48-1.3.9-2.11,1A.7.7,0,0,1,28.07,43.06Z"/><path class="cls-34" d="M42.74,53.77l-.62,1.36a12.1,12.1,0,0,1-8.75-7.91,1.08,1.08,0,0,1,.13-1c.52-.44.92.16,1,.46a11.7,11.7,0,0,0,4.72,5.45A7.67,7.67,0,0,0,42.74,53.77Z"/><path class="cls-34" d="M28.1,35.62c-.21.75-.43,1.71-1.19,2s-.86-.54-.85-1.17,0-1.47,1-1.52C27.53,34.88,28,35,28.1,35.62Z"/><path class="cls-34" d="M26.77,33.19c-.07.31-.05.85-.52.6A2.46,2.46,0,0,1,24.72,32a.54.54,0,0,1,.68-.59A1.67,1.67,0,0,1,26.77,33.19Z"/><path class="cls-34" d="M42.71,52.31a1.78,1.78,0,0,1,0,.69l-.56-.33Z"/><path class="cls-29" d="M41.32,32.71c-.45,1.09-1.4.73-2.22.76C39.48,32.16,40.53,32.8,41.32,32.71Z"/><ellipse class="cls-29" cx="55.43" cy="32.91" rx="4.59" ry="11.28"/><text class="cls-35" transform="translate(206.5 93.31)">St<tspan class="cls-9" x="14.22" y="0">r</tspan><tspan x="19.89" y="0">eet Out</tspan><tspan class="cls-9" x="71.98" y="0">r</tspan><tspan class="cls-36" x="77.65" y="0">e</tspan><tspan class="cls-21" x="85.8" y="0">a</tspan><tspan class="cls-20" x="94.07" y="0">c</tspan><tspan x="101.88" y="0">h</tspan><tspan class="cls-37"><tspan class="cls-17" x="0" y="15.6">f</tspan><tspan x="3.81" y="15.6">or additional support</tspan></tspan></text></g><g id="Layer_2" data-name="Layer 2"><path class="cls-38" d="M205.2,139.49h20c-.2.28-.42.54-.64.8H205.84C205.62,140,205.41,139.77,205.2,139.49Zm22.4-7.3a12.39,12.39,0,1,0-22.91,6.55h21A12.39,12.39,0,0,0,227.6,132.19Zm-12.39,12.39a12.32,12.32,0,0,0,8.66-3.54H206.55A12.32,12.32,0,0,0,215.21,144.58Z"/><path class="cls-39" d="M204.69,138.74l.51.75h20q.27-.36.51-.75Z"/><path class="cls-39" d="M206.55,141h17.32a10,10,0,0,0,.71-.75H205.84C206.07,140.55,206.3,140.8,206.55,141Z"/><path class="cls-39" d="M210.92,135.25a1.84,1.84,0,0,0-2.5,2.51,1.49,1.49,0,0,0,.65.64,1.83,1.83,0,0,0,2.5-2.5A1.57,1.57,0,0,0,210.92,135.25Zm-.43,2.2a.8.8,0,0,1-1.11-1.12.46.46,0,0,1,.12-.12.8.8,0,0,1,1.12,1.11A.53.53,0,0,1,210.49,137.45Zm11.61-2.2a1.84,1.84,0,0,0-2.5,2.51,1.52,1.52,0,0,0,.64.64,1.84,1.84,0,0,0,2.51-2.5A1.57,1.57,0,0,0,222.1,135.25Zm-.44,2.2a.79.79,0,0,1-1.11-1.11.5.5,0,0,1,.12-.13.8.8,0,0,1,1.12,1.12A.37.37,0,0,1,221.66,137.45Zm3.21-2.12h-.25v-3l-2.79-1.59-1.62-4.56c0-.19-.18-.29-.37-.29H206.57v9.4H206v1.49a0,0,0,0,0,0,0h1.61a2.35,2.35,0,0,1,4.69,0h6.49a2.35,2.35,0,0,1,4.69,0h1.31a.36.36,0,0,0,.35-.36l0-.8A.37.37,0,0,0,224.87,135.33Zm-6.78-4.8v-3.64h.74c.13,0,.24.17.24.3l1.17,3.34ZM210,133.78h0a.13.13,0,0,1-.1-.07l-.68-1.13a.12.12,0,0,1,.06-.17l1.46-.8a.6.6,0,0,1,.32-.07l1.49,0a.42.42,0,0,1,.44.38.43.43,0,0,1-.41.42l-.53,0a.1.1,0,0,0-.07.05.06.06,0,0,0,0,.08h0s0,0,.09,0l.86,0L214,132a.52.52,0,0,1,.65.1h0a.36.36,0,0,1-.11.55l-1.35.85a.89.89,0,0,1-.6.12l-1.68-.22a.54.54,0,0,0-.33.07l-.5.32Zm4.67-3.18h-2.82V129l-.33.3-.26-.28,1-1.06,0-.5v-.21h.34l0,.36s.41-.39.58-.58c.7.7,1.31,1.35,2,2l-.22.23-.32-.3C214.68,129.52,214.68,130.06,214.68,130.6Z"/></g><g id="Layer_4" data-name="Layer 4"><circle class="cls-40" cx="151.78" cy="43.43" r="22.93"/><path class="cls-39" d="M151.78,52.09a.92.92,0,0,1-.69-.28,1,1,0,0,1,0-1.38.92.92,0,0,1,.69-.28.9.9,0,0,1,.68.28,1,1,0,0,1,0,1.38A.9.9,0,0,1,151.78,52.09Zm-.7-3.07L151,44.35h1.65L152.45,49Z"/><path class="cls-41" d="M165.23,57.74l-26.29.09c0-5.14-.06-15.28-.06-15.28l-3,2.78-2.48-2.62,9.45-9.83.21-4.65,0-2h3.19l.16,3.4s3.83-3.7,5.43-5.44c6.53,6.5,12.23,12.6,18.41,18.75l-2.05,2.12-3-2.77C165.19,47.61,165.21,52.61,165.23,57.74ZM162,52.18a2.72,2.72,0,0,1-2.72,2.71H144.25a2.7,2.7,0,0,1-2.72-2.69,2.77,2.77,0,0,1,.37-1.38l7.53-13a2.72,2.72,0,0,1,4.7,0l7.52,13A2.72,2.72,0,0,1,162,52.18Z"/><circle class="cls-40" cx="283.5" cy="59.89" r="11.86"/><path class="cls-39" d="M283.5,64.37a.49.49,0,0,1-.36-.15.45.45,0,0,1-.14-.35.51.51,0,0,1,.86-.36.52.52,0,0,1,.14.36.48.48,0,0,1-.14.35A.49.49,0,0,1,283.5,64.37Zm-.36-1.59-.07-2.42h.85l-.07,2.42Z"/><path class="cls-41" d="M290.46,67.29l-13.6,0c0-2.66,0-7.91,0-7.91l-1.58,1.44L274,59.52l4.89-5.09L279,52V51h1.65l.08,1.76s2-1.91,2.81-2.81c3.38,3.36,6.33,6.52,9.53,9.7L292,60.73l-1.54-1.44C290.44,62.05,290.45,64.64,290.46,67.29Zm-1.66-2.87a1.41,1.41,0,0,1-1.41,1.4h-7.78a1.4,1.4,0,0,1-1.41-1.4,1.38,1.38,0,0,1,.19-.71L282.28,57a1.41,1.41,0,0,1,1.92-.51,1.39,1.39,0,0,1,.51.51l3.9,6.74A1.48,1.48,0,0,1,288.8,64.42Z"/><circle class="cls-40" cx="343.01" cy="59.89" r="11.86"/><path class="cls-39" d="M343,64.37a.49.49,0,0,1-.36-.15.45.45,0,0,1-.15-.35.49.49,0,0,1,.15-.36.48.48,0,0,1,.36-.14.46.46,0,0,1,.35.14.49.49,0,0,1,.15.36.45.45,0,0,1-.15.35A.47.47,0,0,1,343,64.37Zm-.37-1.59-.06-2.42h.85l-.07,2.42Z"/><path class="cls-41" d="M350,67.29l-13.6,0c0-2.66,0-7.91,0-7.91l-1.57,1.44-1.28-1.35,4.89-5.09.11-2.41,0-1h1.65l.09,1.76s2-1.91,2.81-2.81c3.38,3.36,6.32,6.52,9.53,9.7l-1.07,1.1-1.53-1.44C350,62.05,350,64.64,350,67.29Zm-1.66-2.87a1.42,1.42,0,0,1-1.41,1.4h-7.79a1.4,1.4,0,0,1-1.4-1.4,1.38,1.38,0,0,1,.19-.71L341.79,57a1.41,1.41,0,0,1,1.92-.51,1.39,1.39,0,0,1,.51.51l3.9,6.74A1.48,1.48,0,0,1,348.31,64.42Z"/><circle class="cls-40" cx="280.5" cy="132.71" r="11.86"/><path class="cls-39" d="M280.5,137.2a.49.49,0,0,1-.36-.15.48.48,0,0,1-.14-.36.46.46,0,0,1,.14-.35.51.51,0,0,1,.72,0,.5.5,0,0,1,.14.35.52.52,0,0,1-.14.36A.49.49,0,0,1,280.5,137.2Zm-.36-1.59-.07-2.42h.85l-.07,2.42Z"/><path class="cls-41" d="M287.46,140.12l-13.6,0c0-2.66,0-7.91,0-7.91l-1.58,1.44L271,132.34l4.89-5.08.11-2.41v-1h1.65l.08,1.76s2-1.92,2.81-2.82c3.38,3.37,6.33,6.52,9.53,9.71L289,133.55l-1.54-1.43C287.44,134.88,287.45,137.47,287.46,140.12Zm-1.66-2.88a1.41,1.41,0,0,1-1.41,1.41h-7.78a1.41,1.41,0,0,1-1.41-1.4,1.38,1.38,0,0,1,.19-.71l3.89-6.74a1.39,1.39,0,0,1,2.43,0l3.9,6.74A1.44,1.44,0,0,1,285.8,137.24Z"/><circle class="cls-40" cx="150.8" cy="132.71" r="11.86"/><path class="cls-39" d="M150.8,137.2a.45.45,0,0,1-.35-.15.49.49,0,0,1-.15-.36.47.47,0,0,1,.15-.35.45.45,0,0,1,.35-.15.49.49,0,0,1,.36.15.47.47,0,0,1,.15.35.51.51,0,0,1-.51.51Zm-.36-1.59-.06-2.42h.85l-.08,2.42Z"/><path class="cls-41" d="M157.77,140.12l-13.61,0c0-2.66,0-7.91,0-7.91l-1.57,1.44-1.29-1.36,4.89-5.08.12-2.41,0-1h1.65l.09,1.76s2-1.92,2.8-2.82c3.38,3.37,6.33,6.52,9.53,9.71l-1.06,1.09-1.53-1.43C157.75,134.88,157.76,137.47,157.77,140.12Zm-1.67-2.88a1.41,1.41,0,0,1-1.4,1.41h-7.79a1.42,1.42,0,0,1-1.41-1.4,1.48,1.48,0,0,1,.19-.71l3.9-6.74a1.4,1.4,0,0,1,1.92-.52,1.41,1.41,0,0,1,.51.52l3.89,6.74A1.34,1.34,0,0,1,156.1,137.24Z"/><circle class="cls-40" cx="343.01" cy="132.71" r="11.86"/><path class="cls-39" d="M343,137.2a.51.51,0,0,1-.51-.51.47.47,0,0,1,.15-.35.49.49,0,0,1,.36-.15.51.51,0,0,1,.5.5.49.49,0,0,1-.15.36A.47.47,0,0,1,343,137.2Zm-.37-1.59-.06-2.42h.85l-.07,2.42Z"/><path class="cls-41" d="M350,140.12l-13.6,0c0-2.66,0-7.91,0-7.91l-1.57,1.44-1.28-1.36,4.89-5.08.11-2.41,0-1h1.65l.09,1.76s2-1.92,2.81-2.82c3.38,3.37,6.32,6.52,9.53,9.71l-1.07,1.09-1.53-1.43C350,134.88,350,137.47,350,140.12Zm-1.66-2.88a1.43,1.43,0,0,1-1.41,1.41h-7.79a1.4,1.4,0,0,1-1.4-1.4,1.38,1.38,0,0,1,.19-.71l3.89-6.74a1.39,1.39,0,0,1,2.43,0l3.9,6.74A1.44,1.44,0,0,1,348.31,137.24Z"/></g><g id="Layer_5" data-name="Layer 5"><circle class="cls-42" cx="150.94" cy="188.93" r="22.93"/><path class="cls-39" d="M150.82,173.82c2.53,2.56,5,5.07,7.35,7.52l3.12,3.21,0,3.28v4.6c0,2.69,0,5.32,0,8l-20.53.07,0-12.4,0-4.39,2-2.12v.08l4.57-4.42c.11-.1,1.84-1.77,3.46-3.4m0-4.11c-1.59,1.74-5.42,5.44-5.42,5.44l-.16-3.4H142l0,2-.21,4.65-9.45,9.84,2.47,2.61,3-2.78s0,10.14.06,15.28l26.29-.09c0-5.12,0-10.13-.06-15.45l3,2.76c.79-.82,1.47-1.51,2-2.12-6.19-6.15-11.88-12.25-18.42-18.75Z"/><circle class="cls-39" cx="150.93" cy="182.26" r="1.88"/><path class="cls-39" d="M151.9,184.64h-2a1.31,1.31,0,0,0-1.41,1.16V188a.75.75,0,0,0,.65.68l.14.05a.37.37,0,0,1,.31.33v3.72a.66.66,0,0,0,.71.59h1.19a.66.66,0,0,0,.71-.59V189a.35.35,0,0,1,.31-.33l.14,0a.75.75,0,0,0,.64-.69v-2.15A1.36,1.36,0,0,0,151.9,184.64Z"/><rect class="cls-39" x="142.38" y="195.78" width="17.12" height="2.88"/><circle class="cls-42" cx="342.86" cy="205.52" r="11.85"/><path class="cls-39" d="M342.8,197.71c1.31,1.32,2.57,2.62,3.8,3.89l1.61,1.66v4.07c0,1.39,0,2.75,0,4.12l-10.61,0,0-6.41v-2.27l1-1.1v0l2.36-2.28c.06-.05.95-.92,1.79-1.76m0-2.12c-.82.9-2.8,2.81-2.8,2.81l-.09-1.76h-1.65l0,1-.11,2.41-4.89,5.08,1.28,1.35,1.58-1.44s0,5.25,0,7.9l13.59,0c0-2.64,0-5.23,0-8l1.53,1.43,1.06-1.1c-3.2-3.18-6.14-6.33-9.52-9.69Z"/><circle class="cls-39" cx="342.85" cy="202.07" r="0.97"/><path class="cls-39" d="M343.36,203.31h-1a.68.68,0,0,0-.73.6V205a.39.39,0,0,0,.34.35l.07,0a.19.19,0,0,1,.16.17v1.92a.34.34,0,0,0,.37.31h.61a.35.35,0,0,0,.37-.31v-1.92a.18.18,0,0,1,.16-.17l.07,0a.37.37,0,0,0,.33-.35v-1.12A.69.69,0,0,0,343.36,203.31Z"/><rect class="cls-39" x="338.44" y="209.06" width="8.85" height="1.49"/><circle class="cls-42" cx="413.86" cy="205.52" r="11.85"/><path class="cls-39" d="M413.8,197.71c1.31,1.32,2.57,2.62,3.8,3.89l1.61,1.66v4.07c0,1.39,0,2.75,0,4.12l-10.61,0,0-6.41v-2.27l1-1.1v0l2.36-2.28c.06-.05.95-.92,1.79-1.76m0-2.12c-.82.9-2.8,2.81-2.8,2.81l-.09-1.76h-1.65l0,1-.11,2.41-4.89,5.08,1.28,1.35,1.58-1.44s0,5.25,0,7.9l13.59,0c0-2.64,0-5.23,0-8l1.53,1.43,1.06-1.1c-3.2-3.18-6.14-6.33-9.52-9.69Z"/><circle class="cls-39" cx="413.85" cy="202.07" r="0.97"/><path class="cls-39" d="M414.36,203.31h-1a.68.68,0,0,0-.73.6V205a.39.39,0,0,0,.34.35l.07,0a.19.19,0,0,1,.16.17v1.92a.34.34,0,0,0,.37.31h.61a.35.35,0,0,0,.37-.31v-1.92a.18.18,0,0,1,.16-.17l.07,0a.37.37,0,0,0,.33-.35v-1.12A.69.69,0,0,0,414.36,203.31Z"/><rect class="cls-39" x="409.44" y="209.06" width="8.85" height="1.49"/></g></svg>