<svg xmlns="http://www.w3.org/2000/svg" viewBox="0 0 480.12 300.6"><defs><style>.cls-1,.cls-4{fill:none;stroke:#444545;stroke-miterlimit:10;stroke-width:0.7px;}.cls-2{fill:#cbc595;}.cls-3{fill:#444545;}.cls-4{stroke-dasharray:2.94 2.94;}.cls-28,.cls-5{font-size:14px;font-family:Calibri-Light, Calibri;font-weight:300;}.cls-14,.cls-26,.cls-28,.cls-5{fill:#231f20;}.cls-6{letter-spacing:-0.04em;}.cls-7{font-size:13px;}.cls-43,.cls-7{fill:#244ba0;}.cls-21,.cls-7{font-family:Montserrat-ExtraBold, Montserrat;font-weight:800;}.cls-8{letter-spacing:-0.01em;}.cls-9{letter-spacing:0em;}.cls-10{letter-spacing:0.01em;}.cls-11{letter-spacing:0.02em;}.cls-12{letter-spacing:-0.01em;}.cls-13{letter-spacing:0.01em;}.cls-14{font-family:Calibri-Italic, Calibri;font-weight:400;font-style:italic;}.cls-15{letter-spacing:-0.01em;}.cls-16{letter-spacing:-0.01em;}.cls-17{letter-spacing:0em;}.cls-18{letter-spacing:-0.01em;}.cls-19{letter-spacing:0.01em;}.cls-20{letter-spacing:-0.01em;}.cls-21{font-size:12px;}.cls-21,.cls-41{fill:#5383c3;}.cls-22{letter-spacing:0em;}.cls-23{letter-spacing:0em;}.cls-24{letter-spacing:0.01em;}.cls-25{letter-spacing:0.01em;}.cls-27{letter-spacing:-0.01em;}.cls-28{letter-spacing:-0.04em;}.cls-29{letter-spacing:0em;}.cls-30{fill:#eda76c;}.cls-31{fill:#ad8752;}.cls-32{fill:#201816;}.cls-33{fill:#443327;}.cls-34{fill:#e2cec3;}.cls-35{fill:#734d30;}.cls-36{fill:#d76e51;}.cls-37{fill:#ce8666;}.cls-38{fill:#d27d2d;}.cls-39{fill:#97858f;}.cls-40{fill:#b76b4e;}.cls-42{fill:#fff;}</style></defs><g id="Layer_6" data-name="Layer 6"><line class="cls-1" x1="204.13" y1="150.78" x2="204.13" y2="144.86"/><line class="cls-1" x1="270.13" y1="150.78" x2="270.13" y2="143.66"/><line class="cls-1" x1="334.13" y1="150.78" x2="334.13" y2="143.23"/><line class="cls-1" x1="393.98" y1="150.78" x2="393.98" y2="144.86"/><line class="cls-1" x1="271.13" y1="223.78" x2="271.13" y2="217.86"/><line class="cls-1" x1="393.98" y1="223.78" x2="393.98" y2="217.86"/><circle class="cls-2" cx="90.97" cy="37.14" r="36.14"/><circle class="cls-2" cx="36.14" cy="36.14" r="36.14"/><line class="cls-1" x1="169.84" y1="77.64" x2="438.04" y2="77.64"/><polygon class="cls-3" points="170.27 77.12 167.72 72.7 166.52 72.7 169.07 77.12 167.88 77.12 165.33 72.7 164.13 72.7 166.68 77.12 165.49 77.12 162.94 72.7 161.74 72.7 164.29 77.12 163.07 77.12 163.07 78.16 164.29 78.16 161.74 82.58 162.94 82.58 165.49 78.16 166.68 78.16 164.13 82.58 165.33 82.58 167.88 78.16 169.07 78.16 166.52 82.58 167.72 82.58 170.27 78.16 170.27 77.12"/><path class="cls-3" d="M444.38,77.64a31.51,31.51,0,0,0-9,5l1.8-5-1.8-5A31.75,31.75,0,0,0,444.38,77.64Z"/><line class="cls-1" x1="168.08" y1="150.42" x2="444.38" y2="150.42"/><path class="cls-3" d="M161.74,150.42a31.56,31.56,0,0,1,9,5l-1.81-5,1.81-5A31.84,31.84,0,0,1,161.74,150.42Z"/><line class="cls-1" x1="161.74" y1="223.15" x2="438.04" y2="223.15"/><path class="cls-3" d="M444.38,223.15a31.51,31.51,0,0,0-9,5l1.8-5-1.8-5A31.78,31.78,0,0,0,444.38,223.15Z"/><line class="cls-1" x1="393.98" y1="296.24" x2="393.98" y2="290.33"/><line class="cls-1" x1="362.67" y1="295.61" x2="444.38" y2="295.61"/><path class="cls-3" d="M356.34,295.61a31.75,31.75,0,0,1,9,5l-1.81-5,1.81-5A31.51,31.51,0,0,1,356.34,295.61Z"/><line class="cls-1" x1="340.2" y1="295.61" x2="356.34" y2="295.61"/><path class="cls-3" d="M333.87,295.61a31.75,31.75,0,0,1,9,5l-1.8-5,1.8-5A31.51,31.51,0,0,1,333.87,295.61Z"/><line class="cls-1" x1="317.74" y1="295.61" x2="333.87" y2="295.61"/><path class="cls-3" d="M311.4,295.61a31.75,31.75,0,0,1,9,5l-1.8-5,1.8-5A31.51,31.51,0,0,1,311.4,295.61Z"/><line class="cls-1" x1="168.08" y1="295.61" x2="311.4" y2="295.61"/><path class="cls-3" d="M161.74,295.61a31.81,31.81,0,0,1,9,5l-1.81-5,1.81-5A31.56,31.56,0,0,1,161.74,295.61Z"/><path class="cls-1" d="M443.38,77.64A36.36,36.36,0,0,1,479.77,114"/><path class="cls-1" d="M479.77,114a36.37,36.37,0,0,1-30.07,35.84"/><path class="cls-3" d="M443.38,150.42a31.82,31.82,0,0,0,8.45-5.84l-1.31,5.14,2.28,4.8A31.63,31.63,0,0,0,443.38,150.42Z"/><path class="cls-1" d="M158.18,222.6a36.38,36.38,0,0,1-30.07-35.84"/><path class="cls-3" d="M164.5,223.15a31.82,31.82,0,0,1-8.45-5.84l1.32,5.14-2.29,4.8A31.74,31.74,0,0,1,164.5,223.15Z"/><path class="cls-1" d="M128.11,186.76a36.37,36.37,0,0,1,36.39-36.39"/><line class="cls-1" x1="450.68" y1="78.42" x2="450.68" y2="63.92"/><path class="cls-1" d="M443.38,223.35a36.37,36.37,0,0,1,36.39,36.39"/><path class="cls-1" d="M479.77,259.74a36.36,36.36,0,0,1-30.07,35.84"/><path class="cls-3" d="M443.38,296.13a31.82,31.82,0,0,0,8.45-5.84l-1.31,5.14,2.28,4.8A31.63,31.63,0,0,0,443.38,296.13Z"/><line class="cls-1" x1="450.68" y1="224.13" x2="450.68" y2="209.63"/><line class="cls-1" x1="299.91" y1="295.46" x2="299.91" y2="280.97"/><line class="cls-1" x1="202.56" y1="77.64" x2="202.56" y2="63.92"/><line class="cls-1" x1="394.34" y1="77.64" x2="394.34" y2="71.72"/><line class="cls-1" x1="152.25" y1="152.26" x2="152.25" y2="136.7"/><line class="cls-1" x1="126.77" y1="77.64" x2="128.27" y2="77.64"/><line class="cls-4" x1="131.22" y1="77.64" x2="159.19" y2="77.64"/><line class="cls-1" x1="160.66" y1="77.64" x2="162.16" y2="77.64"/><line class="cls-1" x1="126.77" y1="295.61" x2="128.27" y2="295.61"/><line class="cls-4" x1="131.22" y1="295.61" x2="159.19" y2="295.61"/><line class="cls-1" x1="160.66" y1="295.61" x2="162.16" y2="295.61"/><line class="cls-1" x1="272.57" y1="295.61" x2="272.57" y2="289.7"/><line class="cls-1" x1="207.9" y1="295.61" x2="207.9" y2="289.7"/></g><g id="Layer_1" data-name="Layer 1"><text class="cls-5" transform="translate(447.71 53)"><tspan class="cls-6">Y</tspan><tspan x="5.95" y="0">r 1</tspan></text><text class="cls-5" transform="translate(447.71 198.71)"><tspan class="cls-6">Y</tspan><tspan x="5.95" y="0">r 3</tspan></text><text class="cls-5" transform="translate(296.95 270.05)"><tspan class="cls-6">Y</tspan><tspan x="5.95" y="0">r 5</tspan></text><text class="cls-7" transform="translate(237.87 27.38)"><tspan class="cls-8">P</tspan><tspan x="9.44" y="0">e</tspan><tspan class="cls-9" x="17.78" y="0">r</tspan><tspan x="23.52" y="0">ma</tspan><tspan class="cls-10" x="45.27" y="0">n</tspan><tspan x="54.42" y="0">ent Suppo</tspan><tspan class="cls-11" x="125.54" y="0">r</tspan><tspan x="131.49" y="0">ti</tspan><tspan class="cls-12" x="141.37" y="0">v</tspan><tspan x="149.24" y="0">e Housi</tspan><tspan class="cls-13" x="200.68" y="0">n</tspan><tspan x="209.83" y="0">g</tspan><tspan class="cls-14"><tspan x="0" y="15.6">with routine home visits </tspan><tspan x="0" y="31.2">&amp; </tspan><tspan class="cls-15" x="11.81" y="31.2">c</tspan><tspan x="17.13" y="31.2">ase manageme</tspan><tspan class="cls-16" x="97.74" y="31.2">n</tspan><tspan class="cls-17" x="104.3" y="31.2">t</tspan></tspan></text><text class="cls-7" transform="translate(172.5 175.1)"><tspan class="cls-8">P</tspan><tspan x="9.44" y="0">e</tspan><tspan class="cls-9" x="17.78" y="0">r</tspan><tspan x="23.52" y="0">ma</tspan><tspan class="cls-10" x="45.27" y="0">n</tspan><tspan x="54.42" y="0">ent Suppo</tspan><tspan class="cls-11" x="125.54" y="0">r</tspan><tspan x="131.49" y="0">ti</tspan><tspan class="cls-12" x="141.37" y="0">v</tspan><tspan x="149.24" y="0">e Housi</tspan><tspan class="cls-13" x="200.68" y="0">n</tspan><tspan x="209.83" y="0">g</tspan><tspan class="cls-14"><tspan x="0" y="15.6">with less freque</tspan><tspan class="cls-18" x="82.71" y="15.6">n</tspan><tspan class="cls-17" x="89.27" y="15.6">t </tspan><tspan x="0" y="31.2">se</tspan><tspan class="cls-19" x="11.27" y="31.2">r</tspan><tspan x="15.84" y="31.2">vi</tspan><tspan class="cls-20" x="24.62" y="31.2">c</tspan><tspan x="29.95" y="31.2">es</tspan></tspan></text><text class="cls-21" transform="translate(197.14 240.41)"><tspan class="cls-22">R</tspan><tspan class="cls-23" x="8.82" y="0">apid R</tspan><tspan class="cls-24" x="49.2" y="0">e</tspan><tspan class="cls-23" x="57.02" y="0">-</tspan><tspan class="cls-25" x="61.68" y="0">h</tspan><tspan x="70.13" y="0">ousi</tspan><tspan class="cls-25" x="96.74" y="0">n</tspan><tspan x="105.19" y="0">g</tspan><tspan class="cls-26" x="113.65" y="0"> </tspan><tspan class="cls-14"><tspan x="0" y="14.4">additional support </tspan><tspan class="cls-27" x="92.1" y="14.4">f</tspan><tspan x="95.61" y="14.4">or clie</tspan><tspan class="cls-18" x="124.83" y="14.4">n</tspan><tspan x="130.88" y="14.4">ts</tspan></tspan></text><text class="cls-28" transform="translate(149.29 125.78) scale(0.96 1)">Y<tspan class="cls-29" x="5.95" y="0">r 2</tspan></text><path class="cls-30" d="M112.42,38.53c-.07.89-.13,1.78-.19,2.66a1,1,0,0,1-.5.82,73.66,73.66,0,0,0-3.56,12.78c-.32,1.65-.72,3.66-2.45,4-4.41.79-4,3.79-3.67,6.9.5,3.36-2,4.46-4.35,5.44-5.39,2.28-17-1.82-20-6.89a2.73,2.73,0,0,1-.41-2.32c-.3-5.82.78-11.59.68-17.4,0-2-1.58-2.81-2.78-3.93a5.84,5.84,0,0,1-1-3.56c0-.95,0-1.89,0-2.83.3-2.56,1.67-4.07,4.31-4.15s4,1.52,4.79,3.83c.18.55.31,1.13.51,1.67.12.33.29.78.65.71.58-.12.51-.7.41-1.11A26.88,26.88,0,0,1,84,28.56c.09-6.43,2.51-9.22,8.87-9.84a41.48,41.48,0,0,1,9.45,0c3.1.41,6.29,1,7.94,4.27.8,1.94,1.76,3.85,1.31,6.06-1.82,1-3.94.14-5.79.93-1.46.88,0,1.91-.15,2.85-.36,1.34-1.51,2-2.38,2.94a2.33,2.33,0,0,0-.38,2.59,12.14,12.14,0,0,1,1,3.15c.91-1.33-.57-2-.88-3a2.62,2.62,0,0,1,.68-3.12c1.8-.41,3.57.22,5.36.07C111.1,35.49,112.44,36.26,112.42,38.53Z"/><path class="cls-31" d="M77.31,61.9c4.19,6.85,10.79,9,18.25,8.85a6.84,6.84,0,0,0,6.49-5.08c5.45,2.12,10.84,4.37,16.06,7,.32.16.65.28,1,.42,1.41.61,2.56,1.67,2.18,3.19s-2,.83-3.06.83q-21.76.07-43.53.06c-6.55,0-13.1,0-19.65,0-1,0-2.5.49-2.78-.7a3.23,3.23,0,0,1,1.59-3.57c1.83-1,3.65-2.11,5.56-3C65.34,67.2,71.33,64.57,77.31,61.9Z"/><path class="cls-32" d="M75,37.13c.58,1-.13,2.44,1.19,3.14.13,1.14-.31,1.54-1.4,1.08A6.48,6.48,0,0,1,73,38.47a.51.51,0,0,1-.25-.49c-.39-.79-.79-1.57-1.18-2.35a1.48,1.48,0,0,0-.49-.44c-2.52-3.09-2.83-6.41-2.4-10.42C69.15,19.93,72.18,17.14,75,14a9.13,9.13,0,0,1,5.28-2.51,42,42,0,0,1,6.17-.91c6-.2,12.21-2.12,18.14,1.1,4.66,2.54,6,6.45,5.69,11.32C103.49,18,96,18.83,88.5,20.7c-2.34.58-3.1,2.76-3.44,4.89a16.09,16.09,0,0,0,1,9.61c.66,1.4.54,2.46-1.13,3-1.1.36-1.83.29-1.92-1.08A10.36,10.36,0,0,0,82.8,35c-.57-2-1-4.3-3.69-4.48s-3.69,1.59-4.22,3.83A7.94,7.94,0,0,0,75,37.13Z"/><path class="cls-33" d="M74.75,41.35a1.57,1.57,0,0,0,1.4-1.08C76.94,41.6,79.81,42,78,44.5A14.67,14.67,0,0,1,74.75,41.35Z"/><path class="cls-34" d="M111.73,42l.5-.82A.65.65,0,0,1,111.73,42Z"/><path class="cls-35" d="M72.71,38c.33,0,.39.21.25.49C72.62,38.44,72.53,38.28,72.71,38Z"/><path class="cls-35" d="M71,35.19c.31,0,.52.08.49.44C71.14,35.73,71,35.56,71,35.19Z"/><path class="cls-36" d="M96.28,59.6c-4.37,0-9.23-3.91-9.78-8-.06-.42-.2-.93.28-1.17.1-.05.51.39.68.67a15.57,15.57,0,0,0,9.84,7.21c.27.07.71.45.67.59C97.73,59.85,96.91,59.51,96.28,59.6Z"/><path class="cls-33" d="M75,37.13a2,2,0,0,1-.07-2.75C74.91,35.3,74.94,36.21,75,37.13Z"/><ellipse class="cls-30" cx="107.41" cy="35.19" rx="5.01" ry="12.55"/><path class="cls-37" d="M61.66,23.6c2.53,5.23,3.66,10.64,2,16.39-1.17,1.1-2.45.35-3.65.13-2.15-.39-3.81.15-4.89,2.1-.32.82-.15,1.38.82,1.52a13.4,13.4,0,0,0,2.83-.22,6.63,6.63,0,0,0,3.26-1.4c.55-.14,1.07-.16,1.38.43,1.25,10.11-5.28,15.81-12.12,21.33a3,3,0,0,1-2.61.58c-3.41-.86-4.22.85-3.89,3.79-4.1,2-6.86,1.52-9.33-1.79a6,6,0,0,1,.34-3,5.57,5.57,0,0,0-1.79-6.26c-1.73-1.44-2.62-3.5-3.5-5.54-.35-.83-.39-1.93-2.08-1.5-4.4,1.1-6.82-.76-7.46-5.42a9.67,9.67,0,0,1,.09-1.93c.49-3.5,1.5-4.58,4.68-3.77,2.94.75,4-.56,5-2.86,1.23-3,2.41-6.05,3.34-9.19,2.28-7.68,7.78-11.06,15.72-9.63A19.76,19.76,0,0,1,61.66,23.6Z"/><path class="cls-32" d="M61.66,23.6c-3.6-1.7-6.72-4.3-10.84-5.07a19.84,19.84,0,0,0-12.13,1.75C37,21,36.55,22.4,36.11,23.91a90.39,90.39,0,0,1-5.66,15.36C29.58,41,29,41.51,27,40.35c-3-1.76-4.15-1.08-5.93,2.42l-.93-1a1.62,1.62,0,0,0-.5-.89c-.08-.23-.16-.47-.23-.7a7.32,7.32,0,0,1-.58-2.43,22.19,22.19,0,0,1,0-7.09,8.51,8.51,0,0,1,.47-2.45l.27-1.48A3.61,3.61,0,0,1,20.2,25a8.47,8.47,0,0,1,2.31-4.53c-.57-1.66-1.45-.24-2.19-.22-2.9,2.84-4.1,6.45-4.73,10.33-1.33,8.06-.79,15.92,2.92,23.32,1.37,2.73.06,2.86-2,2.57a12.29,12.29,0,0,1-8.85-5.86C2,41.89,3.06,28.33,10,20.55c3.53-4,7.86-6.08,13.27-4.94a6.87,6.87,0,0,0,4.47-.81c8.76-3.88,17.64-4.73,26.53-.53C58.15,16.11,61.22,18.87,61.66,23.6Z"/><path class="cls-38" d="M35.5,66.46c2.76,2.42,6.07,2,9.33,1.79,3.93,2,7.84,4.12,11.78,6.13,1,.51,2,1.18,1.71,2.31s-1.5.76-2.35.76q-17.41,0-34.82,0c-1,0-2.23.42-2.67-1-.37-1.16.46-2,1.15-2.75,1.94-2.07,4.61-2.9,7.12-4C29.63,68.58,32.58,67.56,35.5,66.46Z"/><path class="cls-39" d="M20.32,20.26A6,6,0,0,1,21.67,19c.7-.35,1.57-1.51,2.23-.46.34.54-.41,1.65-1.39,2Z"/><path class="cls-39" d="M18.86,37.71a2.22,2.22,0,0,1,.58,2.43C18.67,39.47,18.15,38.73,18.86,37.71Z"/><path class="cls-39" d="M19.37,28.17a2.18,2.18,0,0,1-.47,2.45C18.2,29.64,18.62,28.87,19.37,28.17Z"/><path class="cls-39" d="M20.2,25a1.26,1.26,0,0,1-.56,1.68C18.91,25.83,19.39,25.36,20.2,25Z"/><path class="cls-39" d="M19.67,40.84a.62.62,0,0,1,.5.89A.62.62,0,0,1,19.67,40.84Z"/><path class="cls-40" d="M43.94,64.18c0,.12,0,.32-.1.36-1.66.83-3-.14-4.2-1s-2.88-1-2.61-3c0-.14.44-.39.55-.33q3.14,1.53,6.21,3.17C43.93,63.52,43.9,63.93,43.94,64.18Z"/><ellipse class="cls-37" cx="59.33" cy="38.92" rx="5.6" ry="14.03"/></g><g id="Layer_4" data-name="Layer 4"><circle class="cls-41" cx="273.16" cy="277.59" r="11.63"/><path class="cls-42" d="M276.88,272.14l1.88,1.92.81.83v2.25c0,.63,0,1.25,0,1.87l-5.23,0v-4.41l.11-.12,1.77-1.7s.32-.31.67-.66m0-2.08c-.49.54-1.68,1.69-1.68,1.69l-.05-1.06h-1v.62l-.07,1.45-2.93,3.05.77.81.95-.86s0,3.14,0,4.73l8.16,0c0-1.58,0-3.14,0-4.79.35.33.62.59.92.86l.63-.66c-1.91-1.9-3.68-3.8-5.71-5.81Z"/><path class="cls-42" d="M270.59,285.64a6.14,6.14,0,0,1-5-9.62,6.37,6.37,0,0,1,.79-.93l1,1.05a5.09,5.09,0,0,0-.61.71,4.67,4.67,0,1,0,7.68,5.31l1.2.83a6.05,6.05,0,0,1-3.94,2.54A6,6,0,0,1,270.59,285.64Z"/><polygon class="cls-42" points="267.42 277.45 269.03 274.35 265.54 274.5 267.42 277.45"/><circle class="cls-41" cx="209.01" cy="277.59" r="11.63"/><path class="cls-42" d="M212.73,272.14l1.88,1.92.81.83v2.25c0,.63,0,1.25,0,1.87l-5.23,0v-4.41l.11-.12,1.77-1.7s.32-.31.67-.66m0-2.08c-.49.54-1.68,1.69-1.68,1.69l0-1.06h-1v.62l-.07,1.45L207,275.81l.77.81.95-.86s0,3.14,0,4.73l8.15,0c0-1.58,0-3.14,0-4.79.35.33.62.59.92.86.25-.25.45-.47.63-.66-1.91-1.9-3.68-3.8-5.71-5.81Z"/><path class="cls-42" d="M207.5,285.4a6,6,0,0,1-4.88-9.33,6.09,6.09,0,0,1,.77-.9l1,1a3.91,3.91,0,0,0-.59.69,4.53,4.53,0,0,0,7.45,5.15l1.16.8a5.91,5.91,0,0,1-3.82,2.47A6.57,6.57,0,0,1,207.5,285.4Z"/><polygon class="cls-42" points="204.43 277.45 205.99 274.44 202.6 274.59 204.43 277.45"/></g><g id="Layer_5" data-name="Layer 5"><circle class="cls-43" cx="204.41" cy="133.01" r="11.85"/><path class="cls-42" d="M204.34,125.2c1.31,1.32,2.57,2.62,3.8,3.88l1.62,1.67v4.07c0,1.39,0,2.75,0,4.12l-10.61,0,0-6.42v-2.27l1.05-1.09v0l2.37-2.28c.05-.06.95-.92,1.78-1.76m0-2.12c-.83.9-2.81,2.81-2.81,2.81l-.08-1.76h-1.65v1l-.11,2.4-4.88,5.09,1.28,1.35,1.57-1.44s0,5.24,0,7.9l13.59-.05c0-2.65,0-5.24,0-8l1.53,1.43,1.06-1.09c-3.19-3.18-6.14-6.34-9.51-9.69Z"/><circle class="cls-42" cx="204.4" cy="129.56" r="0.97"/><path class="cls-42" d="M204.9,130.79h-1a.68.68,0,0,0-.73.6v1.12a.38.38,0,0,0,.33.35l.07,0c.09,0,.16.09.16.17V135a.35.35,0,0,0,.37.3h.61a.34.34,0,0,0,.37-.3v-1.93c0-.08.07-.14.16-.17h.08a.4.4,0,0,0,.33-.36V131.4A.71.71,0,0,0,204.9,130.79Z"/><rect class="cls-42" x="199.98" y="136.55" width="8.85" height="1.49"/><circle class="cls-43" cx="394.26" cy="133.01" r="11.85"/><path class="cls-42" d="M394.19,125.2c1.32,1.32,2.58,2.62,3.8,3.88l1.62,1.67v4.07c0,1.39,0,2.75,0,4.12L389,139l0-6.42v-2.27L390,129.2v0l2.36-2.28c0-.06.95-.92,1.78-1.76m0-2.12c-.83.9-2.81,2.81-2.81,2.81l-.08-1.76h-1.65v1l-.11,2.4-4.88,5.09,1.28,1.35,1.57-1.44s0,5.24,0,7.9l13.58-.05c0-2.65,0-5.24,0-8l1.53,1.43,1.07-1.09c-3.2-3.18-6.15-6.34-9.52-9.69Z"/><circle class="cls-42" cx="394.25" cy="129.56" r="0.97"/><path class="cls-42" d="M394.75,130.79h-1a.68.68,0,0,0-.73.6v1.12a.38.38,0,0,0,.33.35l.07,0c.09,0,.16.09.16.17V135a.35.35,0,0,0,.37.3h.61a.34.34,0,0,0,.37-.3v-1.93c0-.08.07-.14.17-.17h.07a.39.39,0,0,0,.33-.36V131.4A.71.71,0,0,0,394.75,130.79Z"/><rect class="cls-42" x="389.83" y="136.55" width="8.85" height="1.49"/><circle class="cls-43" cx="333.87" cy="131.77" r="11.85"/><path class="cls-42" d="M333.8,124c1.31,1.32,2.57,2.62,3.8,3.88l1.62,1.67v4.07c0,1.39,0,2.75,0,4.12l-10.61,0,0-6.41v-2.28l1-1.09v0l2.37-2.28c.05,0,1-.92,1.78-1.76m0-2.12c-.83.9-2.81,2.81-2.81,2.81l-.08-1.76h-1.65v1l-.11,2.4-4.88,5.09,1.28,1.35,1.57-1.44s0,5.24,0,7.9l13.59,0c0-2.65,0-5.23,0-8l1.53,1.43,1.06-1.09c-3.19-3.18-6.14-6.33-9.51-9.69Z"/><circle class="cls-42" cx="333.86" cy="128.32" r="0.97"/><path class="cls-42" d="M334.36,129.55h-1a.68.68,0,0,0-.73.6v1.12a.38.38,0,0,0,.33.35l.07,0c.09,0,.16.09.16.17v1.93a.35.35,0,0,0,.37.31h.61a.35.35,0,0,0,.37-.31v-1.93c0-.08.07-.14.16-.17h.08a.39.39,0,0,0,.33-.36v-1.11A.71.71,0,0,0,334.36,129.55Z"/><rect class="cls-42" x="329.44" y="135.31" width="8.85" height="1.49"/><circle class="cls-43" cx="270.06" cy="131.77" r="11.85"/><path class="cls-42" d="M270,124c1.31,1.32,2.57,2.62,3.8,3.88l1.62,1.67v4.07c0,1.39,0,2.75,0,4.12l-10.62,0,0-6.41v-2.28l1-1.09v0l2.37-2.28L270,124m0-2.12c-.82.9-2.8,2.81-2.8,2.81l-.08-1.76h-1.65v1l-.11,2.4-4.88,5.09,1.28,1.35,1.57-1.44s0,5.24,0,7.9l13.59,0c0-2.65,0-5.23,0-8l1.53,1.43,1.06-1.09c-3.19-3.18-6.14-6.33-9.52-9.69Z"/><circle class="cls-42" cx="270.05" cy="128.32" r="0.97"/><path class="cls-42" d="M270.55,129.55h-1a.67.67,0,0,0-.72.6v1.12a.38.38,0,0,0,.33.35l.07,0c.09,0,.16.09.16.17v1.93a.35.35,0,0,0,.37.31h.61a.35.35,0,0,0,.37-.31v-1.93c0-.08.06-.14.16-.17H271a.39.39,0,0,0,.33-.36v-1.11A.71.71,0,0,0,270.55,129.55Z"/><rect class="cls-42" x="265.63" y="135.31" width="8.85" height="1.49"/><circle class="cls-43" cx="394.26" cy="60.01" r="11.85"/><path class="cls-42" d="M394.19,52.2c1.32,1.32,2.58,2.62,3.8,3.88l1.62,1.67v4.07c0,1.39,0,2.75,0,4.12L389,66l0-6.42V57.29L390,56.2v0L392.41,54c0-.06.95-.92,1.78-1.76m0-2.12c-.83.9-2.81,2.81-2.81,2.81l-.08-1.76h-1.65v1l-.11,2.4-4.88,5.09L385.94,61l1.57-1.44s0,5.24,0,7.9l13.58,0c0-2.65,0-5.24,0-8l1.53,1.43,1.07-1.09c-3.2-3.18-6.15-6.34-9.52-9.69Z"/><circle class="cls-42" cx="394.25" cy="56.56" r="0.97"/><path class="cls-42" d="M394.75,57.79h-1a.68.68,0,0,0-.73.6v1.12a.38.38,0,0,0,.33.35l.07,0c.09,0,.16.09.16.17V62a.35.35,0,0,0,.37.3h.61a.34.34,0,0,0,.37-.3V60.05c0-.08.07-.14.17-.17h.07a.39.39,0,0,0,.33-.36V58.4A.71.71,0,0,0,394.75,57.79Z"/><rect class="cls-42" x="389.83" y="63.55" width="8.85" height="1.49"/><circle class="cls-43" cx="271.41" cy="206.01" r="11.85"/><path class="cls-42" d="M271.34,198.2c1.31,1.32,2.57,2.62,3.8,3.88l1.62,1.67v4.07c0,1.39,0,2.75,0,4.12l-10.61,0,0-6.42v-2.27l1.05-1.09v0l2.37-2.28c.05-.06.95-.92,1.78-1.76m0-2.12c-.83.9-2.81,2.81-2.81,2.81l-.08-1.76h-1.65v1l-.11,2.4-4.88,5.09,1.28,1.35,1.57-1.44s0,5.24,0,7.9l13.59-.05c0-2.65,0-5.24,0-8l1.53,1.43,1.06-1.09c-3.19-3.18-6.14-6.34-9.51-9.69Z"/><circle class="cls-42" cx="271.4" cy="202.56" r="0.97"/><path class="cls-42" d="M271.9,203.79h-1a.68.68,0,0,0-.73.6v1.12a.38.38,0,0,0,.33.35l.07,0c.09,0,.16.09.16.17V208a.35.35,0,0,0,.37.3h.61a.34.34,0,0,0,.37-.3v-1.93c0-.08.07-.14.16-.17h.08a.4.4,0,0,0,.33-.36V204.4A.71.71,0,0,0,271.9,203.79Z"/><rect class="cls-42" x="266.98" y="209.55" width="8.85" height="1.49"/><circle class="cls-43" cx="394.26" cy="206.01" r="11.85"/><path class="cls-42" d="M394.19,198.2c1.32,1.32,2.58,2.62,3.8,3.88l1.62,1.67v4.07c0,1.39,0,2.75,0,4.12L389,212l0-6.42v-2.27L390,202.2v0l2.36-2.28c0-.06.95-.92,1.78-1.76m0-2.12c-.83.9-2.81,2.81-2.81,2.81l-.08-1.76h-1.65v1l-.11,2.4-4.88,5.09,1.28,1.35,1.57-1.44s0,5.24,0,7.9l13.58-.05c0-2.65,0-5.24,0-8l1.53,1.43,1.07-1.09c-3.2-3.18-6.15-6.34-9.52-9.69Z"/><circle class="cls-42" cx="394.25" cy="202.56" r="0.97"/><path class="cls-42" d="M394.75,203.79h-1a.68.68,0,0,0-.73.6v1.12a.38.38,0,0,0,.33.35l.07,0c.09,0,.16.09.16.17V208a.35.35,0,0,0,.37.3h.61a.34.34,0,0,0,.37-.3v-1.93c0-.08.07-.14.17-.17h.07a.39.39,0,0,0,.33-.36V204.4A.71.71,0,0,0,394.75,203.79Z"/><rect class="cls-42" x="389.83" y="209.55" width="8.85" height="1.49"/><circle class="cls-43" cx="394.26" cy="278.48" r="11.85"/><path class="cls-42" d="M394.19,270.66c1.32,1.32,2.58,2.62,3.8,3.89l1.62,1.66v4.07c0,1.39,0,2.75,0,4.12l-10.61,0,0-6.41v-2.27l1.05-1.1v0l2.36-2.29c0-.05.95-.92,1.78-1.76m0-2.12c-.83.9-2.81,2.81-2.81,2.81l-.08-1.76h-1.65v1l-.11,2.41-4.88,5.08,1.28,1.35,1.57-1.44s0,5.25,0,7.9l13.58-.05c0-2.64,0-5.23,0-8,.59.54,1,1,1.53,1.43l1.07-1.1c-3.2-3.18-6.15-6.33-9.52-9.69Z"/><circle class="cls-42" cx="394.25" cy="275.03" r="0.97"/><path class="cls-42" d="M394.75,276.26h-1a.67.67,0,0,0-.73.6V278a.38.38,0,0,0,.33.35l.07,0a.19.19,0,0,1,.16.17v1.92a.35.35,0,0,0,.37.31h.61a.35.35,0,0,0,.37-.31v-1.92a.19.19,0,0,1,.17-.17l.07,0a.37.37,0,0,0,.33-.35v-1.12A.7.7,0,0,0,394.75,276.26Z"/><rect class="cls-42" x="389.83" y="282.01" width="8.85" height="1.49"/><circle class="cls-43" cx="202.7" cy="42.27" r="22.93"/><path class="cls-42" d="M202.57,27.16c2.54,2.55,5,5.07,7.35,7.51l3.13,3.22v3.27l0,4.61c0,2.68,0,5.32,0,8l-20.53.07-.05-12.4,0-4.4,2-2.11V35l4.57-4.42c.1-.1,1.83-1.78,3.45-3.4m0-4.11c-1.59,1.74-5.42,5.44-5.42,5.44l-.17-3.4h-3.19l0,2-.21,4.65-9.46,9.83,2.48,2.62,3.05-2.78s0,10.14.06,15.28L216,56.61c0-5.13,0-10.13-.06-15.46,1.13,1.06,2,1.88,3,2.77L221,41.8c-6.19-6.15-11.89-12.25-18.42-18.75Z"/><circle class="cls-42" cx="202.68" cy="35.6" r="1.88"/><path class="cls-42" d="M203.66,38h-1.95a1.31,1.31,0,0,0-1.41,1.16v2.15a.76.76,0,0,0,.64.69l.14,0a.39.39,0,0,1,.32.33v3.73a.66.66,0,0,0,.71.59h1.18a.66.66,0,0,0,.71-.59V42.35a.38.38,0,0,1,.32-.33l.14,0a.73.73,0,0,0,.64-.68V39.16A1.36,1.36,0,0,0,203.66,38Z"/><rect class="cls-42" x="194.14" y="49.11" width="17.12" height="2.88"/></g></svg>