<?xml version="1.0" encoding="utf-8"?>
<!-- Generator: Adobe Illustrator 24.3.0, SVG Export Plug-In . SVG Version: 6.00 Build 0)  -->
<svg version="1.1" xmlns="http://www.w3.org/2000/svg" xmlns:xlink="http://www.w3.org/1999/xlink" x="0px" y="0px"
	 viewBox="0 0 166.5 153.4" style="enable-background:new 0 0 166.5 153.4;" xml:space="preserve">
<style type="text/css">
	.st0{fill:#5383C3;}
	.st1{fill:#FFFFFF;}
	.st2{fill:none;stroke:#FFFFFF;stroke-width:5;stroke-miterlimit:10;}
	.st3{fill:#2C2B7C;}
	.st4{fill:#244BA0;}
</style>
<g id="Layer_1">
	<g id="Layer_4">
		<circle class="st0" cx="39.8" cy="113.5" r="39.8"/>
		<path class="st1" d="M52.6,94.9c2.2,2.2,4.3,4.4,6.4,6.6l2.8,2.9v7.6c0,2.2,0,4.3,0,6.5l-17.9,0.1v-11.2v-3.9l0.4-0.4l6-5.8
			C50.3,97.1,51.3,96.1,52.6,94.9 M52.5,87.8c-1.7,1.8-5.8,5.8-5.8,5.8l-0.2-3.6h-3.4V92L43,97l-10,10.5l2.6,2.8l3.2-2.9
			c0,0,0,10.8,0.1,16.2l27.9-0.1c0-5.4,0-10.8-0.1-16.4l3.1,2.9l2.2-2.2C65.5,101.2,59.5,94.7,52.5,87.8L52.5,87.8z"/>
		<path class="st2" d="M46.2,130.6c-5.5,8.6-17,11.1-25.5,5.5c-8.6-5.5-11.1-17-5.5-25.5c0.2-0.3,0.5-0.7,0.7-1c0.7-1,1.5-2,2.4-2.8
			"/>
		<polygon class="st1" points="20.2,113.1 25.7,102.4 13.7,103 		"/>
	</g>
	<g id="Layer_5">
		<circle class="st3" cx="126.6" cy="113.1" r="39.8"/>
		<path class="st1" d="M126.4,86.8c4.4,4.4,8.6,8.8,12.8,13.1l5.4,5.6v5.7v8c0,4.7,0,9.3,0,13.8l-35.7,0.1l-0.1-21.5v-7.6l3.6-3.7
			v0.1l7.9-7.7C120.6,92.5,123.6,89.6,126.4,86.8 M126.4,79.7c-2.8,3-9.4,9.4-9.4,9.4l-0.3-5.9h-5.5v3.5l-0.3,8.1l-16.4,17.1
			l4.3,4.6l5.3-4.8c0,0,0.1,17.6,0.1,26.5l45.7-0.2c0-8.9-0.1-17.6-0.1-26.8l5.2,4.8l3.5-3.7C147.6,101.6,137.7,91,126.4,79.7
			L126.4,79.7z"/>
		<circle class="st1" cx="126.6" cy="99.5" r="5.3"/>
		<path class="st1" d="M129.3,106.2h-5.5c-2.2,0-4,1.5-4,3.3v6.1c0.1,1,0.8,1.8,1.8,1.9l0.4,0.1c0.5,0.1,0.8,0.5,0.9,0.9V129
			c0.1,1,1,1.7,2,1.7h3.3c1,0.1,1.9-0.7,2-1.7v-10.5c0-0.5,0.4-0.9,0.9-0.9l0.4-0.1c1-0.1,1.7-0.9,1.8-1.9v-6.1
			C133,107.6,131.3,106.2,129.3,106.2z"/>
	</g>
	<g id="Layer_5_1_">
		<circle class="st4" cx="83.2" cy="39.8" r="39.8"/>
		<path class="st1" d="M83,13.6c4.4,4.4,8.6,8.8,12.8,13.1l5.4,5.6v5.7v8c0,4.7,0,9.2,0,13.9l-35.7,0.1l-0.1-21.5v-7.6l3.6-3.7v0.1
			l7.9-7.7C77.2,19.3,80.2,16.4,83,13.6 M82.9,6.4c-2.8,3-9.4,9.4-9.4,9.4L73.3,10h-5.5v3.5l-0.3,8.1L51,38.6l4.3,4.5l5.3-4.8
			c0,0,0.1,17.6,0.1,26.5l45.7-0.2c0-8.9-0.1-17.6-0.1-26.8l5.2,4.8l3.5-3.7C104.2,28.3,94.3,17.7,82.9,6.4L82.9,6.4z"/>
		<circle class="st1" cx="83.2" cy="28.2" r="3.3"/>
		<path class="st1" d="M84.9,32.4h-3.4c-1.2-0.1-2.3,0.8-2.5,2v3.7c0,0.6,0.5,1.1,1.1,1.2l0.2,0.1c0.3,0,0.5,0.3,0.5,0.6v6.5
			c0.1,0.6,0.6,1,1.2,1h2.1c0.6,0,1.2-0.4,1.2-1V40c0-0.3,0.2-0.5,0.5-0.6h0.2c0.6-0.1,1.1-0.6,1.1-1.3v-3.7
			C87.2,33.2,86.1,32.3,84.9,32.4z"/>
		<line class="st2" x1="68.4" y1="54.2" x2="98.1" y2="54.2"/>
	</g>
</g>
<g id="Layer_2">
</g>
</svg>
