<svg xmlns="http://www.w3.org/2000/svg" viewBox="0 0 79.66 79.66"><defs><style>.cls-1{fill:#244ba0;}.cls-2{fill:#fff;}.cls-3{fill:none;stroke:#fff;stroke-miterlimit:10;stroke-width:5px;}</style></defs><g id="Layer_5" data-name="Layer 5"><circle class="cls-1" cx="39.83" cy="39.83" r="39.83"/><path class="cls-2" d="M39.61,13.57C44,18,48.25,22.38,52.38,26.63l5.43,5.59,0,5.69,0,8c0,4.67,0,9.25,0,13.85l-35.67.12-.08-21.54,0-7.64L25.66,27v.14l7.94-7.67c.18-.18,3.19-3.09,6-5.92m-.06-7.13c-2.76,3-9.42,9.45-9.42,9.45L29.85,10H24.31l0,3.48L24,21.55,7.56,38.63l4.31,4.55,5.29-4.83s.07,17.61.1,26.54l45.67-.16c0-8.9-.07-17.59-.1-26.84L68,42.69,71.54,39C60.8,28.32,50.9,17.73,39.55,6.44Z"/><circle class="cls-2" cx="39.8" cy="28.23" r="3.26"/><path class="cls-2" d="M41.49,32.37H38.11a2.28,2.28,0,0,0-2.45,2v3.74a1.31,1.31,0,0,0,1.12,1.19l.24.08a.64.64,0,0,1,.54.57v6.48a1.16,1.16,0,0,0,1.24,1h2.06a1.16,1.16,0,0,0,1.24-1V40a.61.61,0,0,1,.54-.57l.24,0A1.29,1.29,0,0,0,44,38.15V34.42A2.38,2.38,0,0,0,41.49,32.37Z"/><line class="cls-3" x1="24.96" y1="54.21" x2="54.7" y2="54.21"/></g></svg>