<svg xmlns="http://www.w3.org/2000/svg" viewBox="0 0 424.29 447.36"><defs><style>.cls-1,.cls-3{fill:none;stroke:#444545;stroke-miterlimit:10;stroke-width:0.7px;}.cls-2{fill:#444545;}.cls-3{stroke-dasharray:2.94 2.94;}.cls-32,.cls-4{font-size:14px;font-family:Calibri-Light, Calibri;font-weight:300;}.cls-13,.cls-32,.cls-4{fill:#231f20;}.cls-5{letter-spacing:-0.04em;}.cls-17,.cls-26,.cls-6{font-size:13px;font-family:Montserrat-ExtraBold, Montserrat;font-weight:800;}.cls-39,.cls-6{fill:#db7027;}.cls-7{letter-spacing:0.01em;}.cls-8{letter-spacing:-0.01em;}.cls-9{letter-spacing:-0.01em;}.cls-10{letter-spacing:0em;}.cls-11{letter-spacing:0.05em;}.cls-12{letter-spacing:-0.02em;}.cls-13{font-family:Calibri-Italic, Calibri;font-weight:400;font-style:italic;}.cls-14{letter-spacing:-0.01em;}.cls-15{letter-spacing:0.01em;}.cls-16{letter-spacing:-0.01em;}.cls-17,.cls-43{fill:#244ba0;}.cls-18{letter-spacing:-0.01em;}.cls-19{letter-spacing:0em;}.cls-20{letter-spacing:0.01em;}.cls-21{letter-spacing:0.02em;}.cls-22{letter-spacing:-0.01em;}.cls-23{letter-spacing:-0.01em;}.cls-24{letter-spacing:-0.01em;}.cls-25{letter-spacing:0em;}.cls-26,.cls-42{fill:#5383c3;}.cls-27{letter-spacing:-0.01em;}.cls-28{letter-spacing:0.01em;}.cls-29{letter-spacing:-0.01em;}.cls-30{letter-spacing:0.01em;}.cls-31{letter-spacing:-0.01em;}.cls-32{letter-spacing:-0.04em;}.cls-33{letter-spacing:0em;}.cls-34{letter-spacing:-0.04em;}.cls-35{fill:#884723;}.cls-36{fill:#edac5f;}.cls-37{fill:#3373b6;}.cls-38{opacity:0.8;}.cls-40,.cls-41{fill:#fff;}.cls-41{fill-rule:evenodd;}</style></defs><g id="Layer_6" data-name="Layer 6"><line class="cls-1" x1="281.77" y1="369.66" x2="281.77" y2="363.75"/><line class="cls-1" x1="216.75" y1="369.66" x2="216.75" y2="363.75"/><line class="cls-1" x1="152.07" y1="369.66" x2="152.07" y2="363.75"/><line class="cls-1" x1="344.27" y1="369.66" x2="344.27" y2="363.75"/><line class="cls-1" x1="114.01" y1="78.64" x2="382.22" y2="78.64"/><polygon class="cls-2" points="114.44 78.12 111.89 73.7 110.69 73.7 113.24 78.12 112.05 78.12 109.5 73.7 108.31 73.7 110.86 78.12 109.66 78.12 107.11 73.7 105.92 73.7 108.47 78.12 107.24 78.12 107.24 79.16 108.47 79.16 105.92 83.58 107.11 83.58 109.66 79.16 110.86 79.16 108.31 83.58 109.5 83.58 112.05 79.16 113.24 79.16 110.69 83.58 111.89 83.58 114.44 79.16 114.44 78.12"/><path class="cls-2" d="M388.55,78.64a31.51,31.51,0,0,0-9,5l1.81-5-1.81-5A31.75,31.75,0,0,0,388.55,78.64Z"/><line class="cls-1" x1="112.25" y1="151.42" x2="388.55" y2="151.42"/><path class="cls-2" d="M105.92,151.42a31.51,31.51,0,0,1,9,5l-1.81-5,1.81-5A31.78,31.78,0,0,1,105.92,151.42Z"/><line class="cls-1" x1="105.92" y1="224.15" x2="382.22" y2="224.15"/><path class="cls-2" d="M388.55,224.15a31.51,31.51,0,0,0-9,5l1.81-5-1.81-5A31.78,31.78,0,0,0,388.55,224.15Z"/><path class="cls-1" d="M387.55,78.64A36.36,36.36,0,0,1,423.94,115"/><path class="cls-1" d="M423.94,115a36.37,36.37,0,0,1-30.07,35.84"/><path class="cls-2" d="M387.55,151.42a31.82,31.82,0,0,0,8.45-5.84l-1.31,5.14,2.28,4.8A31.63,31.63,0,0,0,387.55,151.42Z"/><path class="cls-1" d="M387.55,224.08a36.36,36.36,0,0,1,36.39,36.39"/><path class="cls-1" d="M423.94,260.47a36.38,36.38,0,0,1-30.07,35.84"/><path class="cls-2" d="M387.55,296.85A31.56,31.56,0,0,0,396,291l-1.31,5.14L397,301A31.9,31.9,0,0,0,387.55,296.85Z"/><path class="cls-1" d="M387.55,369.72a36.36,36.36,0,0,1,36.39,36.38"/><path class="cls-1" d="M423.94,406.1A36.38,36.38,0,0,1,393.87,442"/><path class="cls-2" d="M387.55,442.49a31.79,31.79,0,0,0,8.45-5.83l-1.31,5.14,2.28,4.79A32.15,32.15,0,0,0,387.55,442.49Z"/><path class="cls-1" d="M102.35,223.6a36.38,36.38,0,0,1-30.07-35.84"/><path class="cls-2" d="M108.67,224.15a31.82,31.82,0,0,1-8.45-5.84l1.32,5.14-2.28,4.8A31.57,31.57,0,0,1,108.67,224.15Z"/><path class="cls-1" d="M72.28,187.76a36.37,36.37,0,0,1,36.39-36.39"/><line class="cls-1" x1="394.85" y1="79.42" x2="394.85" y2="64.92"/><line class="cls-1" x1="394.85" y1="225.05" x2="394.85" y2="210.56"/><line class="cls-1" x1="394.85" y1="370.45" x2="394.85" y2="354.61"/><line class="cls-1" x1="146.73" y1="78.64" x2="146.73" y2="64.92"/><line class="cls-1" x1="219.54" y1="296.32" x2="219.54" y2="282.6"/><line class="cls-1" x1="279.01" y1="78.64" x2="279.01" y2="72.72"/><line class="cls-1" x1="338.52" y1="78.64" x2="338.52" y2="72.72"/><line class="cls-1" x1="338.52" y1="296.37" x2="338.52" y2="290.45"/><line class="cls-1" x1="155.02" y1="296.37" x2="155.02" y2="290.45"/><line class="cls-1" x1="146.73" y1="151.82" x2="146.73" y2="138.1"/><line class="cls-1" x1="344.26" y1="442.65" x2="344.26" y2="428.93"/><line class="cls-1" x1="338.52" y1="151.96" x2="338.52" y2="146.04"/><line class="cls-1" x1="96.42" y1="153.26" x2="96.42" y2="137.7"/><path class="cls-1" d="M102.4,369a36.36,36.36,0,0,1-30.07-35.84"/><path class="cls-2" d="M108.72,369.53a31.82,31.82,0,0,1-8.45-5.84l1.31,5.15-2.28,4.79A31.63,31.63,0,0,1,108.72,369.53Z"/><path class="cls-1" d="M72.33,333.14a36.37,36.37,0,0,1,36.39-36.39"/><line class="cls-1" x1="96.47" y1="298.64" x2="96.47" y2="283.08"/><line class="cls-1" x1="70.94" y1="78.64" x2="72.44" y2="78.64"/><line class="cls-3" x1="75.39" y1="78.64" x2="103.36" y2="78.64"/><line class="cls-1" x1="104.83" y1="78.64" x2="106.33" y2="78.64"/><line class="cls-1" x1="70.94" y1="442.49" x2="72.44" y2="442.49"/><line class="cls-3" x1="75.39" y1="442.49" x2="103.36" y2="442.49"/><line class="cls-1" x1="104.83" y1="442.49" x2="106.33" y2="442.49"/><line class="cls-1" x1="155.51" y1="224.15" x2="155.51" y2="218.23"/><line class="cls-1" x1="221.51" y1="224.15" x2="221.51" y2="218.23"/><line class="cls-1" x1="285.51" y1="224.15" x2="285.51" y2="218.23"/><line class="cls-1" x1="345.36" y1="224.15" x2="345.36" y2="218.23"/><line class="cls-1" x1="112.25" y1="296.79" x2="388.55" y2="296.79"/><path class="cls-2" d="M105.92,296.79a31.75,31.75,0,0,1,9,5l-1.81-5,1.81-5A31.75,31.75,0,0,1,105.92,296.79Z"/><line class="cls-1" x1="105.92" y1="369.53" x2="381.22" y2="369.53"/><path class="cls-2" d="M387.55,369.53a31.75,31.75,0,0,0-9,5l1.81-5-1.81-5A31.75,31.75,0,0,0,387.55,369.53Z"/><line class="cls-1" x1="216.75" y1="442.49" x2="216.75" y2="436.58"/><line class="cls-1" x1="152.07" y1="442.49" x2="152.07" y2="436.58"/><line class="cls-1" x1="112.25" y1="442.36" x2="387.55" y2="442.36"/><path class="cls-2" d="M105.92,442.36a31.78,31.78,0,0,1,9,5l-1.81-5,1.81-5A31.51,31.51,0,0,1,105.92,442.36Z"/></g><g id="Layer_1" data-name="Layer 1"><text class="cls-4" transform="translate(391.88 54)"><tspan class="cls-5">Y</tspan><tspan x="5.95" y="0">r 1</tspan></text><text class="cls-4" transform="translate(391.88 199.64)"><tspan class="cls-5">Y</tspan><tspan x="5.95" y="0">r 3</tspan></text><text class="cls-4" transform="translate(391.88 343.69)"><tspan class="cls-5">Y</tspan><tspan x="5.95" y="0">r 5</tspan></text><text class="cls-6" transform="translate(182.04 29.53)">E<tspan class="cls-7" x="8.74" y="0">m</tspan><tspan x="22.42" y="0">e</tspan><tspan class="cls-8" x="30.77" y="0">r</tspan><tspan x="36.44" y="0">ge</tspan><tspan class="cls-7" x="53.95" y="0">n</tspan><tspan class="cls-9" x="63.1" y="0">c</tspan><tspan class="cls-10" x="70.81" y="0">y s</tspan><tspan class="cls-7" x="89.76" y="0">h</tspan><tspan class="cls-10" x="98.92" y="0">e</tspan><tspan class="cls-11" x="107.26" y="0">l</tspan><tspan class="cls-12" x="112.03" y="0">t</tspan><tspan class="cls-10" x="117.64" y="0">er</tspan><tspan class="cls-13"><tspan class="cls-14" x="0" y="15.6">e</tspan><tspan x="6.13" y="15.6">ve</tspan><tspan class="cls-15" x="18.13" y="15.6">r</tspan><tspan x="22.65" y="15.6">y 1-3 days</tspan><tspan class="cls-16" x="0" y="31.2">f</tspan><tspan x="3.81" y="31.2">or 1 yr</tspan></tspan></text><text class="cls-6" transform="translate(254.85 247.21)">E<tspan class="cls-7" x="8.74" y="0">m</tspan><tspan x="22.42" y="0">e</tspan><tspan class="cls-8" x="30.77" y="0">r</tspan><tspan x="36.44" y="0">ge</tspan><tspan class="cls-7" x="53.95" y="0">n</tspan><tspan class="cls-9" x="63.1" y="0">c</tspan><tspan class="cls-10" x="70.81" y="0">y s</tspan><tspan class="cls-7" x="89.76" y="0">h</tspan><tspan class="cls-10" x="98.92" y="0">e</tspan><tspan class="cls-11" x="107.26" y="0">l</tspan><tspan class="cls-12" x="112.03" y="0">t</tspan><tspan class="cls-10" x="117.64" y="0">er</tspan><tspan class="cls-13"><tspan class="cls-14" x="0" y="15.6">e</tspan><tspan x="6.13" y="15.6">ve</tspan><tspan class="cls-15" x="18.13" y="15.6">r</tspan><tspan x="22.65" y="15.6">y 1-3 days</tspan><tspan class="cls-16" x="0" y="31.2">f</tspan><tspan x="3.81" y="31.2">or 2 yrs</tspan></tspan></text><text class="cls-17" transform="translate(182.04 97.71)"><tspan class="cls-18">P</tspan><tspan x="9.44" y="0">e</tspan><tspan class="cls-19" x="17.78" y="0">r</tspan><tspan x="23.52" y="0">ma</tspan><tspan class="cls-20" x="45.27" y="0">n</tspan><tspan x="54.42" y="0">ent Suppo</tspan><tspan class="cls-21" x="125.54" y="0">r</tspan><tspan x="131.49" y="0">ti</tspan><tspan class="cls-22" x="141.37" y="0">v</tspan><tspan x="149.24" y="0">e Housi</tspan><tspan class="cls-7" x="200.68" y="0">n</tspan><tspan x="209.83" y="0">g</tspan><tspan class="cls-13"><tspan x="0" y="15.6">with routine home visits </tspan><tspan x="0" y="31.2">&amp; </tspan><tspan class="cls-23" x="11.81" y="31.2">c</tspan><tspan x="17.13" y="31.2">ase manageme</tspan><tspan class="cls-24" x="97.74" y="31.2">n</tspan><tspan class="cls-25" x="104.3" y="31.2">t</tspan><tspan class="cls-16" x="0" y="46.8">f</tspan><tspan x="3.81" y="46.8">or 2 yrs</tspan></tspan></text><text class="cls-26" transform="translate(189.11 395.91)"><tspan class="cls-27">R</tspan><tspan x="9.55" y="0">apid R</tspan><tspan class="cls-28" x="53.3" y="0">e</tspan><tspan x="61.78" y="0">-Housi</tspan><tspan class="cls-7" x="106.13" y="0">n</tspan><tspan x="115.28" y="0">g</tspan><tspan class="cls-13"><tspan x="58.79" y="15.6">6 mo</tspan><tspan class="cls-29" x="85.28" y="15.6">n</tspan><tspan class="cls-10" x="91.83" y="15.6">ths of </tspan><tspan x="50.88" y="31.2">se</tspan><tspan class="cls-30" x="62.15" y="31.2">r</tspan><tspan x="66.73" y="31.2">vi</tspan><tspan class="cls-14" x="75.51" y="31.2">c</tspan><tspan x="80.83" y="31.2">es, </tspan><tspan class="cls-31" x="98.28" y="31.2">c</tspan><tspan class="cls-25" x="103.58" y="31.2">o</tspan><tspan class="cls-24" x="110.25" y="31.2">n</tspan><tspan x="116.81" y="31.2">t.</tspan></tspan></text><text class="cls-32" transform="translate(93.46 126.78) scale(0.96 1)">Y<tspan class="cls-33" x="5.95" y="0">r 2</tspan></text><text class="cls-4" transform="translate(93.5 272.16) scale(0.88 1)"><tspan class="cls-34">Y</tspan><tspan x="5.95" y="0">r 4</tspan></text><path class="cls-35" d="M54.69,35.12l-1-.28c-.85.3-1.25-.13-1.46-.88.68-1.31,2-.34,2.87-.72A2,2,0,0,1,54.69,35.12Z"/><circle class="cls-36" cx="36.14" cy="36.14" r="36.14"/><path class="cls-35" d="M22.32,63.21a100.35,100.35,0,0,0,1.41-15.76c0-1.79,0-3-2.32-3.87C17.47,42.11,15.72,36,17.47,31.7a19.29,19.29,0,0,1,1.27-2.25c4.39-1.19,5.7,2.36,7.6,5,.44.6.55,1.4,1.13,1.91.51-.7,0-1.41,0-2.12.13-4.09,1.15-8.07,1.71-12.1.43-3.12,3.47-3.94,6.38-4,5.34-.16,10.68,0,16,.1,1.59.08,1.28,1.56,1.74,2.43A16.33,16.33,0,0,1,55,31.13c-1.63,1.31-3.36.14-5,.2-.61,0-1.54-.18-1.65.43s.86.6,1.37.83a2.37,2.37,0,0,1,1.16.88c.72,1.21-3.57,2.65.17,3.71.3,0,.59,0,.88-.09a12.14,12.14,0,0,0,1.68-.42,1.74,1.74,0,0,1,1.27.1c1.37,5.38-.16,10.29-2.73,14.88-1.24,2.2-2.22,4.74-4.89,5.87a1.92,1.92,0,0,0-.88,2.59c.71,1.8.42,3.68.76,5.5-2.57,4.09-6.78,4.75-11,4.53C30.69,69.85,25.52,68.32,22.32,63.21Z"/><path class="cls-37" d="M22.32,63.21a39.94,39.94,0,0,0,5.87,3.91c5.49,2.84,10.93,3,16.39,0,.86-.47,1.69-1,2.53-1.51a51.76,51.76,0,0,1,12.08,5.65A16,16,0,0,1,63,74.72c.86,1.07,1.75,2.61,1.33,3.72s-2.19.47-3.35.47Q33.75,79,6.49,79c-3.88,0-3.08,0-2-3.25.88-2.68,3.12-4.51,5.34-6.09A51.29,51.29,0,0,1,22.32,63.21Z"/><path d="M53.6,18.18c-.21.65-.06,1.72-1.19,1.46-5.28-1.24-12.63-.43-17.94-.54C31.34,19,29.78,20.91,29.75,24c0,2.59.23,5.16-1.29,7.56a3.3,3.3,0,0,0,.16,3.22A4.89,4.89,0,0,1,29,37.66,1.39,1.39,0,0,1,27.89,39c-.31,0-.87-.54-1-.95a24,24,0,0,0-2.4-4.91c-1.39-2-3.13-3.51-5.72-3.67.21-2.22.32-4.46.67-6.66.6-3.77,3.11-6.13,6.41-7.61C33,11.94,40.29,12.28,47.55,15,49.21,15.61,52.58,16.7,53.6,18.18Z"/><path class="cls-38" d="M41.28,58.77c-2.66.33-5.15-1-7.7-2.21-1.92-.92-2.06-2.92-2.95-4.46-.06-.11.14-.48.3-.58a.64.64,0,0,1,.93.26,8.46,8.46,0,0,0,6.7,4.6c1.94.23,3.77,1.11,5.77.91.48,0,1,.12,1,.79s-.61.67-1.1.68Z"/><ellipse class="cls-35" cx="51.94" cy="35.12" rx="4.74" ry="11.64"/></g><g id="Layer_4" data-name="Layer 4"><circle class="cls-39" cx="282.19" cy="351.91" r="11.86"/><path class="cls-40" d="M282.19,356.39a.52.52,0,0,1-.36-.14.49.49,0,0,1-.15-.36.45.45,0,0,1,.15-.35.49.49,0,0,1,.36-.15.47.47,0,0,1,.35.15.45.45,0,0,1,.15.35.49.49,0,0,1-.15.36A.5.5,0,0,1,282.19,356.39Zm-.37-1.59-.06-2.41h.85l-.07,2.41Z"/><path class="cls-41" d="M289.15,359.31l-13.6.05c0-2.66,0-7.91,0-7.91l-1.57,1.44-1.28-1.35,4.89-5.09.11-2.41,0-1h1.65l.09,1.76s2-1.91,2.81-2.81c3.38,3.36,6.32,6.52,9.53,9.7l-1.07,1.1-1.53-1.43C289.13,354.07,289.14,356.66,289.15,359.31Zm-1.66-2.87a1.42,1.42,0,0,1-1.41,1.4h-7.79a1.39,1.39,0,0,1-1.4-1.39,1.26,1.26,0,0,1,.19-.71L281,349a1.41,1.41,0,0,1,1.92-.51,1.39,1.39,0,0,1,.51.51l3.9,6.75A1.41,1.41,0,0,1,287.49,356.44Z"/><circle class="cls-39" cx="217.16" cy="351.91" r="11.86"/><path class="cls-40" d="M217.17,356.39a.52.52,0,0,1-.36-.14.49.49,0,0,1-.15-.36.45.45,0,0,1,.15-.35.49.49,0,0,1,.36-.15.49.49,0,0,1,.35.15.45.45,0,0,1,.15.35.49.49,0,0,1-.15.36A.52.52,0,0,1,217.17,356.39Zm-.37-1.59-.06-2.41h.85l-.07,2.41Z"/><path class="cls-41" d="M224.13,359.31l-13.6.05c0-2.66,0-7.91,0-7.91l-1.57,1.44-1.29-1.35,4.9-5.09.11-2.41,0-1h1.65l.09,1.76s2-1.91,2.8-2.81c3.38,3.36,6.33,6.52,9.53,9.7l-1.06,1.1-1.53-1.43C224.11,354.07,224.12,356.66,224.13,359.31Zm-1.67-2.87a1.4,1.4,0,0,1-1.4,1.4h-7.79a1.4,1.4,0,0,1-1.41-1.39,1.45,1.45,0,0,1,.19-.71L216,349a1.4,1.4,0,0,1,1.92-.51,1.39,1.39,0,0,1,.51.51l3.89,6.75A1.32,1.32,0,0,1,222.46,356.44Z"/><circle class="cls-39" cx="152.49" cy="351.91" r="11.86"/><path class="cls-40" d="M152.49,356.39a.48.48,0,0,1-.5-.5.48.48,0,0,1,.14-.35.51.51,0,0,1,.72,0,.48.48,0,0,1,.14.35.48.48,0,0,1-.5.5Zm-.36-1.59-.07-2.41h.86l-.08,2.41Z"/><path class="cls-41" d="M159.45,359.31l-13.6.05c0-2.66,0-7.91,0-7.91l-1.58,1.44L143,351.54l4.89-5.09L148,344v-1h1.65l.08,1.76s2-1.91,2.81-2.81c3.38,3.36,6.33,6.52,9.53,9.7l-1.06,1.1-1.54-1.43C159.43,354.07,159.44,356.66,159.45,359.31Zm-1.66-2.87a1.41,1.41,0,0,1-1.41,1.4H148.6a1.39,1.39,0,0,1-1.41-1.39,1.45,1.45,0,0,1,.19-.71l3.89-6.75a1.42,1.42,0,0,1,2.44,0l3.89,6.75A1.41,1.41,0,0,1,157.79,356.44Z"/><circle class="cls-39" cx="344.69" cy="351.91" r="11.86"/><path class="cls-40" d="M344.69,356.39a.48.48,0,0,1-.35-.14.49.49,0,0,1-.15-.36.51.51,0,0,1,.5-.5.49.49,0,0,1,.36.15.45.45,0,0,1,.15.35.49.49,0,0,1-.15.36A.52.52,0,0,1,344.69,356.39Zm-.36-1.59-.06-2.41h.85L345,354.8Z"/><path class="cls-41" d="M351.66,359.31l-13.61.05c0-2.66,0-7.91,0-7.91l-1.58,1.44-1.28-1.35,4.89-5.09.11-2.41v-1h1.65l.09,1.76s2-1.91,2.8-2.81c3.38,3.36,6.33,6.52,9.53,9.7l-1.06,1.1-1.53-1.43C351.64,354.07,351.64,356.66,351.66,359.31ZM350,356.44a1.4,1.4,0,0,1-1.4,1.4H340.8a1.4,1.4,0,0,1-1.41-1.39,1.45,1.45,0,0,1,.19-.71l3.9-6.75a1.39,1.39,0,0,1,1.91-.51,1.34,1.34,0,0,1,.52.51l3.89,6.75A1.32,1.32,0,0,1,350,356.44Z"/><circle class="cls-39" cx="147.7" cy="44.43" r="22.93"/><path class="cls-40" d="M147.7,53.09a.9.9,0,0,1-.68-.28,1,1,0,0,1,.68-1.66,1,1,0,0,1,.69.28,1,1,0,0,1,0,1.38A.92.92,0,0,1,147.7,53.09ZM147,50l-.12-4.67h1.65L148.38,50Z"/><path class="cls-41" d="M161.16,58.74l-26.29.09c0-5.14-.06-15.28-.06-15.28l-3.05,2.78-2.47-2.62,9.45-9.83.21-4.65,0-2h3.19l.16,3.4s3.83-3.7,5.42-5.44c6.54,6.5,12.23,12.6,18.42,18.75-.59.6-1.26,1.3-2.05,2.12l-3-2.77C161.12,48.61,161.14,53.61,161.16,58.74ZM158,53.18a2.72,2.72,0,0,1-2.72,2.71h-15a2.7,2.7,0,0,1-2.72-2.69,2.77,2.77,0,0,1,.37-1.38l7.52-13a2.71,2.71,0,0,1,3.71-1,2.61,2.61,0,0,1,1,1l7.53,13A2.72,2.72,0,0,1,158,53.18Z"/><circle class="cls-39" cx="220.51" cy="262.1" r="22.93"/><path class="cls-40" d="M220.51,270.77a1,1,0,1,1,.69-.28A.94.94,0,0,1,220.51,270.77Zm-.7-3.07-.12-4.67h1.64l-.14,4.67Z"/><path class="cls-41" d="M234,276.41l-26.28.1c0-5.14-.06-15.28-.06-15.28L204.57,264l-2.48-2.62,9.45-9.83.22-4.66,0-2h3.19l.16,3.41s3.83-3.7,5.43-5.44c6.53,6.5,12.23,12.6,18.41,18.75l-2,2.12-3-2.77C233.93,266.29,233.94,271.29,234,276.41Zm-3.21-5.55a2.72,2.72,0,0,1-2.72,2.71H213a2.7,2.7,0,0,1-2.71-2.7,2.65,2.65,0,0,1,.36-1.37l7.53-13a2.71,2.71,0,0,1,4.7,0l7.52,13A2.7,2.7,0,0,1,230.75,270.86Z"/><circle class="cls-39" cx="279.43" cy="60.89" r="11.86"/><path class="cls-40" d="M279.43,65.37a.49.49,0,0,1-.36-.15.45.45,0,0,1-.15-.35.49.49,0,0,1,.15-.36.48.48,0,0,1,.36-.14.45.45,0,0,1,.35.14.49.49,0,0,1,.15.36.51.51,0,0,1-.5.5Zm-.36-1.59L279,61.36h.85l-.07,2.42Z"/><path class="cls-41" d="M286.39,68.29l-13.6,0c0-2.66,0-7.91,0-7.91l-1.58,1.44-1.28-1.35,4.89-5.09L274.9,53V52h1.65l.08,1.76s2-1.91,2.81-2.81c3.38,3.36,6.33,6.52,9.53,9.7-.31.31-.65.67-1.06,1.1l-1.54-1.44C286.37,63.05,286.38,65.64,286.39,68.29Zm-1.66-2.87a1.41,1.41,0,0,1-1.41,1.4h-7.79a1.4,1.4,0,0,1-1.4-1.4,1.38,1.38,0,0,1,.19-.71L278.21,58a1.41,1.41,0,0,1,1.92-.51,1.39,1.39,0,0,1,.51.51l3.9,6.74A1.48,1.48,0,0,1,284.73,65.42Z"/><circle class="cls-39" cx="338.93" cy="60.89" r="11.86"/><path class="cls-40" d="M338.93,65.37a.47.47,0,0,1-.35-.15.45.45,0,0,1-.15-.35.49.49,0,0,1,.15-.36.46.46,0,0,1,.35-.14.48.48,0,0,1,.36.14.49.49,0,0,1,.15.36.45.45,0,0,1-.15.35A.49.49,0,0,1,338.93,65.37Zm-.36-1.59-.06-2.42h.85l-.07,2.42Z"/><path class="cls-41" d="M345.9,68.29l-13.6,0c0-2.66,0-7.91,0-7.91l-1.57,1.44-1.29-1.35,4.9-5.09.11-2.41,0-1H336l.09,1.76s2-1.91,2.8-2.81c3.38,3.36,6.33,6.52,9.53,9.7l-1.06,1.1-1.53-1.44C345.88,63.05,345.89,65.64,345.9,68.29Zm-1.67-2.87a1.4,1.4,0,0,1-1.4,1.4H335a1.41,1.41,0,0,1-1.41-1.4,1.48,1.48,0,0,1,.19-.71l3.9-6.74a1.4,1.4,0,0,1,1.92-.51,1.39,1.39,0,0,1,.51.51L344,64.71A1.38,1.38,0,0,1,344.23,65.42Z"/><circle class="cls-39" cx="338.93" cy="278.62" r="11.86"/><path class="cls-40" d="M338.93,283.1a.51.51,0,0,1-.5-.5.49.49,0,0,1,.15-.36.47.47,0,0,1,.35-.15.51.51,0,0,1,.51.51.47.47,0,0,1-.15.35A.49.49,0,0,1,338.93,283.1Zm-.36-1.59-.06-2.42h.85l-.07,2.42Z"/><path class="cls-41" d="M345.9,286l-13.6.05c0-2.66,0-7.91,0-7.91l-1.57,1.44-1.29-1.35,4.9-5.09.11-2.41,0-1H336l.09,1.76s2-1.91,2.8-2.81c3.38,3.36,6.33,6.51,9.53,9.7l-1.06,1.1L345.87,278C345.88,280.78,345.89,283.37,345.9,286Zm-1.67-2.88a1.41,1.41,0,0,1-1.4,1.41H335a1.41,1.41,0,0,1-1.41-1.4,1.48,1.48,0,0,1,.19-.71l3.9-6.74a1.42,1.42,0,0,1,1.92-.52,1.49,1.49,0,0,1,.51.52l3.89,6.74A1.37,1.37,0,0,1,344.23,283.14Z"/><circle class="cls-39" cx="155.43" cy="278.62" r="11.86"/><path class="cls-40" d="M155.43,283.1a.51.51,0,0,1-.5-.5.49.49,0,0,1,.15-.36.47.47,0,0,1,.35-.15.51.51,0,0,1,.51.51.47.47,0,0,1-.15.35A.49.49,0,0,1,155.43,283.1Zm-.36-1.59-.06-2.42h.85l-.07,2.42Z"/><path class="cls-41" d="M162.4,286l-13.61.05c0-2.66,0-7.91,0-7.91l-1.57,1.44-1.29-1.35,4.9-5.09.11-2.41,0-1h1.65l.09,1.76s2-1.91,2.8-2.81c3.38,3.36,6.33,6.51,9.53,9.7l-1.06,1.1L162.37,278C162.38,280.78,162.39,283.37,162.4,286Zm-1.67-2.88a1.41,1.41,0,0,1-1.4,1.41h-7.79a1.41,1.41,0,0,1-1.41-1.4,1.48,1.48,0,0,1,.19-.71l3.9-6.74a1.42,1.42,0,0,1,1.92-.52,1.49,1.49,0,0,1,.51.52l3.89,6.74A1.37,1.37,0,0,1,160.73,283.14Z"/><circle class="cls-42" cx="343.54" cy="408.4" r="23.17"/><path class="cls-40" d="M351,397.54q1.92,1.95,3.73,3.83c.53.55,1.07,1.11,1.62,1.66v4.48c0,1.26,0,2.49,0,3.73l-10.43,0,0-6.53v-2.26l.22-.22,3.51-3.4,1.35-1.32m0-4.13c-1,1.07-3.35,3.36-3.35,3.36l-.1-2.11h-2l0,1.24-.14,2.87-5.83,6.07,1.53,1.62,1.88-1.72s0,6.27,0,9.44l16.24-.06c0-3.16,0-6.25,0-9.54L361,406.3l1.27-1.31c-3.82-3.8-7.34-7.57-11.38-11.58Z"/><path class="cls-40" d="M338.41,424.44a12.21,12.21,0,0,1-10-19.15,11.69,11.69,0,0,1,1.58-1.86l2,2.1a9.6,9.6,0,0,0-1.2,1.41,9.3,9.3,0,0,0,2.36,12.93,9.3,9.3,0,0,0,12.93-2.35l2.39,1.65a12.09,12.09,0,0,1-7.85,5.06A11.89,11.89,0,0,1,338.41,424.44Z"/><polygon class="cls-40" points="332.1 408.12 335.31 401.95 328.35 402.26 332.1 408.12"/><circle class="cls-42" cx="216.52" cy="425.32" r="11.29"/><path class="cls-40" d="M220.13,420,222,421.9l.78.81v2.18c0,.61,0,1.21,0,1.81l-5.08,0v-4.28l.11-.11,1.71-1.66.66-.64m0-2c-.48.52-1.63,1.63-1.63,1.63l-.05-1h-1v.61l-.07,1.4-2.84,2.95.74.79.92-.84s0,3.06,0,4.6l7.91,0c0-1.54,0-3,0-4.65l.89.84.62-.64c-1.86-1.85-3.57-3.69-5.54-5.64Z"/><path class="cls-40" d="M214,433.13a5.88,5.88,0,0,1-3.37-1.06,6,6,0,0,1-1.51-8.26,6.17,6.17,0,0,1,.77-.91l1,1a4.3,4.3,0,0,0-.59.69,4.54,4.54,0,0,0,1.15,6.3,4.45,4.45,0,0,0,3.38.73,4.51,4.51,0,0,0,2.92-1.88l1.16.81A5.89,5.89,0,0,1,215.1,433,5.64,5.64,0,0,1,214,433.13Z"/><polygon class="cls-40" points="210.95 425.19 212.51 422.18 209.12 422.33 210.95 425.19"/><circle class="cls-42" cx="151.99" cy="425.32" r="11.29"/><path class="cls-40" d="M155.59,420l1.82,1.87.79.81v4l-5.07,0v-4.28l.11-.11,1.71-1.66.65-.64m0-2c-.48.52-1.63,1.63-1.63,1.63l-.05-1h-1v.61l-.06,1.4-2.84,2.95.74.79.92-.84s0,3.06,0,4.6l7.91,0c0-1.54,0-3,0-4.65l.89.84.62-.64c-1.86-1.85-3.58-3.69-5.54-5.64Z"/><path class="cls-40" d="M149.49,433.13a5.85,5.85,0,0,1-3.37-1.06,5.94,5.94,0,0,1-1.51-8.26,6.17,6.17,0,0,1,.77-.91l1,1a4.82,4.82,0,0,0-.58.69,4.53,4.53,0,0,0,1.15,6.3,4.52,4.52,0,0,0,6.29-1.15l1.17.81a5.89,5.89,0,0,1-3.82,2.46A5.64,5.64,0,0,1,149.49,433.13Z"/><polygon class="cls-40" points="146.41 425.19 147.98 422.18 144.59 422.33 146.41 425.19"/></g><g id="Layer_5" data-name="Layer 5"><circle class="cls-43" cx="146.87" cy="117.6" r="22.93"/><path class="cls-40" d="M146.75,102.49c2.53,2.55,5,5.07,7.35,7.51l3.12,3.22v3.28l0,4.6c0,2.69,0,5.32,0,8l-20.53.07-.05-12.4,0-4.4,2-2.11v.08l4.57-4.42c.11-.1,1.84-1.77,3.46-3.4m0-4.11c-1.59,1.74-5.42,5.44-5.42,5.44l-.16-3.4h-3.19l0,2-.21,4.65-9.45,9.83,2.47,2.62,3-2.78s0,10.14.06,15.28l26.29-.09c0-5.13,0-10.13-.06-15.45l3,2.76,2-2.12c-6.19-6.15-11.88-12.25-18.42-18.75Z"/><circle class="cls-40" cx="146.86" cy="110.93" r="1.88"/><path class="cls-40" d="M147.83,113.31h-2a1.31,1.31,0,0,0-1.41,1.16v2.15a.75.75,0,0,0,.65.69l.13,0a.37.37,0,0,1,.32.33v3.72a.66.66,0,0,0,.71.59h1.18a.67.67,0,0,0,.72-.59v-3.72a.35.35,0,0,1,.31-.33l.14,0a.75.75,0,0,0,.64-.69v-2.15A1.36,1.36,0,0,0,147.83,113.31Z"/><rect class="cls-40" x="138.31" y="124.44" width="17.12" height="2.88"/><circle class="cls-43" cx="338.79" cy="134.19" r="11.85"/><path class="cls-40" d="M338.73,126.38c1.31,1.32,2.57,2.62,3.8,3.89l1.61,1.66V136c0,1.39,0,2.75,0,4.12l-10.61,0,0-6.41v-2.27l1.05-1.1v0l2.36-2.28c.06,0,.95-.92,1.79-1.76m0-2.12c-.82.9-2.8,2.81-2.8,2.81l-.09-1.76h-1.65l0,1-.11,2.41-4.89,5.08,1.28,1.35,1.58-1.44s0,5.24,0,7.9l13.58-.05c0-2.65,0-5.23,0-8l1.53,1.43,1.06-1.1c-3.2-3.18-6.14-6.33-9.52-9.69Z"/><circle class="cls-40" cx="338.78" cy="130.74" r="0.97"/><path class="cls-40" d="M339.29,132h-1a.67.67,0,0,0-.73.6v1.11a.39.39,0,0,0,.33.35l.08,0a.18.18,0,0,1,.16.17v1.92a.34.34,0,0,0,.37.31h.61a.35.35,0,0,0,.37-.31v-1.92a.17.17,0,0,1,.16-.17l.07,0a.37.37,0,0,0,.33-.36v-1.11A.7.7,0,0,0,339.29,132Z"/><rect class="cls-40" x="334.37" y="137.73" width="8.85" height="1.49"/><circle class="cls-43" cx="155.79" cy="206.38" r="11.85"/><path class="cls-40" d="M155.72,198.57c1.31,1.32,2.57,2.62,3.8,3.88l1.62,1.67v4.07c0,1.39,0,2.75,0,4.12l-10.62,0,0-6.41v-2.27l1-1.09v0l2.37-2.28c.05-.06.94-.92,1.78-1.76m0-2.12c-.82.89-2.8,2.81-2.8,2.81l-.08-1.76h-1.65v1l-.11,2.4L146.19,206l1.28,1.36,1.57-1.44s0,5.24,0,7.9l13.59-.05c0-2.65,0-5.24,0-8l1.53,1.43,1.06-1.09c-3.19-3.18-6.14-6.34-9.52-9.69Z"/><circle class="cls-40" cx="155.78" cy="202.93" r="0.97"/><path class="cls-40" d="M156.28,204.16h-1a.67.67,0,0,0-.72.6v1.11a.38.38,0,0,0,.33.36l.07,0a.19.19,0,0,1,.16.17v1.93a.34.34,0,0,0,.37.3h.61a.34.34,0,0,0,.37-.3v-1.93a.18.18,0,0,1,.16-.17h.08a.4.4,0,0,0,.33-.36v-1.11A.71.71,0,0,0,156.28,204.16Z"/><rect class="cls-40" x="151.36" y="209.92" width="8.85" height="1.49"/><circle class="cls-43" cx="221.79" cy="206.38" r="11.85"/><path class="cls-40" d="M221.72,198.57c1.31,1.32,2.57,2.62,3.8,3.88l1.62,1.67v4.07c0,1.39,0,2.75,0,4.12l-10.62,0,0-6.41v-2.27l1-1.09v0l2.37-2.28c.05-.06.94-.92,1.78-1.76m0-2.12c-.82.89-2.8,2.81-2.8,2.81l-.08-1.76h-1.65v1l-.11,2.4L212.19,206l1.28,1.36,1.57-1.44s0,5.24,0,7.9l13.59-.05c0-2.65,0-5.24,0-8l1.53,1.43,1.06-1.09c-3.19-3.18-6.14-6.34-9.52-9.69Z"/><circle class="cls-40" cx="221.78" cy="202.93" r="0.97"/><path class="cls-40" d="M222.28,204.16h-1a.67.67,0,0,0-.72.6v1.11a.38.38,0,0,0,.33.36l.07,0a.19.19,0,0,1,.16.17v1.93a.34.34,0,0,0,.37.3h.61a.34.34,0,0,0,.37-.3v-1.93a.18.18,0,0,1,.16-.17h.08a.4.4,0,0,0,.33-.36v-1.11A.71.71,0,0,0,222.28,204.16Z"/><rect class="cls-40" x="217.36" y="209.92" width="8.85" height="1.49"/><circle class="cls-43" cx="285.79" cy="206.38" r="11.85"/><path class="cls-40" d="M285.72,198.57c1.31,1.32,2.57,2.62,3.8,3.88l1.62,1.67v4.07c0,1.39,0,2.75,0,4.12l-10.62,0,0-6.41v-2.27l1.05-1.09v0l2.37-2.28c.05-.06.94-.92,1.78-1.76m0-2.12c-.82.89-2.8,2.81-2.8,2.81l-.08-1.76h-1.65v1l-.11,2.4L276.19,206l1.28,1.36,1.57-1.44s0,5.24,0,7.9l13.59-.05c0-2.65,0-5.24,0-8l1.53,1.43,1.06-1.09c-3.19-3.18-6.14-6.34-9.52-9.69Z"/><circle class="cls-40" cx="285.78" cy="202.93" r="0.97"/><path class="cls-40" d="M286.28,204.16h-1a.67.67,0,0,0-.72.6v1.11a.38.38,0,0,0,.33.36l.07,0a.19.19,0,0,1,.16.17v1.93a.34.34,0,0,0,.37.3h.61a.34.34,0,0,0,.37-.3v-1.93a.18.18,0,0,1,.16-.17h.08a.4.4,0,0,0,.33-.36v-1.11A.71.71,0,0,0,286.28,204.16Z"/><rect class="cls-40" x="281.36" y="209.92" width="8.85" height="1.49"/><circle class="cls-43" cx="345.64" cy="206.38" r="11.85"/><path class="cls-40" d="M345.57,198.57c1.31,1.32,2.57,2.62,3.8,3.88l1.62,1.67v4.07c0,1.39,0,2.75,0,4.12l-10.61,0,0-6.41v-2.27l1.05-1.09v0l2.36-2.28c0-.06.95-.92,1.78-1.76m0-2.12c-.83.89-2.81,2.81-2.81,2.81l-.08-1.76H341v1l-.11,2.4L336,206l1.28,1.36,1.57-1.44s0,5.24,0,7.9l13.59-.05c0-2.65,0-5.24,0-8l1.53,1.43c.42-.42.76-.78,1.06-1.09-3.19-3.18-6.14-6.34-9.51-9.69Z"/><circle class="cls-40" cx="345.63" cy="202.93" r="0.97"/><path class="cls-40" d="M346.13,204.16h-1a.68.68,0,0,0-.73.6v1.11a.38.38,0,0,0,.33.36l.07,0a.19.19,0,0,1,.16.17v1.93a.35.35,0,0,0,.37.3h.61a.34.34,0,0,0,.37-.3v-1.93a.19.19,0,0,1,.16-.17h.08a.4.4,0,0,0,.33-.36v-1.11A.71.71,0,0,0,346.13,204.16Z"/><rect class="cls-40" x="341.21" y="209.92" width="8.85" height="1.49"/></g></svg>