<?xml version="1.0" encoding="utf-8"?>
<!-- Generator: Adobe Illustrator 24.3.0, SVG Export Plug-In . SVG Version: 6.00 Build 0)  -->
<svg version="1.1" id="Layer_1" xmlns="http://www.w3.org/2000/svg" xmlns:xlink="http://www.w3.org/1999/xlink" x="0px" y="0px"
	 viewBox="0 0 206.1 193.1" style="enable-background:new 0 0 206.1 193.1;" xml:space="preserve">
<style type="text/css">
	.st0{fill:#5383C3;}
	.st1{fill:#FFFFFF;}
	.st2{fill:none;stroke:#FFFFFF;stroke-width:5;stroke-miterlimit:10;}
	.st3{fill:#244BA0;}
	.st4{fill:#DB7027;}
	.st5{fill-rule:evenodd;clip-rule:evenodd;fill:#FFFFFF;}
	.st6{fill:none;stroke:#383838;stroke-miterlimit:10;}
	.st7{fill:#383838;}
</style>
<g id="Layer_4">
	<circle class="st0" cx="166.3" cy="96.5" r="39.8"/>
	<path class="st1" d="M179.1,77.9c2.2,2.2,4.3,4.4,6.4,6.6l2.8,2.9V95c0,2.2,0,4.3,0,6.5l-17.9,0.1V90.4v-3.9l0.4-0.4l6-5.8
		C176.8,80.1,177.8,79.1,179.1,77.9 M179,70.8c-1.7,1.8-5.8,5.8-5.8,5.8L173,73h-3.4v2l-0.1,5l-10,10.5l2.6,2.8l3.2-2.9
		c0,0,0,10.8,0.1,16.2l27.9-0.1c0-5.4,0-10.8-0.1-16.4l3.1,2.9l2.2-2.2C192,84.2,186,77.7,179,70.8L179,70.8z"/>
	<path class="st2" d="M172.7,113.6c-5.5,8.6-17,11.1-25.5,5.5c-8.6-5.5-11.1-17-5.5-25.5c0.2-0.3,0.5-0.7,0.7-1c0.7-1,1.5-2,2.4-2.8
		"/>
	<polygon class="st1" points="146.7,96.1 152.2,85.4 140.2,86 	"/>
</g>
<g id="Layer_5_1_">
	<circle class="st3" cx="39.8" cy="96.5" r="39.8"/>
	<path class="st1" d="M39.6,70.3c4.4,4.4,8.6,8.8,12.8,13.1l5.4,5.6v5.7v8c0,4.7,0,9.2,0,13.9l-35.7,0.1L22,95.2v-7.6l3.6-3.7V84
		l7.9-7.7C33.8,76,36.8,73.1,39.6,70.3 M39.5,63.1c-2.8,3-9.4,9.4-9.4,9.4l-0.2-5.8h-5.5v3.5l-0.3,8.1l-16.5,17l4.3,4.5l5.3-4.8
		c0,0,0.1,17.6,0.1,26.5l45.7-0.2c0-8.9-0.1-17.6-0.1-26.8l5.2,4.8l3.5-3.7C60.8,85,50.9,74.4,39.5,63.1L39.5,63.1z"/>
	<circle class="st1" cx="39.8" cy="84.9" r="3.3"/>
	<path class="st1" d="M41.5,89.1h-3.4c-1.2-0.1-2.3,0.8-2.5,2v3.7c0,0.6,0.5,1.1,1.1,1.2l0.2,0.1c0.3,0,0.5,0.3,0.5,0.6v6.5
		c0.1,0.6,0.6,1,1.2,1h2.1c0.6,0,1.2-0.4,1.2-1v-6.5c0-0.3,0.2-0.5,0.5-0.6h0.2c0.6-0.1,1.1-0.6,1.1-1.3v-3.7
		C43.8,89.9,42.7,89,41.5,89.1z"/>
	<line class="st2" x1="25" y1="110.9" x2="54.7" y2="110.9"/>
</g>
<g id="Layer_4_1_">
	<circle class="st4" cx="103.1" cy="153.2" r="39.8"/>
	<path class="st1" d="M103.1,168.3c-0.9,0-1.7-0.7-1.7-1.7c0-0.9,0.7-1.7,1.7-1.7c0.5,0,0.9,0.2,1.2,0.5c0.7,0.7,0.7,1.7,0,2.4
		C103.9,168.1,103.5,168.3,103.1,168.3z M101.8,162.9l-0.2-8.1h2.9l-0.3,8.1H101.8z"/>
	<path class="st5" d="M126.4,178.1l-45.7,0.2c0-8.9-0.1-26.6-0.1-26.6l-5.3,4.8l-4.3-4.5l16.4-17.1l0.4-8.1l0-3.4h5.5l0.3,5.9
		c0,0,6.7-6.4,9.4-9.4c11.3,11.2,21.2,21.8,32,32.5l-3.6,3.7l-5.2-4.8C126.4,160.5,126.4,169.2,126.4,178.1z M120.8,168.4
		c0,2.6-2.1,4.7-4.7,4.7H90c-2.6,0-4.7-2.1-4.7-4.7c0-0.8,0.2-1.7,0.6-2.4L99,143.4c1.3-2.3,4.2-3,6.4-1.7c0.7,0.4,1.3,1,1.7,1.7
		l13.1,22.7C120.6,166.8,120.8,167.6,120.8,168.4z"/>
</g>
<g id="Layer_4_2_">
	<circle class="st4" cx="103.1" cy="39.8" r="39.8"/>
	<path class="st1" d="M103.1,54.9c-0.9,0-1.7-0.7-1.7-1.7c0-0.9,0.7-1.7,1.7-1.7c0.5,0,0.9,0.2,1.2,0.5c0.7,0.7,0.7,1.7,0,2.4
		C103.9,54.7,103.5,54.9,103.1,54.9z M101.8,49.5l-0.2-8.1h2.9l-0.3,8.1H101.8z"/>
	<path class="st5" d="M126.4,64.7l-45.7,0.2c0-8.9-0.1-26.5-0.1-26.5l-5.3,4.8l-4.3-4.5l16.4-17.1l0.4-8.1l0-3.4h5.5l0.3,5.9
		c0,0,6.7-6.4,9.4-9.4c11.3,11.2,21.2,21.8,32,32.5l-3.6,3.7l-5.2-4.8C126.4,47.1,126.4,55.8,126.4,64.7z M120.8,55
		c0,2.6-2.1,4.7-4.7,4.7H90c-2.6,0-4.7-2.1-4.7-4.7c0-0.8,0.2-1.7,0.6-2.4L99,30c1.3-2.3,4.2-3,6.4-1.7c0.7,0.4,1.3,1,1.7,1.7
		l13.1,22.7C120.6,53.4,120.8,54.2,120.8,55z"/>
</g>
<g>
	<g>
		<path class="st6" d="M103,83.1c7.5,0,13.6,6.1,13.6,13.6c0,7.5-6.1,13.6-13.6,13.6s-13.6-6.1-13.6-13.6c0-0.7,0.1-1.4,0.2-2.1"/>
		<g>
			<path class="st7" d="M93.4,87.1c-0.4,4.2-0.2,9.8,0.9,13.7l-5-5l-7-0.6C86,93.4,90.4,90,93.4,87.1z"/>
		</g>
	</g>
</g>
</svg>
