<svg xmlns="http://www.w3.org/2000/svg" viewBox="0 0 79.66 79.66"><defs><style>.cls-1{fill:#5383c3;}.cls-2{fill:#fff;}.cls-3{fill:none;stroke:#fff;stroke-miterlimit:10;stroke-width:5px;}</style></defs><g id="Layer_4" data-name="Layer 4"><circle class="cls-1" cx="39.83" cy="39.83" r="39.83"/><path class="cls-2" d="M52.56,21.17q3.3,3.34,6.42,6.58l2.78,2.86v7.61c0,2.19,0,4.34,0,6.49l-17.92.06,0-11.23,0-3.88.37-.39,6-5.84c.09-.08,1.1-1.06,2.31-2.26m0-7.12c-1.69,1.85-5.76,5.78-5.76,5.78l-.18-3.61H43.22l0,2.12L43,23.29,33,33.74l2.63,2.77,3.24-2.95s0,10.77.06,16.23l27.92-.1c0-5.44,0-10.76-.06-16.41l3.14,2.94L72.1,34c-6.58-6.54-12.63-13-19.56-19.92Z"/><path class="cls-3" d="M46.25,56.93a18.48,18.48,0,1,1-30.39-21,18,18,0,0,1,2.39-2.81"/><polygon class="cls-2" points="20.16 39.36 25.68 28.74 13.72 29.27 20.16 39.36"/></g></svg>