<svg xmlns="http://www.w3.org/2000/svg" viewBox="0 0 79.66 79.66"><defs><style>.cls-1{fill:#d1842f;}.cls-2{fill:#fff;}.cls-3{fill:none;stroke:#fff;stroke-miterlimit:10;stroke-width:5px;}</style></defs><g id="Layer_4" data-name="Layer 4"><circle class="cls-1" cx="39.83" cy="39.83" r="39.83"/><path class="cls-2" d="M30.61,13.88q3.3,3.34,6.42,6.58l2.78,2.86V26l0,4.92c0,2.19,0,4.34,0,6.49l-17.92.06,0-11.23,0-3.88.38-.39,6-5.84c.09-.08,1.1-1.06,2.31-2.26m0-7.11c-1.69,1.84-5.76,5.77-5.76,5.77l-.18-3.61H21.27l0,2.12-.22,5L11,26.45l2.63,2.78,3.24-3S16.94,37,17,42.5l27.92-.1c0-5.44,0-10.75-.06-16.41L48,28.93c.84-.87,1.55-1.61,2.18-2.25-6.57-6.54-12.62-13-19.56-19.91Z"/><line class="cls-3" x1="17.96" y1="52.66" x2="38.69" y2="52.66"/><polygon class="cls-2" points="36.94 58.65 47.3 52.66 36.94 46.68 36.94 58.65"/><line class="cls-3" x1="17.96" y1="64.89" x2="53.69" y2="64.89"/><polygon class="cls-2" points="51.94 70.88 62.3 64.89 51.94 58.91 51.94 70.88"/></g></svg>